<?xml version="1.0" standalone="no"?>
<!DOCTYPE svg PUBLIC "-//W3C//DTD SVG 1.1//EN" "http://www.w3.org/Graphics/SVG/1.1/DTD/svg11.dtd" >
<svg xmlns="http://www.w3.org/2000/svg" xmlns:xlink="http://www.w3.org/1999/xlink" version="1.1">
<metadata>
Created by FontForge 20170731 at Sat Aug  3 13:46:51 2019
 By Aleksey,,,
</metadata>
<defs>
<font id="NanumSquareOTFB00" horiz-adv-x="910" vert-adv-y="1000" >
  <font-face 
    font-family="NanumSquareOTFB00"
    font-weight="700"
    font-stretch="normal"
    units-per-em="1000"
    panose-1="2 0 8 3 0 0 0 0 0 0"
    ascent="800"
    descent="-200"
    x-height="521"
    cap-height="695"
    bbox="-62 -252 1203 847"
    underline-thickness="50"
    underline-position="-200"
    unicode-range="U+0020-FFE6"
  />
<missing-glyph vert-adv-y="1105" 
d="M855 757v-900h-800v900h800zM790 -107l-335 385l-335 -385h670zM95 692v-768l334 384zM121 721l333 -384l334 384h-667zM815 -77v770l-334 -386z" />
    <glyph glyph-name=".notdef" vert-adv-y="1105" 
d="M855 757v-900h-800v900h800zM790 -107l-335 385l-335 -385h670zM95 692v-768l334 384zM121 721l333 -384l334 384h-667zM815 -77v770l-334 -386z" />
    <glyph glyph-name=".null" horiz-adv-x="0" vert-adv-y="0" 
 />
    <glyph glyph-name="nonmarkingreturn" horiz-adv-x="333" 
 />
    <glyph glyph-name="space" unicode=" " horiz-adv-x="250" vert-adv-y="1105" 
 />
    <glyph glyph-name="exclam" unicode="!" horiz-adv-x="300" vert-adv-y="1105" 
d="M93 -67v115h114v-115h-114zM192 151h-84l-14 583h112z" />
    <glyph glyph-name="quotedbl" unicode="&#x22;" horiz-adv-x="387" vert-adv-y="1105" 
d="M154 488h-84l-10 246h104zM317 488h-84l-10 246h104z" />
    <glyph glyph-name="numbersign" unicode="#" horiz-adv-x="614" vert-adv-y="1105" 
d="M442 262h101v-87h-113l-28 -201h-80l28 201h-131l-27 -201h-81l28 201h-99v87h111l21 150h-101v87h114l27 196h80l-27 -196h130l27 196h81l-28 -196h99v-87h-111zM362 262l21 150h-131l-21 -150h131z" />
    <glyph glyph-name="dollar" unicode="$" horiz-adv-x="628" vert-adv-y="1105" 
d="M286 -93v72q-64 4 -124.5 25.5t-101.5 54.5l50 75q79 -60 176 -71v240q-105 24 -158.5 66.5t-53.5 125.5v18q0 71 54.5 120t157.5 57v61h61v-60q119 -6 193 -64l-48 -70q-68 45 -145 51v-231q124 -32 172.5 -76t48.5 -118v-15q0 -87 -59.5 -134t-161.5 -54v-73h-61z
M471 176q0 40 -26 66.5t-98 45.5v-225q60 7 92 33.5t32 64.5v15zM170 497q0 -40 28 -63t88 -41v214q-57 -6 -86.5 -32t-29.5 -61v-17z" />
    <glyph glyph-name="percent" unicode="%" horiz-adv-x="893" vert-adv-y="1105" 
d="M276 -25h-90l431 720h89zM227 706q76 0 119.5 -45t43.5 -124v-42q0 -79 -43.5 -124t-119.5 -45t-119.5 45t-43.5 124v42q0 79 43.5 124t119.5 45zM227 394q85 0 85 103v38q0 103 -85 103t-85 -103v-38q0 -103 85 -103zM666 346q76 0 119.5 -45t43.5 -124v-42
q0 -79 -43.5 -124t-119.5 -45t-119.5 45t-43.5 124v42q0 79 43.5 124t119.5 45zM666 34q85 0 85 103v38q0 103 -85 103t-85 -103v-38q0 -103 85 -103z" />
    <glyph glyph-name="ampersand" unicode="&#x26;" horiz-adv-x="677" vert-adv-y="1105" 
d="M281 49q94 0 158 62l-169 202q-74 -39 -105 -70.5t-31 -74.5v-16q0 -42 42.5 -72.5t104.5 -30.5zM217 555v-11q0 -36 75 -124q103 59 103 124v11q0 28 -26 47.5t-63 19.5q-40 0 -64.5 -20t-24.5 -47zM525 361h91q0 -151 -63 -249l116 -137h-114l-59 70q-86 -82 -213 -82
h-6q-98 0 -167 48t-69 138v23q0 67 41 115t131 93q-30 35 -42.5 51t-28 48.5t-15.5 61.5v18q0 62 47.5 104.5t131.5 42.5q79 0 129.5 -45t50.5 -102v-19q0 -51 -31 -95t-109 -90l146 -171q33 63 33 177z" />
    <glyph glyph-name="quotesingle" unicode="'" horiz-adv-x="228" vert-adv-y="1105" 
d="M158 488h-88l-10 246h108z" />
    <glyph glyph-name="parenleft" unicode="(" horiz-adv-x="337" vert-adv-y="1105" 
d="M177 324v-50q0 -256 137 -444h-92q-147 175 -147 449v40q0 272 147 447h92q-137 -185 -137 -442z" />
    <glyph glyph-name="parenright" unicode=")" horiz-adv-x="337" vert-adv-y="1105" 
d="M160 274v50q0 257 -137 442h92q147 -175 147 -447v-40q0 -274 -147 -449h-92q137 188 137 444z" />
    <glyph glyph-name="asterisk" unicode="*" horiz-adv-x="469" vert-adv-y="1105" 
d="M204 483l-120 -83l-41 77l139 59l-139 58l41 77l119 -83l-11 143h86l-12 -143l120 83l40 -77l-139 -58l139 -59l-40 -77l-120 83l12 -142h-86z" />
    <glyph glyph-name="plus" unicode="+" horiz-adv-x="600" vert-adv-y="1105" 
d="M255 571h90v-211h207v-84h-207v-225h-90v225h-207v84h207v211z" />
    <glyph glyph-name="comma" unicode="," horiz-adv-x="294" vert-adv-y="1105" 
d="M58 -175l42 228h115l-77 -228h-80z" />
    <glyph glyph-name="hyphen" unicode="-" horiz-adv-x="420" vert-adv-y="1105" 
d="M46 292v84h326v-84h-326z" />
    <glyph glyph-name="period" unicode="." horiz-adv-x="294" vert-adv-y="1105" 
d="M90 -67v115h114v-115h-114z" />
    <glyph glyph-name="slash" unicode="/" horiz-adv-x="437" vert-adv-y="1105" 
d="M323 768h96l-306 -896h-95z" />
    <glyph glyph-name="zero" unicode="0" horiz-adv-x="610" vert-adv-y="1105" 
d="M560 391v-112q0 -316 -255 -316q-127 0 -191 81.5t-64 234.5v112q0 153 65 234t190 81q126 0 190.5 -81t64.5 -234zM459 278v114q0 123 -40.5 172.5t-113.5 49.5q-154 0 -154 -222v-114q0 -223 154 -223q73 0 113.5 49t40.5 174z" />
    <glyph glyph-name="one" unicode="1" horiz-adv-x="610" vert-adv-y="1105" 
d="M425 -26h-99v605l-169 -100l-47 80l232 136h83v-721z" />
    <glyph glyph-name="two" unicode="2" horiz-adv-x="610" vert-adv-y="1105" 
d="M64 57l269 292q56 61 73 97.5t17 70.5v8q0 43 -33.5 67.5t-90.5 24.5q-98 0 -157 -105l-76 49q80 145 231 145q107 0 166 -50t59 -131v-10q0 -97 -111 -215l-225 -240h362v-86h-484v83z" />
    <glyph glyph-name="three" unicode="3" horiz-adv-x="610" vert-adv-y="1105" 
d="M146 546l-71 52q76 108 210 108q99 0 158.5 -49.5t59.5 -130.5v-10q0 -51 -26 -96t-87 -67q71 -12 108.5 -57t37.5 -109v-15q0 -87 -63.5 -148t-188.5 -61q-130 0 -231 80l49 79q95 -69 182 -69q75 0 114 33t39 85v13q0 123 -149 123h-89v86h85q63 0 92 35t29 87v8
q0 45 -34 70t-85 25q-85 0 -140 -72z" />
    <glyph glyph-name="four" unicode="4" horiz-adv-x="610" vert-adv-y="1105" 
d="M387 434h98v-221h102v-84h-102v-155h-98v155h-360v74l339 492h109l-332 -482h244v221z" />
    <glyph glyph-name="five" unicode="5" horiz-adv-x="610" vert-adv-y="1105" 
d="M559 206v-15q0 -42 -14.5 -81t-43 -72.5t-78.5 -54t-115 -20.5q-144 0 -245 80l49 79q88 -69 198 -69q73 0 111.5 41t38.5 97v12q0 71 -37.5 107t-107.5 36q-82 0 -141 -57h-76l23 406h391v-85h-301l-11 -225q59 44 144 44q99 0 157 -64t58 -159z" />
    <glyph glyph-name="six" unicode="6" horiz-adv-x="610" vert-adv-y="1105" 
d="M526 657l-38 -84q-73 42 -155 42q-79 0 -123.5 -57.5t-49.5 -192.5q19 33 67 57.5t105 24.5q98 0 162.5 -63t64.5 -167v-22q0 -104 -68 -168t-178 -64q-122 0 -186.5 76t-64.5 221v37q0 115 20 196.5t58.5 127t86.5 65.5t112 20q107 0 187 -49zM163 219v-14
q0 -70 39.5 -111t106.5 -41q70 0 110.5 38.5t40.5 108.5v13q0 70 -40 108t-108 38q-65 0 -107 -40t-42 -100z" />
    <glyph glyph-name="seven" unicode="7" horiz-adv-x="610" vert-adv-y="1105" 
d="M556 619l-285 -645h-108l286 635h-392v86h499v-76z" />
    <glyph glyph-name="eight" unicode="8" horiz-adv-x="610" vert-adv-y="1105" 
d="M185 510v-11q0 -52 34 -83t86 -31t86 31t34 83v11q0 51 -32.5 80t-87.5 29q-54 0 -87 -29.5t-33 -79.5zM166 177v-11q0 -51 38 -82.5t102 -31.5t101 31t37 83v11q0 57 -38.5 89t-99.5 32t-100.5 -31.5t-39.5 -89.5zM64 161v17q0 58 35.5 104t88.5 62q-50 24 -76.5 67.5
t-26.5 91.5v14q0 81 59 135t161 54q101 0 160.5 -54.5t59.5 -134.5v-14q0 -48 -26 -90.5t-77 -68.5q54 -16 89 -62t35 -104v-17q0 -88 -65 -143t-176 -55t-176 55t-65 143z" />
    <glyph glyph-name="nine" unicode="9" horiz-adv-x="610" vert-adv-y="1105" 
d="M84 14l38 84q76 -44 155 -44q81 0 125.5 56t47.5 190q-19 -33 -67 -57.5t-105 -24.5q-98 0 -162.5 63t-64.5 167v22q0 104 68 170t178 66q121 0 186 -74.5t65 -218.5v-37q0 -155 -33 -247.5t-92 -129t-152 -36.5q-104 0 -187 51zM447 448v14q0 70 -39.5 112t-106.5 42
q-70 0 -110.5 -39.5t-40.5 -109.5v-13q0 -70 41 -109t107 -39q65 0 107 41t42 101z" />
    <glyph glyph-name="colon" unicode=":" horiz-adv-x="354" vert-adv-y="1105" 
d="M120 13v115h114v-115h-114zM120 459v115h114v-115h-114z" />
    <glyph glyph-name="semicolon" unicode=";" horiz-adv-x="354" vert-adv-y="1105" 
d="M120 459v115h114v-115h-114zM88 -95l42 228h115l-77 -228h-80z" />
    <glyph glyph-name="less" unicode="&#x3c;" horiz-adv-x="610" vert-adv-y="1105" 
d="M179 324v-6l362 -187v-100l-472 250v79l472 250v-99z" />
    <glyph glyph-name="equal" unicode="=" horiz-adv-x="610" vert-adv-y="1105" 
d="M74 383v85h462v-85h-462zM74 172v85h462v-85h-462z" />
    <glyph glyph-name="greater" unicode="&#x3e;" horiz-adv-x="610" vert-adv-y="1105" 
d="M431 318v6l-362 187v99l472 -250v-79l-472 -250v100z" />
    <glyph glyph-name="question" unicode="?" horiz-adv-x="542" vert-adv-y="1105" 
d="M300 141h-102v46q0 49 18 82t74 89l24 24t22 21.5t16 17t14 17.5l9 15t7.5 17.5t3 17.5t1.5 22v13q0 41 -30 68t-89 27q-93 0 -162 -72l-60 69q86 91 220 91q103 0 162 -49.5t59 -132.5v-14q0 -18 -3.5 -35t-6.5 -29.5t-13.5 -28.5t-15 -23.5t-19.5 -24t-19.5 -21
t-23.5 -22.5t-23 -21q-35 -34 -49 -59t-14 -62v-43zM193 -67v115h114v-115h-114z" />
    <glyph glyph-name="at" unicode="@" horiz-adv-x="993" vert-adv-y="1105" 
d="M758 40q-43 0 -79 21.5t-50 64.5h-1q-17 -43 -61.5 -63.5t-88.5 -20.5q-94 0 -145 53.5t-51 145.5v78q0 92 49 145.5t132 53.5q102 0 136 -58v52h94v-315q0 -81 66 -81q52 0 77.5 42t25.5 139v11q0 169 -97.5 263.5t-278.5 94.5q-159 0 -256 -99t-97 -271v-17
q0 -184 98.5 -284t274.5 -100q161 0 285 65l28 -70q-131 -71 -310 -71q-214 0 -336.5 123.5t-122.5 335.5v19q0 195 118.5 319.5t317.5 124.5q217 0 337 -117.5t120 -312.5v-13q0 -47 -9 -89.5t-28.5 -82t-57.5 -63t-90 -23.5zM381 303v-46q0 -59 26 -91.5t78 -32.5
q109 0 109 104v88q0 45 -26 74t-83 29q-52 0 -78 -28.5t-26 -96.5z" />
    <glyph glyph-name="A" unicode="A" horiz-adv-x="673" vert-adv-y="1105" 
d="M384 695l269 -721h-104l-76 212h-276l-76 -212h-101l268 721h96zM288 440l-61 -169h216l-60 169q-23 64 -48 145q-22 -73 -47 -145z" />
    <glyph glyph-name="B" unicode="B" horiz-adv-x="635" vert-adv-y="1105" 
d="M82 -26v721h256q229 0 229 -176v-21q0 -52 -27.5 -90.5t-88.5 -53.5q69 -10 109 -51.5t40 -113.5v-25q0 -90 -58 -140t-173 -50h-287zM181 310v-250h151q89 0 127.5 22.5t38.5 83.5v22q0 67 -41 94.5t-147 27.5h-129zM302 610h-121v-219h128q82 0 119.5 22t37.5 86v18
q0 60 -35.5 76.5t-128.5 16.5z" />
    <glyph glyph-name="C" unicode="C" horiz-adv-x="644" vert-adv-y="1105" 
d="M550 131l54 -76q-96 -92 -255 -92q-133 0 -211 81t-78 236v109q0 154 78.5 235.5t210.5 81.5q141 0 238 -77l-51 -81q-81 66 -187 66q-86 0 -137.5 -59.5t-51.5 -178.5v-83q0 -119 51.5 -178.5t137.5 -59.5q124 0 201 76z" />
    <glyph glyph-name="D" unicode="D" horiz-adv-x="688" vert-adv-y="1105" 
d="M82 695h239q148 0 225.5 -79.5t77.5 -229.5v-103q0 -151 -76 -230t-227 -79h-239v721zM181 608v-546h131q211 0 211 226v93q0 227 -211 227h-131z" />
    <glyph glyph-name="E" unicode="E" horiz-adv-x="598" vert-adv-y="1105" 
d="M82 695h449v-85h-350v-224h329v-85h-329v-242h357v-85h-456v721z" />
    <glyph glyph-name="F" unicode="F" horiz-adv-x="568" vert-adv-y="1105" 
d="M82 695h446v-85h-347v-241h326v-85h-326v-310h-99v721z" />
    <glyph glyph-name="G" unicode="G" horiz-adv-x="671" vert-adv-y="1105" 
d="M613 370v-342q-93 -65 -245 -65q-146 0 -227 80.5t-81 236.5v109q0 155 80 236t220 81q143 0 239 -76l-51 -80q-83 66 -188 66q-201 0 -201 -240v-83q0 -121 56 -180.5t156 -59.5q85 0 143 29v203h-160v85h259z" />
    <glyph glyph-name="H" unicode="H" horiz-adv-x="697" vert-adv-y="1105" 
d="M516 695h99v-721h-99v332h-335v-332h-99v721h99v-301h335v301z" />
    <glyph glyph-name="I" unicode="I" horiz-adv-x="263" vert-adv-y="1105" 
d="M82 695h99v-721h-99v721z" />
    <glyph glyph-name="J" unicode="J" horiz-adv-x="472" vert-adv-y="1105" 
d="M392 695v-523q0 -209 -209 -209q-99 0 -167 59l47 78q57 -45 123 -45q56 0 81.5 32t25.5 106v502h99z" />
    <glyph glyph-name="K" unicode="K" horiz-adv-x="655" vert-adv-y="1105" 
d="M618 695l-290 -312l307 -409h-126l-249 337l-79 -85v-252h-99v721h99v-345l316 345h121z" />
    <glyph glyph-name="L" unicode="L" horiz-adv-x="546" vert-adv-y="1105" 
d="M82 695h99v-636h345v-85h-444v721z" />
    <glyph glyph-name="M" unicode="M" horiz-adv-x="850" vert-adv-y="1105" 
d="M383 94l-170 400q-24 59 -37 100v-620h-94v721h146l200 -472l195 472h145v-721h-95v620q-15 -57 -34 -100l-172 -400h-84z" />
    <glyph glyph-name="N" unicode="N" horiz-adv-x="701" vert-adv-y="1105" 
d="M82 695h114l280 -486q29 -50 51 -105v591h92v-721h-114l-280 484q-32 57 -51 106v-590h-92v721z" />
    <glyph glyph-name="O" unicode="O" horiz-adv-x="706" vert-adv-y="1105" 
d="M353 -37q-133 0 -213 81.5t-80 235.5v109q0 153 80 235t213 82t213 -82t80 -235v-109q0 -154 -80 -235.5t-213 -81.5zM353 616q-89 0 -141 -58.5t-52 -179.5v-87q0 -121 52 -179.5t141 -58.5t141 58t52 180v87q0 122 -52 180t-141 58z" />
    <glyph glyph-name="P" unicode="P" horiz-adv-x="617" vert-adv-y="1105" 
d="M82 -26v721h258q118 0 178.5 -56.5t60.5 -149.5v-21q0 -92 -63 -152.5t-176 -60.5h-159v-281h-99zM334 609h-153v-268h142q156 0 156 129v18q0 121 -145 121z" />
    <glyph glyph-name="Q" unicode="Q" horiz-adv-x="698" vert-adv-y="1105" 
d="M349 -37q-133 0 -211 81t-78 236v109q0 154 78.5 235.5t210.5 81.5t210.5 -81.5t78.5 -235.5v-109q0 -139 -65 -221l85 -84l-59 -61l-90 89q-68 -40 -160 -40zM349 616q-87 0 -138 -58.5t-51 -179.5v-87q0 -121 51 -179.5t138 -58.5q53 0 90 20l-90 90l59 61l93 -93
q37 59 37 160v87q0 122 -50.5 180t-138.5 58z" />
    <glyph glyph-name="R" unicode="R" horiz-adv-x="645" vert-adv-y="1105" 
d="M181 275v-301h-99v721h261q108 0 169 -54.5t61 -142.5v-26q0 -61 -31.5 -108t-89.5 -70l143 -320h-107l-130 301h-177zM181 610v-251h138q155 0 155 116v20q0 54 -36 84.5t-109 30.5h-148z" />
    <glyph glyph-name="S" unicode="S" horiz-adv-x="616" vert-adv-y="1105" 
d="M312 53q73 0 113.5 30t40.5 75v16q0 47 -35.5 74t-122.5 46q-57 12 -96 26t-74 36.5t-52.5 57t-17.5 81.5v18q0 79 64.5 136t182.5 57q126 0 220 -63l-47 -77q-75 51 -172 51q-66 0 -107.5 -29.5t-41.5 -73.5v-16q0 -46 39 -70t127 -44q129 -29 181 -77t52 -126v-18
q0 -96 -71 -148t-186 -52q-145 0 -251 85l50 81q42 -32 100.5 -54t103.5 -22z" />
    <glyph glyph-name="T" unicode="T" horiz-adv-x="571" vert-adv-y="1105" 
d="M335 -26h-99v636h-220v85h539v-85h-220v-636z" />
    <glyph glyph-name="U" unicode="U" horiz-adv-x="684" vert-adv-y="1105" 
d="M511 695h99v-432q0 -159 -67.5 -229.5t-200.5 -70.5t-200.5 70.5t-67.5 229.5v432h99v-420q0 -120 40.5 -171.5t128.5 -51.5t128.5 51.5t40.5 171.5v420z" />
    <glyph glyph-name="V" unicode="V" horiz-adv-x="673" vert-adv-y="1105" 
d="M20 695h108l209 -596l214 596h102l-272 -721h-93z" />
    <glyph glyph-name="W" unicode="W" horiz-adv-x="975" vert-adv-y="1105" 
d="M848 695h99l-199 -721h-99l-160 589l-163 -589h-101l-197 721h104l148 -589l161 589h96l161 -589z" />
    <glyph glyph-name="X" unicode="X" horiz-adv-x="655" vert-adv-y="1105" 
d="M613 695l-221 -349l233 -372h-117l-183 309l-183 -309h-112l233 376l-218 345h118l170 -284l169 284h111z" />
    <glyph glyph-name="Y" unicode="Y" horiz-adv-x="625" vert-adv-y="1105" 
d="M609 695l-246 -431v-290h-99v290l-248 431h110l189 -337l184 337h110z" />
    <glyph glyph-name="Z" unicode="Z" horiz-adv-x="613" vert-adv-y="1105" 
d="M560 695v-73l-414 -562h433v-86h-553v81l409 554h-385v86h510z" />
    <glyph glyph-name="bracketleft" unicode="[" horiz-adv-x="389" vert-adv-y="1105" 
d="M349 -84v-86h-264v936h264v-86h-166v-764h166z" />
    <glyph glyph-name="backslash" unicode="\" horiz-adv-x="959" vert-adv-y="1105" 
d="M36 340v61h102l-72 294h99l64 -294h137l74 294h89l70 -294h133l63 294h95l-72 -294h105v-61h-120l-88 -366h-90l-86 366h-112l-90 -366h-94l-90 366h-117zM242 340l51 -234l58 234h-109zM613 340l56 -234l50 234h-106zM485 575l-43 -174h83z" />
    <glyph glyph-name="bracketright" unicode="]" horiz-adv-x="389" vert-adv-y="1105" 
d="M40 -170v86h166v764h-166v86h264v-936h-264z" />
    <glyph glyph-name="asciicircum" unicode="^" horiz-adv-x="524" vert-adv-y="1105" 
d="M478 401h-94l-122 243l-122 -243h-94l171 323h91z" />
    <glyph glyph-name="underscore" unicode="_" horiz-adv-x="500" vert-adv-y="1105" 
d="M500 -75v-65h-500v65h500z" />
    <glyph glyph-name="grave" unicode="`" horiz-adv-x="610" vert-adv-y="1105" 
d="M417 565h-89l-136 148h116z" />
    <glyph glyph-name="a" unicode="a" horiz-adv-x="552" vert-adv-y="1105" 
d="M230 -34q-83 0 -131.5 41t-48.5 113v27q0 73 49 115.5t150 42.5h139v32q0 55 -27 81.5t-86 26.5q-44 0 -78.5 -13.5t-78.5 -41.5l-48 72q99 69 206 69q93 0 150.5 -46.5t57.5 -127.5v-383h-93v66h-1q-14 -28 -51 -49q-45 -25 -109 -25zM388 169v54h-137q-106 0 -106 -83
v-14q0 -38 26.5 -57t68.5 -19q68 0 111 34q37 28 37 85z" />
    <glyph glyph-name="b" unicode="b" horiz-adv-x="596" vert-adv-y="1105" 
d="M175 730v-272q47 73 156 73q103 0 158.5 -61t55.5 -172v-97q0 -109 -59.5 -172t-157.5 -63q-110 0 -154 72h-2v-64h-94v756h97zM174 307v-138q0 -45 41.5 -81.5t102.5 -36.5q62 0 96.5 43.5t34.5 120.5v67q0 78 -35 121t-96 43t-102.5 -38.5t-41.5 -100.5z" />
    <glyph glyph-name="c" unicode="c" horiz-adv-x="509" vert-adv-y="1105" 
d="M286 531q110 0 189 -60l-46 -73q-65 47 -143 47q-59 0 -98.5 -40t-39.5 -119v-69q0 -83 40 -123.5t100 -40.5q87 0 154 50l47 -74q-75 -63 -202 -63q-113 0 -175 66t-62 184v69q0 116 63.5 181t172.5 65z" />
    <glyph glyph-name="d" unicode="d" horiz-adv-x="596" vert-adv-y="1105" 
d="M425 42h-2q-41 -76 -159 -76q-103 0 -158 60.5t-55 172.5v97q0 109 59.5 172t157.5 63q107 0 153 -67v266h97v-756h-93v68zM422 189v141q0 45 -41.5 80.5t-102.5 35.5q-62 0 -96.5 -43.5t-34.5 -120.5v-67q0 -78 35 -121t96 -43t102.5 38t41.5 100z" />
    <glyph glyph-name="e" unicode="e" horiz-adv-x="562" vert-adv-y="1105" 
d="M285 448q-61 0 -100 -39.5t-39 -102.5v-14h274v18q0 63 -36.5 100.5t-98.5 37.5zM460 99l41 -73q-87 -60 -211 -60q-108 0 -174 62.5t-66 189.5v62q0 121 65 186t170 65q106 0 167.5 -64.5t61.5 -180.5v-73h-368v-4q0 -76 40.5 -117.5t107.5 -41.5q89 0 166 49z" />
    <glyph glyph-name="f" unicode="f" horiz-adv-x="386" vert-adv-y="1105" 
d="M116 -26v464h-90v83h90v54q0 161 159 161q59 0 98 -14l-15 -79q-36 10 -74 10q-33 0 -52 -17t-19 -65v-50h144v-83h-144v-464h-97z" />
    <glyph glyph-name="g" unicode="g" horiz-adv-x="596" vert-adv-y="1105" 
d="M518 521v-540q0 -230 -244 -230q-107 0 -182 58l44 76q61 -46 141 -46q144 0 144 142v67q-43 -72 -157 -72q-103 0 -158 60.5t-55 172.5v87q0 109 59.5 172t157.5 63q107 0 153 -67v57h97zM422 199v131q0 45 -41.5 80.5t-102.5 35.5q-62 0 -96.5 -43.5t-34.5 -120.5v-57
q0 -78 35 -121t96 -43t102.5 38t41.5 100z" />
    <glyph glyph-name="h" unicode="h" horiz-adv-x="599" vert-adv-y="1105" 
d="M529 336v-362h-97v340q0 68 -29 99.5t-90 31.5q-54 0 -96 -35.5t-42 -96.5v-339h-97v756h97v-275q51 76 162 76q84 0 138 -50t54 -145z" />
    <glyph glyph-name="i" unicode="i" horiz-adv-x="259" vert-adv-y="1105" 
d="M81 521h97v-547h-97v547zM78 717h103v-106h-103v106z" />
    <glyph glyph-name="j" unicode="j" horiz-adv-x="276" vert-adv-y="1105" 
d="M95 717h103v-106h-103v106zM195 521v-609q0 -161 -159 -161q-60 0 -98 14l15 79q36 -10 74 -10q33 0 52 17t19 65v605h97z" />
    <glyph glyph-name="k" unicode="k" horiz-adv-x="561" vert-adv-y="1105" 
d="M534 521l-216 -219l229 -328h-122l-174 260l-76 -77v-183h-97v756h97v-455l234 246h125z" />
    <glyph glyph-name="l" unicode="l" horiz-adv-x="253" vert-adv-y="1105" 
d="M78 730h97v-756h-97v756z" />
    <glyph glyph-name="m" unicode="m" horiz-adv-x="899" vert-adv-y="1105" 
d="M829 333v-359h-97v328q0 141 -103 141q-51 0 -89 -33t-38 -95v-341h-97v328q0 141 -103 141q-51 0 -89 -31.5t-38 -91.5v-346h-97v547h96v-74h1q37 84 146 84q113 0 157 -91q60 91 170 91q85 0 133 -52t48 -146z" />
    <glyph glyph-name="n" unicode="n" horiz-adv-x="599" vert-adv-y="1105" 
d="M529 336v-362h-97v340q0 68 -29 99.5t-90 31.5q-54 0 -96 -35.5t-42 -96.5v-339h-97v547h94v-69h1q51 79 164 79q84 0 138 -50t54 -145z" />
    <glyph glyph-name="o" unicode="o" horiz-adv-x="588" vert-adv-y="1105" 
d="M294 531q113 0 178.5 -65.5t65.5 -183.5v-67q0 -118 -65.5 -183.5t-178.5 -65.5t-178.5 65.5t-65.5 183.5v67q0 118 65 183.5t179 65.5zM294 51q67 0 106.5 43.5t39.5 128.5v51q0 85 -39.5 128.5t-106.5 43.5t-106.5 -43.5t-39.5 -128.5v-51q0 -85 39.5 -128.5
t106.5 -43.5z" />
    <glyph glyph-name="p" unicode="p" horiz-adv-x="596" vert-adv-y="1105" 
d="M172 521v-68q45 78 160 78q102 0 157.5 -62t55.5 -171v-97q0 -111 -59.5 -173t-159.5 -62q-104 0 -151 68v-274h-97v761h94zM174 307v-138q0 -45 41.5 -81.5t102.5 -36.5q62 0 96.5 43.5t34.5 120.5v67q0 78 -35 121t-96 43t-102.5 -38.5t-41.5 -100.5z" />
    <glyph glyph-name="q" unicode="q" horiz-adv-x="596" vert-adv-y="1105" 
d="M518 -240h-97v278q-43 -72 -157 -72q-103 0 -158 60.5t-55 172.5v97q0 109 59.5 172t157.5 63q107 0 153 -67v57h97v-761zM422 189v141q0 45 -41.5 80.5t-102.5 35.5q-62 0 -96.5 -43.5t-34.5 -120.5v-67q0 -78 35 -121t96 -43t102.5 38t41.5 100z" />
    <glyph glyph-name="r" unicode="r" horiz-adv-x="417" vert-adv-y="1105" 
d="M405 520l-29 -94q-31 13 -67 13q-55 0 -94.5 -41.5t-39.5 -104.5v-319h-97v547h94v-87h1q51 97 161 97q36 0 71 -11z" />
    <glyph glyph-name="s" unicode="s" horiz-adv-x="498" vert-adv-y="1105" 
d="M248 50q54 0 84 19t30 52v8q0 35 -24 50.5t-101 31.5q-97 20 -142.5 55.5t-45.5 104.5v12q0 62 52 105t152 43q117 0 194 -54l-43 -73q-59 44 -144 44q-114 0 -114 -66v-9q0 -31 26 -47t92 -28q104 -20 150 -56.5t46 -109.5v-13q0 -66 -57.5 -109.5t-150.5 -43.5
q-134 0 -220 66l45 76q86 -58 171 -58z" />
    <glyph glyph-name="t" unicode="t" horiz-adv-x="389" vert-adv-y="1105" 
d="M112 127v311h-90v83h90v138h97v-138h144v-83h-144v-311q0 -46 17.5 -62t52.5 -16q36 0 72 13l15 -78q-44 -18 -102 -18q-78 0 -115 39t-37 122z" />
    <glyph glyph-name="u" unicode="u" horiz-adv-x="595" vert-adv-y="1105" 
d="M70 159v362h97v-340q0 -69 28 -100t89 -31q54 0 95 35.5t41 96.5v339h97v-547h-94v69h-1q-51 -79 -162 -79q-84 0 -137 50t-53 145z" />
    <glyph glyph-name="v" unicode="v" horiz-adv-x="522" vert-adv-y="1105" 
d="M262 65h2l143 456h102l-185 -547h-124l-187 547h105z" />
    <glyph glyph-name="w" unicode="w" horiz-adv-x="765" vert-adv-y="1105" 
d="M384 400h-2l-110 -426h-114l-142 547h102l100 -446h2l116 446h98l115 -446h2l102 446h96l-140 -547h-114z" />
    <glyph glyph-name="x" unicode="x" horiz-adv-x="525" vert-adv-y="1105" 
d="M498 521l-173 -263l180 -284h-117l-127 220l-130 -220h-111l183 284l-174 263h117l121 -202l123 202h108z" />
    <glyph glyph-name="y" unicode="y" horiz-adv-x="526" vert-adv-y="1105" 
d="M263 84h4l144 437h102l-284 -773l-88 31l71 187l-199 555h105z" />
    <glyph glyph-name="z" unicode="z" horiz-adv-x="493" vert-adv-y="1105" 
d="M448 521v-75l-300 -388h315v-84h-438v70l304 392h-284v85h403z" />
    <glyph glyph-name="braceleft" unicode="{" horiz-adv-x="449" vert-adv-y="1105" 
d="M40 268v85q56 1 81 19.5t25 60.5v188q0 145 156 145h107v-86h-91q-43 0 -58.5 -17.5t-15.5 -68.5v-161q0 -104 -83 -123q83 -18 83 -123v-192q0 -49 15.5 -64t58.5 -15h91v-86h-107q-156 0 -156 138v218q0 43 -25.5 62t-80.5 20z" />
    <glyph glyph-name="bar" unicode="|" horiz-adv-x="294" vert-adv-y="1105" 
d="M194 765v-935h-94v935h94z" />
    <glyph glyph-name="braceright" unicode="}" horiz-adv-x="449" vert-adv-y="1105" 
d="M409 353v-85q-55 -1 -80.5 -20t-25.5 -62v-218q0 -138 -156 -138h-107v86h91q43 0 58.5 15t15.5 64v192q0 105 83 123q-83 19 -83 123v161q0 51 -15.5 68.5t-58.5 17.5h-91v86h107q156 0 156 -145v-188q0 -42 25 -60.5t81 -19.5z" />
    <glyph glyph-name="asciitilde" unicode="~" horiz-adv-x="600" vert-adv-y="1105" 
d="M394 232q-33 0 -62 14.5t-46 32.5t-38 32.5t-40 14.5q-27 0 -42.5 -30t-20.5 -67h-87q6 78 46 129.5t103 51.5q33 0 61.5 -14.5t45.5 -32.5t39 -32.5t42 -14.5q53 0 64 97h85q-6 -84 -45 -132.5t-105 -48.5z" />
    <glyph glyph-name="exclamdown" unicode="&#xa1;" horiz-adv-x="300" vert-adv-y="1105" 
d="M207 734v-115h-114v115h114zM108 516h84l14 -583h-112z" />
    <glyph glyph-name="currency" unicode="&#xa4;" vert-adv-y="1105" 
d="M644 524l111 104l55 -57l-118 -100q49 -69 49 -162q0 -99 -56 -170l120 -107l-53 -55l-115 111q-79 -69 -188 -69t-182 64l-111 -106l-53 55l115 100q-61 78 -61 175q0 91 55 167l-112 97l56 57l105 -100q78 68 189 68q114 0 194 -72zM656 308q0 88 -59 149.5t-147 61.5
h-1q-88 0 -147 -61.5t-59 -150.5q0 -92 61.5 -152t144.5 -60q85 0 146 59.5t61 153.5z" />
    <glyph glyph-name="section" unicode="&#xa7;" horiz-adv-x="518" vert-adv-y="1105" 
d="M303 348l-101 31q-84 -15 -84 -87q0 -37 19 -58t66 -35l110 -34q84 18 84 88q0 38 -20 58t-74 37zM239 -161q-102 0 -171 40v74q72 -29 114 -33q22 -3 47 -3q125 0 125 85q0 37 -17.5 54.5t-71.5 34.5l-90 28q-69 22 -107 60t-38 105q0 96 98 131q-50 42 -50 121
q0 75 52.5 120t149.5 45q78 0 146 -35v-74q-69 31 -144 31q-55 0 -85.5 -20t-30.5 -57q0 -38 14 -56.5t57 -31.5l99 -31q81 -25 116.5 -60t35.5 -107q0 -97 -97 -133q55 -39 55 -117q0 -82 -54.5 -126.5t-152.5 -44.5z" />
    <glyph glyph-name="dieresis" unicode="&#xa8;" horiz-adv-x="509" vert-adv-y="1105" 
d="M123 588v92h88v-92h-88zM298 588v92h88v-92h-88z" />
    <glyph glyph-name="copyright" unicode="&#xa9;" horiz-adv-x="824" vert-adv-y="1105" 
d="M419 19q136 0 222.5 89t86.5 227t-87 226.5t-222 88.5q-134 0 -220.5 -88.5t-86.5 -226.5t86.5 -227t220.5 -89zM419 -33q-159 0 -262 106.5t-103 261.5t103 261t262 106q161 0 264 -106t103 -261t-103.5 -261.5t-263.5 -106.5zM428 545q83 0 145 -47l-41 -64
q-48 35 -104 35q-38 0 -66 -25t-28 -82v-52q0 -59 29 -85.5t66 -26.5q66 0 113 36l41 -65q-53 -47 -155 -47q-87 0 -134 49.5t-47 137.5v52q0 87 48.5 135.5t132.5 48.5z" />
    <glyph glyph-name="ordfeminine" unicode="&#xaa;" horiz-adv-x="458" vert-adv-y="1105" 
d="M196 278q-68 0 -107 32t-39 90v23q0 60 40 94.5t122 34.5h105v21q0 42 -18.5 61t-64.5 19q-63 0 -125 -44l-44 66q83 56 169 56q75 0 123 -37.5t48 -101.5v-308h-85l-1 52q-27 -58 -123 -58zM317 449v29h-104q-76 0 -76 -62v-11q0 -51 67 -51q113 0 113 95z" />
    <glyph glyph-name="guillemotleft" unicode="&#xab;" vert-adv-y="1105" 
d="M378 303l438 -286l-31 -51l-482 314v45l474 324l37 -49zM169 302l439 -288l-34 -52l-480 318v45l473 328l36 -51z" />
    <glyph glyph-name="degree" unicode="&#xb0;" horiz-adv-x="312" vert-adv-y="1105" 
d="M280 609q0 -52 -34.5 -88t-89.5 -36t-89.5 36t-34.5 88t34.5 88t89.5 36t89.5 -36t34.5 -88zM219 609q0 28 -17.5 47t-45.5 19t-45.5 -19t-17.5 -47t17.5 -47t45.5 -19t45.5 19t17.5 47z" />
    <glyph glyph-name="plusminus" unicode="&#xb1;" horiz-adv-x="610" vert-adv-y="1105" 
d="M48 112h513v-84h-513v84zM255 650h90v-201h207v-84h-207v-215h-90v215h-207v84h207v201z" />
    <glyph glyph-name="uni00B2" unicode="&#xb2;" horiz-adv-x="400" vert-adv-y="1105" 
d="M39 345l160 172q37 40 48 60.5t11 41.5v5q0 21 -15.5 35t-49.5 14q-55 0 -90 -59l-66 44q53 93 157 93q73 0 112.5 -35.5t39.5 -88.5v-6q0 -61 -81 -146l-111 -117h209v-74h-324v61z" />
    <glyph glyph-name="uni00B3" unicode="&#xb3;" horiz-adv-x="400" vert-adv-y="1105" 
d="M106 635l-59 45q46 71 143 71q70 0 109.5 -32t39.5 -79v-8q0 -79 -64 -107q43 -9 65 -35.5t22 -62.5v-12q0 -63 -44.5 -101t-125.5 -38q-88 0 -157 54l41 66q59 -44 114 -44q42 0 62.5 18t20.5 45v10q0 62 -88 62h-56v75h55q38 0 53 13t15 44v6q0 53 -65 53
q-47 0 -81 -43z" />
    <glyph glyph-name="acute" unicode="&#xb4;" horiz-adv-x="610" vert-adv-y="1105" 
d="M281 565h-89l109 148h116z" />
    <glyph glyph-name="paragraph" unicode="&#xb6;" horiz-adv-x="584" vert-adv-y="1105" 
d="M284 -122v471h-50q-84 0 -143 48.5t-59 133.5q0 82 56.5 133.5t179.5 51.5h236v-838h-67v779h-86v-779h-67z" />
    <glyph glyph-name="cedilla" unicode="&#xb8;" horiz-adv-x="610" vert-adv-y="1105" 
d="M215 -200v54q105 8 105 42q0 18 -19.5 25t-63.5 7v96h58v-49q99 -6 99 -73q0 -46 -40.5 -70.5t-138.5 -31.5z" />
    <glyph glyph-name="uni00B9" unicode="&#xb9;" horiz-adv-x="400" vert-adv-y="1105" 
d="M281 284h-88v359l-104 -61l-42 71l159 89h75v-458z" />
    <glyph glyph-name="ordmasculine" unicode="&#xba;" horiz-adv-x="483" vert-adv-y="1105" 
d="M242 730q92 0 145.5 -52.5t53.5 -146.5v-55q0 -94 -53.5 -146.5t-145.5 -52.5q-93 0 -146.5 52.5t-53.5 146.5v55q0 94 53.5 146.5t146.5 52.5zM242 356q110 0 110 127v41q0 127 -110 127q-111 0 -111 -127v-41q0 -127 111 -127z" />
    <glyph glyph-name="guillemotright" unicode="&#xbb;" vert-adv-y="1105" 
d="M816 325v-45l-480 -318l-33 52l438 288l-434 300l37 51zM608 325v-45l-482 -314l-32 51l438 285l-435 298l37 49z" />
    <glyph glyph-name="onequarter" unicode="&#xbc;" horiz-adv-x="884" vert-adv-y="1105" 
d="M168 -66l523 775h85l-523 -775h-85zM281 237h-88v359l-104 -61l-42 71l159 89h75v-458zM727 234h84v-154h60v-72h-60v-91h-84v91h-225v60l198 307h92l-191 -295h126v154z" />
    <glyph glyph-name="onehalf" unicode="&#xbd;" horiz-adv-x="935" vert-adv-y="1105" 
d="M168 -66l523 775h85l-523 -775h-85zM281 237h-88v359l-104 -61l-42 71l159 89h75v-458zM574 -22l160 172q37 40 48 60.5t11 41.5v5q0 21 -15.5 35t-49.5 14q-55 0 -90 -59l-66 44q53 93 157 93q73 0 112.5 -35.5t39.5 -88.5v-6q0 -61 -81 -146l-111 -117h209v-74h-324v61
z" />
    <glyph glyph-name="threequarters" unicode="&#xbe;" horiz-adv-x="899" vert-adv-y="1105" 
d="M183 -66l523 775h85l-523 -775h-85zM742 234h84v-154h60v-72h-60v-91h-84v91h-225v60l198 307h92l-191 -295h126v154zM106 588l-59 45q46 71 143 71q70 0 109.5 -32t39.5 -79v-8q0 -79 -64 -107q43 -9 65 -35.5t22 -62.5v-12q0 -63 -44.5 -101t-125.5 -38q-88 0 -157 54
l41 66q59 -44 114 -44q42 0 62.5 18t20.5 45v10q0 62 -88 62h-56v75h55q38 0 53 13t15 44v6q0 53 -65 53q-47 0 -81 -43z" />
    <glyph glyph-name="questiondown" unicode="&#xbf;" horiz-adv-x="542" vert-adv-y="1105" 
d="M233 498h102v-46q0 -49 -18 -82t-74 -89l-24 -24t-22 -21.5t-16 -17t-14 -17.5l-9 -15t-7.5 -17.5t-3 -17.5t-1.5 -22v-13q0 -41 30 -68t89 -27q93 0 162 72l60 -69q-86 -91 -220 -91q-103 0 -162 49.5t-59 132.5v14q0 18 3.5 35t6.5 29.5t13.5 28.5t15 23.5t19.5 24
t19.5 21t23.5 22.5t23 21q35 34 49 59t14 62v43zM340 706v-115h-114v115h114z" />
    <glyph glyph-name="AE" unicode="&#xc6;" horiz-adv-x="971" vert-adv-y="1105" 
d="M455 695h461v-85h-330v-224h309v-85h-309v-242h337v-85h-436v212h-238l-130 -212h-112zM487 271v323q-17 -49 -60 -118l-126 -205h186z" />
    <glyph glyph-name="Eth" unicode="&#xd0;" horiz-adv-x="700" vert-adv-y="1105" 
d="M11 312v70h375v-70h-375zM96 695h239q148 0 225.5 -79.5t77.5 -229.5v-103q0 -151 -76 -230t-227 -79h-239v721zM195 608v-546h131q211 0 211 226v93q0 227 -211 227h-131z" />
    <glyph glyph-name="multiply" unicode="&#xd7;" horiz-adv-x="610" vert-adv-y="1105" 
d="M64 123l184 195l-184 195l54 53l184 -195l184 195l54 -53l-184 -195l184 -195l-54 -53l-184 195l-184 -195z" />
    <glyph glyph-name="Oslash" unicode="&#xd8;" horiz-adv-x="756" vert-adv-y="1105" 
d="M113 -37l-53 44l583 699l53 -44zM372 -37q-133 0 -213 81.5t-80 235.5v109q0 153 80 235t213 82t213 -82t80 -235v-109q0 -154 -80 -235.5t-213 -81.5zM372 616q-89 0 -141 -58.5t-52 -179.5v-87q0 -121 52 -179.5t141 -58.5t141 58t52 180v87q0 122 -52 180t-141 58z
" />
    <glyph glyph-name="Thorn" unicode="&#xde;" horiz-adv-x="617" vert-adv-y="1105" 
d="M82 -26v721h99v-132h159q118 0 178.5 -57t60.5 -150v-21q0 -93 -63 -155t-176 -62h-159v-144h-99zM334 477h-153v-273h142q156 0 156 133v18q0 122 -145 122z" />
    <glyph glyph-name="germandbls" unicode="&#xdf;" horiz-adv-x="565" vert-adv-y="1105" 
d="M343 370v-6q0 -27 17.5 -43t58.5 -37q74 -37 100 -72t26 -84v-10q0 -65 -45 -108.5t-129 -43.5q-96 0 -168 60l47 74q58 -51 122 -51q37 0 57 18.5t20 52.5v6q0 27 -15 44.5t-56 37.5q-66 31 -98 66.5t-32 87.5v9q0 30 15 55t36 43.5t42.5 36t36.5 39t15 45.5v7
q0 56 -99 56q-61 0 -91.5 -32.5t-30.5 -106.5v-540h-97v559q0 103 60 153t158 50q100 0 148 -39t48 -96v-11q0 -41 -23 -75.5t-50 -54.5t-50 -44t-23 -46z" />
    <glyph glyph-name="ae" unicode="&#xe6;" horiz-adv-x="881" vert-adv-y="1105" 
d="M785 99l41 -73q-87 -60 -209 -60q-135 0 -194 94q-24 -36 -77 -67q-46 -27 -123 -27q-83 0 -130.5 41t-47.5 113v27q0 148 198 148h136v42q0 56 -26 82t-85 26q-75 0 -155 -55l-48 72q99 69 204 69q118 0 171 -72q60 72 172 72q106 0 166.5 -64.5t60.5 -180.5v-70h-364
v-7q0 -76 39.5 -117.5t106.5 -41.5q87 0 164 49zM612 448q-61 0 -99 -39.5t-38 -102.5v-11h270v15q0 63 -35.5 100.5t-97.5 37.5zM379 169v44h-134q-57 0 -81 -17t-24 -56v-14q0 -38 26 -57t67 -19q66 0 109 34q37 28 37 85z" />
    <glyph glyph-name="eth" unicode="&#xf0;" horiz-adv-x="588" vert-adv-y="1105" 
d="M157 689l34 59q71 -37 119 -70l116 49l23 -58l-81 -34q170 -144 170 -363v-57q0 -118 -65.5 -183.5t-178.5 -65.5t-178.5 65.5t-65.5 183.5v57q0 118 62.5 183.5t171.5 65.5q60 0 99 -24q-38 61 -91 106l-139 -58l-23 58l102 42q-24 16 -75 44zM294 51q67 0 106.5 43.5
t39.5 128.5v46q0 84 -39 125.5t-107 41.5q-67 0 -106.5 -43.5t-39.5 -128.5v-41q0 -85 39.5 -128.5t106.5 -43.5z" />
    <glyph glyph-name="divide" unicode="&#xf7;" horiz-adv-x="610" vert-adv-y="1105" 
d="M48 276v84h504v-84h-504zM250 468v97h99v-97h-99zM250 71v97h99v-97h-99z" />
    <glyph glyph-name="oslash" unicode="&#xf8;" horiz-adv-x="602" vert-adv-y="1105" 
d="M92 -38l-42 37l460 528l42 -37zM299 531q113 0 178.5 -65.5t65.5 -183.5v-67q0 -118 -65.5 -183.5t-178.5 -65.5t-178.5 65.5t-65.5 183.5v67q0 118 65 183.5t179 65.5zM299 51q67 0 106.5 43.5t39.5 128.5v51q0 85 -39.5 128.5t-106.5 43.5t-106.5 -43.5t-39.5 -128.5
v-51q0 -85 39.5 -128.5t106.5 -43.5z" />
    <glyph glyph-name="thorn" unicode="&#xfe;" horiz-adv-x="596" vert-adv-y="1105" 
d="M175 730v-272q47 73 156 73q103 0 158.5 -61t55.5 -172v-97q0 -109 -59.5 -172t-157.5 -63q-102 0 -153 68v-274h-97v970h97zM174 307v-138q0 -45 41.5 -81.5t102.5 -36.5q62 0 96.5 43.5t34.5 120.5v67q0 78 -35 121t-96 43t-102.5 -38.5t-41.5 -100.5z" />
    <glyph glyph-name="dcroat" unicode="&#x111;" horiz-adv-x="598" vert-adv-y="1105" 
d="M272 587v63h314v-63h-314zM425 42h-2q-41 -76 -159 -76q-103 0 -158 60.5t-55 172.5v97q0 109 59.5 172t157.5 63q107 0 153 -67v266h97v-756h-93v68zM422 189v141q0 45 -41.5 80.5t-102.5 35.5q-62 0 -96.5 -43.5t-34.5 -120.5v-67q0 -78 35 -121t96 -43t102.5 38
t41.5 100z" />
    <glyph glyph-name="Hbar" unicode="&#x126;" horiz-adv-x="697" vert-adv-y="1105" 
d="M516 695h99v-139h70v-70h-70v-512h-99v311h-335v-311h-99v512h-70v70h70v139h99v-139h335v139zM181 486v-114h335v114h-335z" />
    <glyph glyph-name="hbar" unicode="&#x127;" horiz-adv-x="601" vert-adv-y="1105" 
d="M12 587v63h314v-63h-314zM531 336v-362h-97v340q0 68 -29 99.5t-90 31.5q-54 0 -96 -35.5t-42 -96.5v-339h-97v756h97v-275q51 76 162 76q84 0 138 -50t54 -145z" />
    <glyph glyph-name="dotlessi" unicode="&#x131;" horiz-adv-x="263" vert-adv-y="1105" 
d="M83 521h97v-547h-97v547z" />
    <glyph glyph-name="IJ" unicode="&#x132;" horiz-adv-x="735" vert-adv-y="1105" 
d="M82 695h99v-721h-99v721zM655 695v-523q0 -209 -209 -209q-99 0 -167 59l47 78q57 -45 123 -45q56 0 81.5 32t25.5 106v502h99z" />
    <glyph glyph-name="ij" unicode="&#x133;" horiz-adv-x="474" vert-adv-y="1105" 
d="M83 521h97v-547h-97v547zM80 717h103v-106h-103v106zM328 717h103v-106h-103v106zM428 521v-609q0 -161 -159 -161q-59 0 -98 14l15 79q36 -10 74 -10q33 0 52 17t19 65v605h97z" />
    <glyph glyph-name="kgreenlandic" unicode="&#x138;" horiz-adv-x="561" vert-adv-y="1105" 
d="M537 521l-217 -222l227 -325h-122l-172 256l-78 -79v-177h-97v547h97v-252l237 252h125z" />
    <glyph glyph-name="Ldot" unicode="&#x13f;" horiz-adv-x="546" vert-adv-y="1105" 
d="M82 695h99v-636h345v-85h-444v721zM363 311v115h114v-115h-114z" />
    <glyph glyph-name="ldot" unicode="&#x140;" horiz-adv-x="408" vert-adv-y="1105" 
d="M80 730h97v-756h-97v756zM278 319v115h114v-115h-114z" />
    <glyph glyph-name="Lslash" unicode="&#x141;" horiz-adv-x="587" vert-adv-y="1105" 
d="M39 193l-29 55l388 221l29 -55zM123 695h99v-636h345v-85h-444v721z" />
    <glyph glyph-name="lslash" unicode="&#x142;" horiz-adv-x="329" vert-adv-y="1105" 
d="M35 266l-27 49l108 60v355h97v-300l82 46l26 -49l-108 -61v-392h-97v337z" />
    <glyph glyph-name="napostrophe" unicode="&#x149;" horiz-adv-x="582" vert-adv-y="1105" 
d="M31 520h-70l20 178h90zM529 336v-362h-97v340q0 68 -29 99.5t-90 31.5q-54 0 -96 -35.5t-42 -96.5v-339h-97v547h94v-69h1q51 79 164 79q84 0 138 -50t54 -145z" />
    <glyph glyph-name="Eng" unicode="&#x14a;" horiz-adv-x="701" vert-adv-y="1105" 
d="M619 695v-783q0 -161 -159 -161q-60 0 -98 14l15 79q36 -10 74 -10q34 0 55 17t21 65v58l-300 491q-38 69 -53 106v-597h-92v721h114l280 -465q29 -50 51 -105v570h92z" />
    <glyph glyph-name="eng" unicode="&#x14b;" horiz-adv-x="582" vert-adv-y="1105" 
d="M529 336v-424q0 -161 -159 -161q-60 0 -98 14l15 79q36 -10 74 -10q33 0 52 17t19 65v398q0 68 -29 99.5t-90 31.5q-54 0 -96 -35.5t-42 -96.5v-339h-97v547h94v-69h1q51 79 164 79q84 0 138 -50t54 -145z" />
    <glyph glyph-name="OE" unicode="&#x152;" horiz-adv-x="978" vert-adv-y="1105" 
d="M366 695h545v-85h-330v-224h309v-85h-309v-242h337v-85h-552q-151 0 -228.5 79.5t-77.5 229.5v103q0 149 79 229t227 80zM482 62v546h-107q-214 0 -214 -227v-93q0 -226 214 -226h107z" />
    <glyph glyph-name="oe" unicode="&#x153;" horiz-adv-x="924" vert-adv-y="1105" 
d="M285 531q130 0 190 -93q61 93 182 93q106 0 165.5 -64.5t59.5 -180.5v-70h-361v-7q0 -76 39 -117.5t106 -41.5q85 0 162 49l41 -73q-87 -60 -207 -60q-128 0 -188 91q-59 -91 -189 -91q-112 0 -173 65t-61 184v67q0 118 63 183.5t171 65.5zM285 51q136 0 136 172v51
q0 172 -136 172t-136 -172v-51q0 -172 136 -172zM657 448q-61 0 -98.5 -39.5t-37.5 -102.5v-11h267v15q0 64 -34.5 101t-96.5 37z" />
    <glyph glyph-name="Tbar" unicode="&#x166;" horiz-adv-x="571" vert-adv-y="1105" 
d="M89 304v70h384v-70h-384zM335 -26h-99v636h-220v85h539v-85h-220v-636z" />
    <glyph glyph-name="tbar" unicode="&#x167;" horiz-adv-x="388" vert-adv-y="1105" 
d="M38 279v62h309v-62h-309zM120 127v311h-90v83h90v138h97v-138h144v-83h-144v-311q0 -46 17.5 -62t52.5 -16q36 0 72 13l15 -78q-44 -18 -102 -18q-78 0 -115 39t-37 122z" />
    <glyph glyph-name="afii57929" unicode="&#x2bc;" horiz-adv-x="470" vert-adv-y="1105" 
 />
    <glyph glyph-name="caron" unicode="&#x2c7;" horiz-adv-x="610" vert-adv-y="1105" 
d="M265 560l-105 148h72l73 -80l72 80h72l-105 -148h-79z" />
    <glyph glyph-name="breve" unicode="&#x2d8;" horiz-adv-x="610" vert-adv-y="1105" 
d="M305 571q-59 0 -95.5 33.5t-40.5 91.5h69q11 -64 67 -64q57 0 67 64h69q-2 -57 -39 -91t-97 -34z" />
    <glyph glyph-name="dotaccent" unicode="&#x2d9;" horiz-adv-x="610" vert-adv-y="1105" 
d="M258 588v94h93v-94h-93z" />
    <glyph glyph-name="ring" unicode="&#x2da;" horiz-adv-x="610" vert-adv-y="1105" 
d="M304 593q23 0 36.5 13.5t13.5 36.5t-14 37t-36 14t-35.5 -14t-13.5 -37t13.5 -36.5t35.5 -13.5zM304 548q-41 0 -69.5 28t-28.5 67t28 67t70 28t70.5 -28t28.5 -67t-28.5 -67t-70.5 -28z" />
    <glyph glyph-name="ogonek" unicode="&#x2db;" horiz-adv-x="610" vert-adv-y="1105" 
d="M332 -200q-52 0 -81.5 23.5t-29.5 64.5q0 38 27 68.5t62 49.5h70q-78 -62 -78 -107q0 -37 53 -37q20 0 34 4v-56q-28 -10 -57 -10z" />
    <glyph glyph-name="tilde" unicode="&#x2dc;" horiz-adv-x="610" vert-adv-y="1105" 
d="M213 577h-62q6 55 34 83t65 28q24 0 60 -18t49 -18q29 0 37 38h62q-6 -55 -34.5 -83t-64.5 -28q-24 0 -60 18t-49 18q-30 0 -37 -38z" />
    <glyph glyph-name="hungarumlaut" unicode="&#x2dd;" horiz-adv-x="610" vert-adv-y="1105" 
d="M313 560l49 149h97l-71 -149h-75zM150 560l50 149h98l-71 -149h-77z" />
    <glyph glyph-name="Alpha" unicode="&#x391;" horiz-adv-x="673" vert-adv-y="1105" 
d="M384 695l269 -721h-104l-76 212h-276l-76 -212h-101l268 721h96zM288 440l-61 -169h216l-60 169q-23 64 -48 145q-22 -73 -47 -145z" />
    <glyph glyph-name="Beta" unicode="&#x392;" horiz-adv-x="635" vert-adv-y="1105" 
d="M82 -26v721h256q229 0 229 -176v-21q0 -52 -27.5 -90.5t-88.5 -53.5q69 -10 109 -51.5t40 -113.5v-25q0 -90 -58 -140t-173 -50h-287zM181 310v-250h151q89 0 127.5 22.5t38.5 83.5v22q0 67 -41 94.5t-147 27.5h-129zM302 610h-121v-219h128q82 0 119.5 22t37.5 86v18
q0 60 -35.5 76.5t-128.5 16.5z" />
    <glyph glyph-name="Gamma" unicode="&#x393;" horiz-adv-x="536" vert-adv-y="1105" 
d="M181 -26h-99v721h444v-83h-345v-638z" />
    <glyph glyph-name="uni0394" unicode="&#x394;" horiz-adv-x="671" vert-adv-y="1105" 
d="M20 -26l265 721h103l263 -721h-631zM150 57h370l-183 531z" />
    <glyph glyph-name="Epsilon" unicode="&#x395;" horiz-adv-x="598" vert-adv-y="1105" 
d="M82 695h449v-85h-350v-224h329v-85h-329v-242h357v-85h-456v721z" />
    <glyph glyph-name="Zeta" unicode="&#x396;" horiz-adv-x="613" vert-adv-y="1105" 
d="M560 695v-73l-414 -562h433v-86h-553v81l409 554h-385v86h510z" />
    <glyph glyph-name="Eta" unicode="&#x397;" horiz-adv-x="697" vert-adv-y="1105" 
d="M516 695h99v-721h-99v332h-335v-332h-99v721h99v-301h335v301z" />
    <glyph glyph-name="Theta" unicode="&#x398;" horiz-adv-x="706" vert-adv-y="1105" 
d="M510 376v-80h-315v80h315zM353 -37q-133 0 -213 81.5t-80 235.5v109q0 153 80 235t213 82t213 -82t80 -235v-109q0 -154 -80 -235.5t-213 -81.5zM353 616q-89 0 -141 -58.5t-52 -179.5v-87q0 -121 52 -179.5t141 -58.5t141 58t52 180v87q0 122 -52 180t-141 58z" />
    <glyph glyph-name="Iota" unicode="&#x399;" horiz-adv-x="263" vert-adv-y="1105" 
d="M82 695h99v-721h-99v721z" />
    <glyph glyph-name="Kappa" unicode="&#x39a;" horiz-adv-x="655" vert-adv-y="1105" 
d="M618 695l-290 -312l307 -409h-126l-249 337l-79 -85v-252h-99v721h99v-345l316 345h121z" />
    <glyph glyph-name="Lambda" unicode="&#x39b;" horiz-adv-x="673" vert-adv-y="1105" 
d="M653 -26h-108l-209 596l-214 -596h-102l272 721h93z" />
    <glyph glyph-name="Mu" unicode="&#x39c;" horiz-adv-x="850" vert-adv-y="1105" 
d="M383 94l-170 400q-24 59 -37 100v-620h-94v721h146l200 -472l195 472h145v-721h-95v620q-15 -57 -34 -100l-172 -400h-84z" />
    <glyph glyph-name="Nu" unicode="&#x39d;" horiz-adv-x="701" vert-adv-y="1105" 
d="M82 695h114l280 -486q29 -50 51 -105v591h92v-721h-114l-280 484q-32 57 -51 106v-590h-92v721z" />
    <glyph glyph-name="Xi" unicode="&#x39e;" horiz-adv-x="593" vert-adv-y="1105" 
d="M60 59h473v-85h-473v85zM92 301v85h403v-85h-403zM526 610h-466v85h466v-85z" />
    <glyph glyph-name="Omicron" unicode="&#x39f;" horiz-adv-x="706" vert-adv-y="1105" 
d="M353 -37q-133 0 -213 81.5t-80 235.5v109q0 153 80 235t213 82t213 -82t80 -235v-109q0 -154 -80 -235.5t-213 -81.5zM353 616q-89 0 -141 -58.5t-52 -179.5v-87q0 -121 52 -179.5t141 -58.5t141 58t52 180v87q0 122 -52 180t-141 58z" />
    <glyph glyph-name="Pi" unicode="&#x3a0;" horiz-adv-x="677" vert-adv-y="1105" 
d="M595 695v-721h-99v638h-315v-638h-99v721h513z" />
    <glyph glyph-name="Rho" unicode="&#x3a1;" horiz-adv-x="617" vert-adv-y="1105" 
d="M82 -26v721h258q118 0 178.5 -56.5t60.5 -149.5v-21q0 -92 -63 -152.5t-176 -60.5h-159v-281h-99zM334 609h-153v-268h142q156 0 156 129v18q0 121 -145 121z" />
    <glyph glyph-name="Sigma" unicode="&#x3a3;" horiz-adv-x="561" vert-adv-y="1105" 
d="M60 695h454v-85h-330l201 -278l-204 -273h340v-85h-461v70l213 287l-213 297v67z" />
    <glyph glyph-name="Tau" unicode="&#x3a4;" horiz-adv-x="571" vert-adv-y="1105" 
d="M335 -26h-99v636h-220v85h539v-85h-220v-636z" />
    <glyph glyph-name="Upsilon" unicode="&#x3a5;" horiz-adv-x="625" vert-adv-y="1105" 
d="M609 695l-246 -431v-290h-99v290l-248 431h110l189 -337l184 337h110z" />
    <glyph glyph-name="Phi" unicode="&#x3a6;" horiz-adv-x="752" vert-adv-y="1105" 
d="M55 323v53q0 108 72.5 174t201.5 77v91h93v-91q129 -11 202 -77t73 -174v-53q0 -108 -73 -174t-202 -77v-98h-93v98q-129 11 -201.5 77t-72.5 174zM601 329v41q0 150 -179 168v-378q179 18 179 169zM151 370v-41q0 -151 178 -169v378q-178 -18 -178 -168z" />
    <glyph glyph-name="Chi" unicode="&#x3a7;" horiz-adv-x="655" vert-adv-y="1105" 
d="M613 695l-221 -349l233 -372h-117l-183 309l-183 -309h-112l233 376l-218 345h118l170 -284l169 284h111z" />
    <glyph glyph-name="Psi" unicode="&#x3a8;" horiz-adv-x="718" vert-adv-y="1105" 
d="M310 -26v185q-117 13 -183.5 88t-66.5 207v221h98v-197q0 -112 39.5 -164.5t112.5 -63.5v425h98v-425q73 11 112.5 63.5t39.5 164.5v197h98v-221q0 -132 -66.5 -207t-183.5 -88v-185h-98z" />
    <glyph glyph-name="uni03A9" unicode="&#x3a9;" horiz-adv-x="746" vert-adv-y="1105" 
d="M373 617q-187 0 -187 -235v-88q0 -192 122 -232v-88h-288v86h152q-38 32 -61 90.5t-23 132.5v109q0 154 76.5 234t208.5 80t208.5 -80t76.5 -234v-109q0 -74 -23 -132.5t-61 -90.5h152v-86h-288v88q122 40 122 232v88q0 235 -187 235z" />
    <glyph glyph-name="alpha" unicode="&#x3b1;" horiz-adv-x="591" vert-adv-y="1105" 
d="M417 -26v71h-1q-18 -38 -59 -58.5t-90 -20.5q-105 0 -161 61t-56 170v103q0 109 58 170t155 61q107 0 153 -76v66h97v-547h-96zM147 286v-79q0 -156 131 -156q54 0 96 32t42 97v137q0 52 -36.5 90.5t-101.5 38.5q-131 0 -131 -160z" />
    <glyph glyph-name="beta" unicode="&#x3b2;" horiz-adv-x="581" vert-adv-y="1105" 
d="M489 559v-16q0 -135 -110 -172q70 -8 116 -51t46 -124v-27q0 -91 -58 -147t-145 -56q-115 0 -163 73v-279h-97v768q0 101 59 154.5t151 53.5q97 0 149 -51.5t52 -125.5zM175 515v-337q0 -51 36 -89t114 -38q55 0 86.5 33.5t31.5 86.5v22q0 77 -44 107t-141 27v78
q74 0 103.5 32t29.5 97v16q0 44 -24 73.5t-79 29.5q-113 0 -113 -138z" />
    <glyph glyph-name="gamma" unicode="&#x3b3;" horiz-adv-x="519" vert-adv-y="1105" 
d="M10 521h101l150 -455l150 455h98l-201 -554v-207h-97v205z" />
    <glyph glyph-name="delta" unicode="&#x3b4;" horiz-adv-x="572" vert-adv-y="1105" 
d="M232 613v-3q0 -12 6 -22t22.5 -23.5t32.5 -24t51 -33t62 -41.5q116 -81 116 -224v-27q0 -119 -62 -184t-174 -65t-174 65t-62 184v27q0 103 55.5 166.5t143.5 69.5q-114 59 -114 141v5q0 46 40 79t124 33q95 0 162 -35l-31 -79q-60 31 -129 31q-37 0 -53 -12.5t-16 -27.5
zM286 51q66 0 102 43t36 129v11q0 86 -36 129t-102 43t-102 -43t-36 -129v-11q0 -86 36 -129t102 -43z" />
    <glyph glyph-name="epsilon" unicode="&#x3b5;" horiz-adv-x="488" vert-adv-y="1105" 
d="M435 496l-27 -73q-61 30 -141 30q-53 0 -80 -17.5t-27 -46.5v-9q0 -39 29 -61.5t84 -22.5h67v-77h-67q-60 0 -92.5 -18.5t-32.5 -66.5v-9q0 -78 121 -78q87 0 159 48l40 -72q-36 -28 -94.5 -42.5t-113.5 -14.5q-104 0 -159 39.5t-55 114.5v14q0 54 35.5 88t93.5 39
q-55 9 -85 42.5t-30 78.5v14q0 64 53.5 99.5t151.5 35.5q99 0 170 -35z" />
    <glyph glyph-name="zeta" unicode="&#x3b6;" horiz-adv-x="450" vert-adv-y="1105" 
d="M349 -175l-57 62q30 20 43 33t13 29q0 7 -4.5 12.5t-16 10t-21 7.5t-29.5 8t-32 9q-104 31 -154.5 82.5t-50.5 150.5v23q0 108 60.5 213t159.5 181h-170v84h330l9 -60q-129 -82 -210.5 -190t-81.5 -219v-19q0 -74 39 -108t122 -59q90 -27 118.5 -50t28.5 -69
q0 -41 -24 -69t-72 -62z" />
    <glyph glyph-name="eta" unicode="&#x3b7;" horiz-adv-x="599" vert-adv-y="1105" 
d="M529 336v-576h-97v554q0 68 -29 99.5t-90 31.5q-54 0 -96 -35.5t-42 -96.5v-339h-97v547h94v-69h1q51 79 164 79q84 0 138 -50t54 -145z" />
    <glyph glyph-name="theta" unicode="&#x3b8;" horiz-adv-x="574" vert-adv-y="1105" 
d="M287 736q64 0 111 -26.5t73 -74.5t38 -106.5t12 -131.5v-94q0 -73 -12 -131.5t-38 -106.5t-73 -74.5t-111 -26.5t-111 26.5t-73 74.5t-38 106.5t-12 131.5v94q0 99 20.5 171.5t74.5 120t139 47.5zM287 49q41 0 69 20t42 58.5t19.5 81.5t5.5 102v3h-272v-3q0 -59 5.5 -102
t19.5 -81.5t42 -58.5t69 -20zM287 651q-40 0 -68 -19.5t-42 -56.5t-20 -79t-6 -99h272q0 57 -6 99t-20 79t-42 56.5t-68 19.5z" />
    <glyph glyph-name="iota" unicode="&#x3b9;" horiz-adv-x="277" vert-adv-y="1105" 
d="M256 58l11 -80q-31 -12 -75 -12q-115 0 -115 118v429h97v-406q0 -31 8.5 -43.5t35.5 -12.5q17 0 38 7z" />
    <glyph glyph-name="kappa" unicode="&#x3ba;" horiz-adv-x="557" vert-adv-y="1105" 
d="M537 521l-217 -222l227 -325h-122l-172 256l-78 -79v-177h-97v547h97v-252l237 252h125z" />
    <glyph glyph-name="lambda" unicode="&#x3bb;" horiz-adv-x="520" vert-adv-y="1105" 
d="M262 411h-4l-143 -437h-105l197 555l-35 100q-9 26 -30 26q-15 0 -39 -12l-27 71q36 22 75 22q42 0 65 -16t37 -55l257 -691h-102z" />
    <glyph glyph-name="uni03BC" unicode="&#x3bc;" horiz-adv-x="603" vert-adv-y="1105" 
d="M78 -240v761h97v-340q0 -58 38.5 -94t94.5 -36q51 0 85.5 36.5t34.5 94.5v339h97v-547h-94v69h-1q-12 -37 -49 -57t-75 -20q-90 0 -131 68v-274h-97z" />
    <glyph glyph-name="nu" unicode="&#x3bd;" horiz-adv-x="516" vert-adv-y="1105" 
d="M262 65h2l143 456h102l-185 -547h-124l-187 547h105z" />
    <glyph glyph-name="xi" unicode="&#x3be;" horiz-adv-x="461" vert-adv-y="1105" 
d="M46 212v14q0 78 48 122t114 49q-57 10 -96.5 50t-39.5 104v19q0 72 53.5 119t154.5 47q111 0 176 -47l-43 -72q-54 36 -132 36q-58 0 -85 -27t-27 -64v-10q0 -57 42 -86t117 -29h46v-84h-49q-87 0 -134 -29.5t-47 -98.5v-11q0 -58 38.5 -85.5t124.5 -53.5
q91 -28 119 -49.5t28 -69.5q0 -41 -23.5 -69.5t-70.5 -61.5l-57 62q29 20 41.5 32.5t12.5 28.5q0 5 -2.5 9.5t-8 8t-11.5 6.5t-16.5 6.5t-18.5 5.5t-22.5 5.5t-23.5 6.5q-103 29 -155.5 77t-52.5 139z" />
    <glyph glyph-name="omicron" unicode="&#x3bf;" horiz-adv-x="588" vert-adv-y="1105" 
d="M294 531q113 0 178.5 -65.5t65.5 -183.5v-67q0 -118 -65.5 -183.5t-178.5 -65.5t-178.5 65.5t-65.5 183.5v67q0 118 65 183.5t179 65.5zM294 51q67 0 106.5 43.5t39.5 128.5v51q0 85 -39.5 128.5t-106.5 43.5t-106.5 -43.5t-39.5 -128.5v-51q0 -85 39.5 -128.5
t106.5 -43.5z" />
    <glyph glyph-name="pi" unicode="&#x3c0;" horiz-adv-x="576" vert-adv-y="1105" 
d="M529 58l11 -80q-31 -12 -75 -12q-114 0 -114 118v352h-126v-462h-96v462h-113v85h544v-85h-113v-329q0 -31 8.5 -43.5t35.5 -12.5q17 0 38 7z" />
    <glyph glyph-name="rho" unicode="&#x3c1;" horiz-adv-x="588" vert-adv-y="1105" 
d="M304 531q112 0 173 -65t61 -184v-67q0 -120 -55.5 -184.5t-165.5 -64.5q-49 0 -89.5 18.5t-60.5 49.5v-274h-97v522q0 119 61 184t173 65zM304 51q136 0 136 172v51q0 172 -136 172t-136 -172v-51q0 -172 136 -172z" />
    <glyph glyph-name="sigma" unicode="&#x3c3;" horiz-adv-x="588" vert-adv-y="1105" 
d="M301 521h267v-83h-101q39 -30 55 -69.5t16 -96.5v-57q0 -118 -65.5 -183.5t-178.5 -65.5t-178.5 65.5t-65.5 183.5v57q0 119 65 184t186 65zM294 51q67 0 106.5 43.5t39.5 128.5v41q0 85 -39.5 128.5t-106.5 43.5t-106.5 -43.5t-39.5 -128.5v-41q0 -85 39.5 -128.5
t106.5 -43.5z" />
    <glyph glyph-name="tau" unicode="&#x3c4;" horiz-adv-x="552" vert-adv-y="1105" 
d="M414 63l19 -79q-39 -18 -103 -18q-115 0 -115 120v350h-199v85h520v-85h-224v-329q0 -31 8.5 -43.5t35.5 -12.5q26 0 58 12z" />
    <glyph glyph-name="upsilon" unicode="&#x3c5;" horiz-adv-x="582" vert-adv-y="1105" 
d="M291 -34q-116 0 -168.5 59t-52.5 176v320h97v-303q0 -95 31.5 -130t92.5 -35t92.5 35t31.5 130v303h97v-320q0 -117 -52.5 -176t-168.5 -59z" />
    <glyph glyph-name="phi" unicode="&#x3c6;" horiz-adv-x="680" vert-adv-y="1105" 
d="M387 -240h-96v209q-112 13 -177.5 80t-65.5 174v51q0 119 79.5 188t212.5 69t212.5 -69t79.5 -188v-51q0 -108 -66 -175t-179 -79v-209zM536 270q0 148 -149 171v-387q149 21 149 173v43zM144 227q0 -147 147 -171v385q-147 -24 -147 -171v-43z" />
    <glyph glyph-name="chi" unicode="&#x3c7;" horiz-adv-x="558" vert-adv-y="1105" 
d="M208 154l-106 257q-6 13 -9.5 19.5t-9.5 11.5t-15 5q-12 0 -32 -9l-26 70q35 23 82 23q69 0 92 -64l96 -249l123 295h104l-168 -357l117 -285q8 -18 14.5 -25.5t19.5 -7.5q14 0 32 8l26 -72q-35 -23 -82 -23q-67 0 -92 63l-106 276l-147 -330h-105z" />
    <glyph glyph-name="psi" unicode="&#x3c8;" horiz-adv-x="726" vert-adv-y="1105" 
d="M411 -240h-96v209q-112 11 -178.5 74t-66.5 178v300h96v-290q0 -155 149 -174v464h96v-464q149 19 149 174v290h96v-300q0 -115 -67 -178t-178 -74v-209z" />
    <glyph glyph-name="omega" unicode="&#x3c9;" horiz-adv-x="752" vert-adv-y="1105" 
d="M378 53h-2q-15 -41 -51.5 -64t-82.5 -23q-83 0 -135 62.5t-52 195.5v22q0 71 26 152t65 139l84 -44q-76 -136 -76 -251v-18q0 -77 26 -124t72 -47q36 0 56 31t20 82v218h96v-218q0 -51 20 -82t56 -31q46 0 72.5 47t26.5 124v18q0 115 -76 251l83 44q39 -58 65 -139
t26 -152v-22q0 -133 -52 -195.5t-135 -62.5q-46 0 -81.5 23t-50.5 64z" />
    <glyph glyph-name="afii10023" unicode="&#x401;" horiz-adv-x="598" vert-adv-y="1105" 
d="M82 695h449v-85h-350v-224h329v-85h-329v-242h357v-85h-456v721zM185 751v92h88v-92h-88zM360 751v92h88v-92h-88z" />
    <glyph glyph-name="afii10017" unicode="&#x410;" horiz-adv-x="673" vert-adv-y="1105" 
d="M384 695l269 -721h-104l-76 212h-276l-76 -212h-101l268 721h96zM288 440l-61 -169h216l-60 169q-23 64 -48 145q-22 -73 -47 -145z" />
    <glyph glyph-name="afii10018" unicode="&#x411;" horiz-adv-x="625" vert-adv-y="1105" 
d="M181 321v-264h165q74 0 110 25t36 86v32q0 67 -35 94t-105 27h-171zM531 695v-83h-350v-209h170q242 0 242 -201v-35q0 -193 -240 -193h-271v721h449z" />
    <glyph glyph-name="afii10019" unicode="&#x412;" horiz-adv-x="635" vert-adv-y="1105" 
d="M82 -26v721h256q229 0 229 -176v-21q0 -52 -27.5 -90.5t-88.5 -53.5q69 -10 109 -51.5t40 -113.5v-25q0 -90 -58 -140t-173 -50h-287zM181 310v-250h151q89 0 127.5 22.5t38.5 83.5v22q0 67 -41 94.5t-147 27.5h-129zM302 610h-121v-219h128q82 0 119.5 22t37.5 86v18
q0 60 -35.5 76.5t-128.5 16.5z" />
    <glyph glyph-name="afii10020" unicode="&#x413;" horiz-adv-x="542" vert-adv-y="1105" 
d="M181 -26h-99v721h444v-83h-345v-638z" />
    <glyph glyph-name="afii10021" unicode="&#x414;" horiz-adv-x="658" vert-adv-y="1105" 
d="M175 695h401v-639h60v-252h-90v170h-441v-170h-89v252h53q38 64 61.5 128.5t32.5 138.5t10.5 116t1.5 126v130zM274 613v-48q0 -165 -17.5 -281.5t-77.5 -227.5h307v557h-212z" />
    <glyph glyph-name="afii10022" unicode="&#x415;" horiz-adv-x="598" vert-adv-y="1105" 
d="M82 695h449v-85h-350v-224h329v-85h-329v-242h357v-85h-456v721z" />
    <glyph glyph-name="afii10024" unicode="&#x416;" horiz-adv-x="916" vert-adv-y="1105" 
d="M409 -26v336h-17q-28 0 -46 -16t-53 -70l-163 -250h-110l194 292q46 69 90 86q-52 25 -95 124l-35 80q-15 34 -33 47.5t-44 13.5q-18 0 -39 -7l-21 80q26 11 65 11q56 0 90 -22.5t62 -83.5l39 -84q32 -68 52 -93t45 -25h19v302h98v-302h19q25 0 45 25t52 93l39 84
q28 61 62 83.5t90 22.5q39 0 65 -11l-21 -80q-21 7 -39 7q-26 0 -44 -13.5t-33 -47.5l-35 -80q-43 -99 -95 -124q44 -17 90 -86l194 -292h-110l-163 250q-35 54 -53 70t-46 16h-17v-336h-98z" />
    <glyph glyph-name="afii10025" unicode="&#x417;" horiz-adv-x="558" vert-adv-y="1105" 
d="M117 539l-75 51q76 116 232 116q114 0 174 -48t60 -131v-11q0 -123 -144 -162q77 -6 124.5 -51t47.5 -117v-15q0 -88 -67.5 -148t-195.5 -60q-151 0 -253 81l47 74q99 -72 206 -72q76 0 118.5 35.5t42.5 88.5v13q0 127 -175 127h-81v80h84q64 0 105 39t41 88v9
q0 39 -33.5 68t-99.5 29q-99 0 -158 -84z" />
    <glyph glyph-name="afii10026" unicode="&#x418;" horiz-adv-x="701" vert-adv-y="1105" 
d="M505 695h114v-721h-92v590q-19 -49 -51 -106l-280 -484h-114v721h92v-591q22 55 51 105z" />
    <glyph glyph-name="afii10027" unicode="&#x419;" horiz-adv-x="701" vert-adv-y="1105" 
d="M619 695h-114l-280 -486q-29 -50 -51 -105v591h-92v-721h114l280 484q32 57 51 106v-590h92v721zM364 722q-59 0 -95.5 33.5t-40.5 91.5h69q11 -64 67 -64q57 0 67 64h69q-2 -57 -39 -91t-97 -34z" />
    <glyph glyph-name="afii10028" unicode="&#x41a;" horiz-adv-x="613" vert-adv-y="1105" 
d="M82 -26v721h98v-302h43q25 0 45 25t52 93l39 84q28 61 62 83.5t90 22.5q39 0 65 -11l-21 -80q-21 7 -39 7q-26 0 -44 -13.5t-33 -47.5l-35 -80q-43 -99 -95 -124q44 -17 90 -86l194 -292h-110l-163 250q-35 54 -53 70t-46 16h-41v-336h-98z" />
    <glyph glyph-name="afii10029" unicode="&#x41b;" horiz-adv-x="697" vert-adv-y="1105" 
d="M194 695h421v-721h-99v638h-223v-213q0 -68 -4 -115.5t-18.5 -103.5t-41 -93.5t-74.5 -70t-116 -48.5l-29 91q50 17 81.5 37t53 45.5t31.5 65.5t14 85.5t4 118.5v284z" />
    <glyph glyph-name="afii10030" unicode="&#x41c;" horiz-adv-x="850" vert-adv-y="1105" 
d="M383 94l-170 400q-24 59 -37 100v-620h-94v721h146l200 -472l195 472h145v-721h-95v620q-15 -57 -34 -100l-172 -400h-84z" />
    <glyph glyph-name="afii10031" unicode="&#x41d;" horiz-adv-x="697" vert-adv-y="1105" 
d="M516 695h99v-721h-99v332h-335v-332h-99v721h99v-301h335v301z" />
    <glyph glyph-name="afii10032" unicode="&#x41e;" horiz-adv-x="706" vert-adv-y="1105" 
d="M353 -37q-133 0 -213 81.5t-80 235.5v109q0 153 80 235t213 82t213 -82t80 -235v-109q0 -154 -80 -235.5t-213 -81.5zM353 616q-89 0 -141 -58.5t-52 -179.5v-87q0 -121 52 -179.5t141 -58.5t141 58t52 180v87q0 122 -52 180t-141 58z" />
    <glyph glyph-name="afii10033" unicode="&#x41f;" horiz-adv-x="677" vert-adv-y="1105" 
d="M595 695v-721h-99v638h-315v-638h-99v721h513z" />
    <glyph glyph-name="afii10034" unicode="&#x420;" horiz-adv-x="617" vert-adv-y="1105" 
d="M82 -26v721h258q118 0 178.5 -56.5t60.5 -149.5v-21q0 -92 -63 -152.5t-176 -60.5h-159v-281h-99zM334 609h-153v-268h142q156 0 156 129v18q0 121 -145 121z" />
    <glyph glyph-name="afii10035" unicode="&#x421;" horiz-adv-x="644" vert-adv-y="1105" 
d="M550 131l54 -76q-96 -92 -255 -92q-133 0 -211 81t-78 236v109q0 154 78.5 235.5t210.5 81.5q141 0 238 -77l-51 -81q-81 66 -187 66q-86 0 -137.5 -59.5t-51.5 -178.5v-83q0 -119 51.5 -178.5t137.5 -59.5q124 0 201 76z" />
    <glyph glyph-name="afii10036" unicode="&#x422;" horiz-adv-x="571" vert-adv-y="1105" 
d="M335 -26h-99v636h-220v85h539v-85h-220v-636z" />
    <glyph glyph-name="afii10037" unicode="&#x423;" horiz-adv-x="562" vert-adv-y="1105" 
d="M10 695h109l174 -411l154 411h105l-291 -732l-94 32l71 178z" />
    <glyph glyph-name="afii10038" unicode="&#x424;" horiz-adv-x="752" vert-adv-y="1105" 
d="M55 323v53q0 108 72.5 174t201.5 77v91h93v-91q129 -11 202 -77t73 -174v-53q0 -108 -73 -174t-202 -77v-98h-93v98q-129 11 -201.5 77t-72.5 174zM601 329v41q0 150 -179 168v-378q179 18 179 169zM151 370v-41q0 -151 178 -169v378q-178 -18 -178 -168z" />
    <glyph glyph-name="afii10039" unicode="&#x425;" horiz-adv-x="655" vert-adv-y="1105" 
d="M613 695l-221 -349l233 -372h-117l-183 309l-183 -309h-112l233 376l-218 345h118l170 -284l169 284h111z" />
    <glyph glyph-name="afii10040" unicode="&#x426;" horiz-adv-x="667" vert-adv-y="1105" 
d="M82 695h99v-638h305v638h99v-638h60v-253h-99v170h-464v721z" />
    <glyph glyph-name="afii10041" unicode="&#x427;" horiz-adv-x="628" vert-adv-y="1105" 
d="M70 695h99v-232q0 -90 30 -121.5t112 -31.5q74 0 136 39v346h99v-721h-99v288q-62 -36 -148 -36q-32 0 -60.5 4.5t-60.5 18t-55 35t-38 60t-15 88.5v263z" />
    <glyph glyph-name="afii10042" unicode="&#x428;" horiz-adv-x="955" vert-adv-y="1105" 
d="M82 695h98v-638h248v638h98v-638h248v638h99v-721h-791v721z" />
    <glyph glyph-name="afii10043" unicode="&#x429;" horiz-adv-x="955" vert-adv-y="1105" 
d="M774 695h99v-638h60v-253h-99v170h-752v721h98v-638h248v638h98v-638h248v638z" />
    <glyph glyph-name="afii10044" unicode="&#x42a;" horiz-adv-x="688" vert-adv-y="1105" 
d="M246 329v-272h165q73 0 109.5 26.5t36.5 87.5v34q0 68 -35 96t-105 28h-171zM10 612v83h236v-284h170q242 0 242 -204v-37q0 -93 -58.5 -144.5t-181.5 -51.5h-271v638h-137z" />
    <glyph glyph-name="afii10045" unicode="&#x42b;" horiz-adv-x="843" vert-adv-y="1105" 
d="M181 329v-272h165q73 0 109.5 26.5t36.5 87.5v34q0 68 -35 96t-105 28h-171zM82 695h99v-284h170q242 0 242 -204v-37q0 -93 -58.5 -144.5t-181.5 -51.5h-271v721zM761 -26h-99v721h99v-721z" />
    <glyph glyph-name="afii10046" unicode="&#x42c;" horiz-adv-x="623" vert-adv-y="1105" 
d="M181 329v-272h165q73 0 109.5 26.5t36.5 87.5v34q0 68 -35 96t-105 28h-171zM82 695h99v-284h170q242 0 242 -204v-37q0 -93 -58.5 -144.5t-181.5 -51.5h-271v721z" />
    <glyph glyph-name="afii10047" unicode="&#x42d;" horiz-adv-x="644" vert-adv-y="1105" 
d="M156 298v82h330q-1 117 -53.5 176.5t-137.5 59.5q-106 0 -187 -66l-51 79q97 77 238 77q132 0 210.5 -81.5t78.5 -235.5v-109q0 -155 -78 -236t-211 -81q-159 0 -255 92l54 74q77 -76 201 -76q86 0 138.5 60.5t52.5 179.5v5h-330z" />
    <glyph glyph-name="afii10048" unicode="&#x42e;" horiz-adv-x="919" vert-adv-y="1105" 
d="M576 -37q-132 0 -207.5 80.5t-75.5 236.5v11h-112v-317h-99v721h99v-321h112v15q0 154 76 235.5t207 81.5t207 -81.5t76 -235.5v-109q0 -156 -75.5 -236.5t-207.5 -80.5zM576 616q-183 0 -183 -238v-87q0 -238 183 -238t183 238v87q0 238 -183 238z" />
    <glyph glyph-name="afii10049" unicode="&#x42f;" horiz-adv-x="659" vert-adv-y="1105" 
d="M478 -26v301h-132q-42 0 -68 -52l-121 -249h-107l130 260q27 52 56 68q-73 16 -111.5 64t-38.5 108v26q0 87 61 141t169 54h261v-721h-99zM478 359v251h-148q-145 0 -145 -113v-20q0 -118 155 -118h138z" />
    <glyph glyph-name="afii10065" unicode="&#x430;" horiz-adv-x="561" vert-adv-y="1105" 
d="M233 -34q-83 0 -131.5 41t-48.5 113v27q0 73 49 115.5t150 42.5h139v32q0 55 -27 81.5t-86 26.5q-44 0 -78.5 -13.5t-78.5 -41.5l-48 72q99 69 206 69q93 0 150.5 -46.5t57.5 -127.5v-383h-93v66h-1q-14 -28 -51 -49q-45 -25 -109 -25zM391 169v54h-137q-106 0 -106 -83
v-14q0 -38 26.5 -57t68.5 -19q68 0 111 34q37 28 37 85z" />
    <glyph glyph-name="afii10066" unicode="&#x431;" horiz-adv-x="587" vert-adv-y="1105" 
d="M300 494q109 0 170.5 -64t61.5 -176v-48q0 -111 -65 -175.5t-176 -64.5t-176 64.5t-65 175.5v55q0 244 96 349.5t327 128.5l12 -87q-141 -15 -218.5 -59t-104.5 -150q24 23 62 37t76 14zM291 51q66 0 104.5 42.5t38.5 120.5v32q0 78 -38.5 120.5t-104.5 42.5
t-104.5 -42.5t-38.5 -120.5v-32q0 -78 38.5 -120.5t104.5 -42.5z" />
    <glyph glyph-name="afii10067" unicode="&#x432;" horiz-adv-x="541" vert-adv-y="1105" 
d="M78 -26v539h215q193 0 193 -135v-11q0 -39 -22 -68.5t-68 -40.5q52 -8 83.5 -38t31.5 -79v-15q0 -70 -49 -111t-146 -41h-238zM175 216v-161h116q59 0 90 16.5t31 57.5v14q0 41 -29 57t-109 16h-99zM276 432h-101v-137h102q61 0 86 14t25 55v9q0 31 -23.5 45t-88.5 14z
" />
    <glyph glyph-name="afii10068" unicode="&#x433;" horiz-adv-x="414" vert-adv-y="1105" 
d="M78 513h331v-83h-234v-456h-97v539z" />
    <glyph glyph-name="afii10069" unicode="&#x434;" horiz-adv-x="583" vert-adv-y="1105" 
d="M148 513h357v-457h48v-219h-97v137h-339v-137h-97v219h43q42 69 61 127t21.5 93.5t2.5 115.5v121zM245 431v-39q0 -118 -12.5 -181t-62.5 -155h238v375h-163z" />
    <glyph glyph-name="afii10070" unicode="&#x435;" horiz-adv-x="561" vert-adv-y="1105" 
d="M290 448q-61 0 -100 -39.5t-39 -102.5v-14h274v18q0 63 -36.5 100.5t-98.5 37.5zM465 99l41 -73q-87 -60 -211 -60q-108 0 -174 62.5t-66 189.5v62q0 121 65 186t170 65q106 0 167.5 -64.5t61.5 -180.5v-73h-368v-4q0 -76 40.5 -117.5t107.5 -41.5q89 0 166 49z" />
    <glyph glyph-name="afii10072" unicode="&#x436;" horiz-adv-x="735" vert-adv-y="1105" 
d="M319 -26v240h-11q-22 0 -34 -11t-38 -52l-114 -177h-112l145 218q20 30 35.5 44t39.5 20q-23 6 -36.5 23.5t-28.5 50.5l-26 58q-20 44 -54 44q-21 0 -40 -7l-20 80q30 13 67 13q45 0 73.5 -18t49.5 -63l25 -53q24 -50 37 -69t32 -19h10v217h97v-217h10q19 0 32 19t37 69
l25 53q21 46 49 63.5t73 17.5q38 0 68 -13l-20 -80q-19 7 -40 7q-20 0 -31.5 -10t-22.5 -34l-26 -58q-15 -32 -29 -50t-36 -24q24 -6 39.5 -20t35.5 -44l145 -218h-112l-114 177q-26 41 -38 52t-34 11h-11v-240h-97z" />
    <glyph glyph-name="afii10073" unicode="&#x437;" horiz-adv-x="453" vert-adv-y="1105" 
d="M84 374l-59 63q70 86 186 86q90 0 140 -38t50 -99v-8q0 -94 -102 -119q56 -3 90 -37.5t34 -87.5v-11q0 -69 -55 -113t-154 -44q-55 0 -111 15.5t-93 44.5l42 73q71 -50 162 -50q49 0 80.5 19t31.5 59v10q0 47 -31.5 62.5t-87.5 15.5h-67v82h69q94 0 94 76v6
q0 27 -21 44.5t-69 17.5q-77 0 -129 -67z" />
    <glyph glyph-name="afii10074" unicode="&#x438;" horiz-adv-x="603" vert-adv-y="1105" 
d="M525 513v-539h-94v396q-10 -28 -35 -66l-227 -330h-91v539h94v-396q14 32 37 65l226 331h90z" />
    <glyph glyph-name="afii10075" unicode="&#x439;" horiz-adv-x="603" vert-adv-y="1105" 
d="M525 513v-539h-94v396q-10 -28 -35 -66l-227 -330h-91v539h94v-396q14 32 37 65l226 331h90zM305 571q-59 0 -95.5 33.5t-40.5 91.5h69q11 -64 67 -64q57 0 67 64h69q-2 -57 -39 -91t-97 -34z" />
    <glyph glyph-name="afii10076" unicode="&#x43a;" horiz-adv-x="514" vert-adv-y="1105" 
d="M78 -26v538h97v-216h29q10 0 17.5 4.5t17 19t15 25.5t18.5 39l25 53q21 45 49.5 63t73.5 18q38 0 68 -13l-19 -80q-19 7 -40 7q-20 0 -31.5 -10t-22.5 -34l-26 -58q-15 -32 -29 -50t-36 -24q24 -6 39.5 -20t35.5 -44l145 -218h-114l-114 177q-27 41 -38.5 52t-32.5 11
h-30v-240h-97z" />
    <glyph glyph-name="afii10077" unicode="&#x43b;" horiz-adv-x="588" vert-adv-y="1105" 
d="M126 513h384v-539h-97v456h-190v-150q0 -47 -3 -82t-14.5 -77t-31.5 -70.5t-56.5 -51.5t-87.5 -31l-20 85q71 21 93.5 67.5t22.5 164.5v228z" />
    <glyph glyph-name="afii10078" unicode="&#x43c;" horiz-adv-x="699" vert-adv-y="1105" 
d="M311 53l-114 268q-14 33 -26 76v-423h-93v539h129l144 -351l143 351h127v-539h-98v423q-8 -35 -25 -74l-114 -270h-73z" />
    <glyph glyph-name="afii10079" unicode="&#x43d;" horiz-adv-x="608" vert-adv-y="1105" 
d="M78 513h97v-219h258v219h97v-539h-97v236h-258v-236h-97v539z" />
    <glyph glyph-name="afii10080" unicode="&#x43e;" horiz-adv-x="598" vert-adv-y="1105" 
d="M299 531q113 0 178.5 -65.5t65.5 -183.5v-67q0 -118 -65.5 -183.5t-178.5 -65.5t-178.5 65.5t-65.5 183.5v67q0 118 65 183.5t179 65.5zM299 51q67 0 106.5 43.5t39.5 128.5v51q0 85 -39.5 128.5t-106.5 43.5t-106.5 -43.5t-39.5 -128.5v-51q0 -85 39.5 -128.5
t106.5 -43.5z" />
    <glyph glyph-name="afii10081" unicode="&#x43f;" horiz-adv-x="585" vert-adv-y="1105" 
d="M78 513h429v-539h-97v455h-235v-455h-97v539z" />
    <glyph glyph-name="afii10082" unicode="&#x440;" horiz-adv-x="600" vert-adv-y="1105" 
d="M172 521v-68q45 78 160 78q102 0 157.5 -62t55.5 -171v-97q0 -111 -59.5 -173t-159.5 -62q-104 0 -151 68v-274h-97v761h94zM174 307v-138q0 -45 41.5 -81.5t102.5 -36.5q62 0 96.5 43.5t34.5 120.5v67q0 78 -35 121t-96 43t-102.5 -38.5t-41.5 -100.5z" />
    <glyph glyph-name="afii10083" unicode="&#x441;" horiz-adv-x="514" vert-adv-y="1105" 
d="M291 531q110 0 189 -60l-46 -73q-65 47 -143 47q-59 0 -98.5 -40t-39.5 -119v-69q0 -83 40 -123.5t100 -40.5q87 0 154 50l47 -74q-75 -63 -202 -63q-113 0 -175 66t-62 184v69q0 116 63.5 181t172.5 65z" />
    <glyph glyph-name="afii10084" unicode="&#x442;" horiz-adv-x="449" vert-adv-y="1105" 
d="M15 513h419v-84h-163v-455h-97v455h-159v84z" />
    <glyph glyph-name="afii10085" unicode="&#x443;" horiz-adv-x="520" vert-adv-y="1105" 
d="M263 84h4l144 437h102l-284 -773l-88 31l71 187l-199 555h105z" />
    <glyph glyph-name="afii10086" unicode="&#x444;" horiz-adv-x="678" vert-adv-y="1105" 
d="M292 695h94v-175q115 -11 178.5 -76t63.5 -171v-57q0 -106 -63.5 -171t-178.5 -76v-196h-94v196q-115 11 -178.5 76t-63.5 171v57q0 107 63.5 171.5t178.5 75.5v175zM531 269q0 76 -39.5 116.5t-105.5 50.5v-386q145 23 145 170v49zM147 220q0 -76 39.5 -117.5
t105.5 -52.5v386q-66 -10 -105.5 -50.5t-39.5 -116.5v-49z" />
    <glyph glyph-name="afii10087" unicode="&#x445;" horiz-adv-x="525" vert-adv-y="1105" 
d="M498 521l-173 -263l180 -284h-117l-127 220l-130 -220h-111l183 284l-174 263h117l121 -202l123 202h108z" />
    <glyph glyph-name="afii10088" unicode="&#x446;" horiz-adv-x="572" vert-adv-y="1105" 
d="M397 513h97v-456h48v-220h-97v137h-367v539h97v-456h222v456z" />
    <glyph glyph-name="afii10089" unicode="&#x447;" horiz-adv-x="537" vert-adv-y="1105" 
d="M40 513h97v-163q0 -56 21.5 -82.5t84.5 -26.5q70 0 119 34v238h97v-547h-97v224q-48 -33 -130 -33q-80 0 -136 40t-56 120v196z" />
    <glyph glyph-name="afii10090" unicode="&#x448;" horiz-adv-x="807" vert-adv-y="1105" 
d="M729 -26h-651v539h97v-457h180v457h97v-457h180v457h97v-539z" />
    <glyph glyph-name="afii10091" unicode="&#x449;" horiz-adv-x="807" vert-adv-y="1105" 
d="M632 513h97v-457h48v-219h-97v137h-602v539h97v-457h180v457h97v-457h180v457z" />
    <glyph glyph-name="afii10092" unicode="&#x44a;" horiz-adv-x="556" vert-adv-y="1105" 
d="M209 242v-186h104q65 0 92 18t27 65v18q0 51 -25.5 68t-89.5 17h-108zM10 430v83h199v-189h131q90 0 140 -41.5t50 -123.5v-21q0 -76 -47.5 -120t-141.5 -44h-229v456h-102z" />
    <glyph glyph-name="afii10093" unicode="&#x44b;" horiz-adv-x="731" vert-adv-y="1105" 
d="M175 242v-186h104q61 0 90 19t29 65v16q0 50 -27.5 68t-87.5 18h-108zM78 513h97v-189h131q190 0 190 -166v-19q0 -77 -46 -121t-143 -44h-229v539zM556 513h97v-539h-97v539z" />
    <glyph glyph-name="afii10094" unicode="&#x44c;" horiz-adv-x="522" vert-adv-y="1105" 
d="M175 242v-186h104q61 0 90 19t29 65v16q0 50 -27.5 68t-87.5 18h-108zM78 513h97v-189h131q190 0 190 -166v-19q0 -77 -46 -121t-143 -44h-229v539z" />
    <glyph glyph-name="afii10095" unicode="&#x44d;" horiz-adv-x="509" vert-adv-y="1105" 
d="M135 207v82h226q-1 78 -40.5 117.5t-97.5 39.5q-78 0 -143 -47l-46 72q79 60 189 60q109 0 172.5 -65t63.5 -181v-69q0 -118 -62 -184t-175 -66q-127 0 -202 63l47 73q67 -50 154 -50q57 0 97 38t43 117h-226z" />
    <glyph glyph-name="afii10096" unicode="&#x44e;" horiz-adv-x="763" vert-adv-y="1105" 
d="M481 531q110 0 168.5 -65t58.5 -184v-67q0 -119 -58.5 -184t-168.5 -65q-107 0 -165.5 61.5t-61.5 175.5h-77v-229h-97v539h97v-225h77q2 117 60.5 180t166.5 63zM481 51q129 0 129 172v51q0 172 -129 172t-129 -172v-51q0 -172 129 -172z" />
    <glyph glyph-name="afii10097" unicode="&#x44f;" horiz-adv-x="541" vert-adv-y="1105" 
d="M463 513v-539h-97v213h-81q-34 0 -50 -11.5t-30 -40.5l-77 -161h-112l87 175q26 54 65 68q-54 8 -88 44t-34 92v11q0 70 47.5 109.5t139.5 39.5h230zM366 431h-127q-95 0 -95 -74v-7q0 -79 121 -79h101v160z" />
    <glyph glyph-name="afii10071" unicode="&#x451;" horiz-adv-x="561" vert-adv-y="1105" 
d="M290 448q-61 0 -100 -39.5t-39 -102.5v-14h274v18q0 63 -36.5 100.5t-98.5 37.5zM465 99l41 -73q-87 -60 -211 -60q-108 0 -174 62.5t-66 189.5v62q0 121 65 186t170 65q106 0 167.5 -64.5t61.5 -180.5v-73h-368v-4q0 -76 40.5 -117.5t107.5 -41.5q89 0 166 49zM155 588
v92h88v-92h-88zM330 588v92h88v-92h-88z" />
    <glyph glyph-name="uni2010" unicode="&#x2010;" horiz-adv-x="419" vert-adv-y="1105" 
d="M30 244v93h359v-93h-359z" />
    <glyph glyph-name="endash" unicode="&#x2013;" horiz-adv-x="425" vert-adv-y="1105" 
d="M425 349v-70h-425v70h425z" />
    <glyph glyph-name="emdash" unicode="&#x2014;" horiz-adv-x="850" vert-adv-y="1105" 
d="M850 349v-70h-850v70h850z" />
    <glyph glyph-name="uni2016" unicode="&#x2016;" vert-adv-y="1105" 
d="M571 780v-960h-57v960h57zM395 780v-960h-56v960h56z" />
    <glyph glyph-name="quoteleft" unicode="&#x2018;" horiz-adv-x="200" vert-adv-y="1105" 
d="M180 773l-42 -228h-110l75 228h77z" />
    <glyph glyph-name="quoteright" unicode="&#x2019;" horiz-adv-x="200" vert-adv-y="1105" 
d="M20 530l42 228h110l-75 -228h-77z" />
    <glyph glyph-name="quotereversed" unicode="&#x201b;" horiz-adv-x="470" vert-adv-y="1105" 
 />
    <glyph glyph-name="quotedblleft" unicode="&#x201c;" horiz-adv-x="350" vert-adv-y="1105" 
d="M328 773l-42 -228h-107l75 228h74zM184 773l-42 -228h-107l75 228h74z" />
    <glyph glyph-name="quotedblright" unicode="&#x201d;" horiz-adv-x="350" vert-adv-y="1105" 
d="M22 530l42 228h107l-75 -228h-74zM166 530l42 228h107l-75 -228h-74z" />
    <glyph glyph-name="uni201F" unicode="&#x201f;" horiz-adv-x="470" vert-adv-y="1105" 
 />
    <glyph glyph-name="dagger" unicode="&#x2020;" horiz-adv-x="493" vert-adv-y="1105" 
d="M205 -91v504h-165v79h165v202h83v-202h165v-79h-165v-504h-83z" />
    <glyph glyph-name="daggerdbl" unicode="&#x2021;" horiz-adv-x="493" vert-adv-y="1105" 
d="M40 111v79h165v223h-165v79h165v202h83v-202h165v-79h-165v-223h165v-79h-165v-202h-83v202h-165z" />
    <glyph glyph-name="bullet" unicode="&#x2022;" horiz-adv-x="940" vert-adv-y="1105" 
 />
    <glyph glyph-name="twodotenleader" unicode="&#x2025;" vert-adv-y="1105" 
d="M255 245v115h114v-115h-114zM540 245v115h114v-115h-114z" />
    <glyph glyph-name="uni22EF" unicode="&#x2026;" vert-adv-y="1105" 
d="M130 245v115h114v-115h-114zM398 245v115h114v-115h-114zM666 245v115h114v-115h-114z" />
    <glyph glyph-name="uni22EF" unicode="&#x22ef;" vert-adv-y="1105" 
d="M130 245v115h114v-115h-114zM398 245v115h114v-115h-114zM666 245v115h114v-115h-114z" />
    <glyph glyph-name="perthousand" unicode="&#x2030;" horiz-adv-x="1267" vert-adv-y="1105" 
d="M276 -25h-90l431 720h89zM227 706q76 0 119.5 -45t43.5 -124v-42q0 -79 -43.5 -124t-119.5 -45t-119.5 45t-43.5 124v42q0 79 43.5 124t119.5 45zM227 394q85 0 85 103v38q0 103 -85 103t-85 -103v-38q0 -103 85 -103zM666 346q76 0 119.5 -45t43.5 -124v-42
q0 -79 -43.5 -124t-119.5 -45t-119.5 45t-43.5 124v42q0 79 43.5 124t119.5 45zM666 34q85 0 85 103v38q0 103 -85 103t-85 -103v-38q0 -103 85 -103zM1040 346q76 0 119.5 -45t43.5 -124v-42q0 -79 -43.5 -124t-119.5 -45t-119.5 45t-43.5 124v42q0 79 43.5 124t119.5 45z
M1040 34q85 0 85 103v38q0 103 -85 103t-85 -103v-38q0 -103 85 -103z" />
    <glyph glyph-name="minute" unicode="&#x2032;" horiz-adv-x="428" vert-adv-y="1105" 
d="M120 480l80 255h108l-135 -255h-53z" />
    <glyph glyph-name="second" unicode="&#x2033;" horiz-adv-x="595" vert-adv-y="1105" 
d="M288 480l80 255h107l-135 -255h-52zM120 480l80 255h107l-135 -255h-52z" />
    <glyph glyph-name="uni2034" unicode="&#x2034;" horiz-adv-x="589" vert-adv-y="1105" 
 />
    <glyph glyph-name="uni2035" unicode="&#x2035;" horiz-adv-x="940" vert-adv-y="1105" 
 />
    <glyph glyph-name="uni2036" unicode="&#x2036;" horiz-adv-x="940" vert-adv-y="1105" 
 />
    <glyph glyph-name="guilsinglleft" unicode="&#x2039;" horiz-adv-x="940" vert-adv-y="1105" 
 />
    <glyph glyph-name="guilsinglright" unicode="&#x203a;" horiz-adv-x="940" vert-adv-y="1105" 
 />
    <glyph glyph-name="uni203B" unicode="&#x203b;" vert-adv-y="1105" 
d="M824 625l-325 -319l328 -317l-56 -54l-323 321q-61 -62 -173.5 -173.5t-148.5 -147.5l-54 53q54 53 163 158.5t163 158.5l-324 319l51 55l323 -323l325 323zM224 304q0 -30 -23.5 -53t-55.5 -23q-30 0 -54.5 23t-24.5 53q0 32 23.5 55t54.5 23q32 0 56 -23t24 -55z
M523 606q0 -30 -23.5 -53.5t-54.5 -23.5t-55 23.5t-24 53.5q0 31 23 54t55 23t55.5 -23t23.5 -54zM843 304q0 -30 -23.5 -52.5t-55.5 -22.5q-31 0 -54.5 22.5t-23.5 52.5q0 33 23 55.5t54 22.5q33 0 56.5 -22.5t23.5 -55.5zM523 -6q0 -30 -22.5 -52.5t-55.5 -22.5
q-31 0 -54.5 22.5t-23.5 52.5q0 32 22.5 54.5t54.5 22.5t55.5 -22.5t23.5 -54.5z" />
    <glyph glyph-name="exclamdbl" unicode="&#x203c;" horiz-adv-x="940" vert-adv-y="1105" 
 />
    <glyph glyph-name="uni2042" unicode="&#x2042;" horiz-adv-x="940" vert-adv-y="1105" 
 />
    <glyph glyph-name="uni2074" unicode="&#x2074;" horiz-adv-x="400" vert-adv-y="1105" 
d="M243 601h84v-154h60v-72h-60v-91h-84v91h-225v60l198 307h92l-191 -295h126v154z" />
    <glyph glyph-name="uni207A" unicode="&#x207a;" horiz-adv-x="470" vert-adv-y="1105" 
 />
    <glyph glyph-name="uni207B" unicode="&#x207b;" horiz-adv-x="470" vert-adv-y="1105" 
 />
    <glyph glyph-name="uni207C" unicode="&#x207c;" horiz-adv-x="470" vert-adv-y="1105" 
 />
    <glyph glyph-name="uni207D" unicode="&#x207d;" horiz-adv-x="470" vert-adv-y="1105" 
 />
    <glyph glyph-name="uni207E" unicode="&#x207e;" horiz-adv-x="470" vert-adv-y="1105" 
 />
    <glyph glyph-name="uni207F" unicode="&#x207f;" horiz-adv-x="474" vert-adv-y="1105" 
d="M270 729q65 0 108.5 -39.5t43.5 -118.5v-287h-88v267q0 55 -22 77.5t-66 22.5q-39 0 -71 -25t-32 -78v-264h-88v438h83v-53q42 60 132 60z" />
    <glyph glyph-name="uni2081" unicode="&#x2081;" horiz-adv-x="400" vert-adv-y="1105" 
d="M281 -112h-88v359l-104 -61l-42 71l159 89h75v-458z" />
    <glyph glyph-name="uni2082" unicode="&#x2082;" horiz-adv-x="400" vert-adv-y="1105" 
d="M39 -51l160 172q37 40 48 60.5t11 41.5v5q0 21 -15.5 35t-49.5 14q-55 0 -90 -59l-66 44q53 93 157 93q73 0 112.5 -35.5t39.5 -88.5v-6q0 -61 -81 -146l-111 -117h209v-74h-324v61z" />
    <glyph glyph-name="uni2083" unicode="&#x2083;" horiz-adv-x="400" vert-adv-y="1105" 
d="M106 239l-59 45q46 71 143 71q70 0 109.5 -32t39.5 -79v-8q0 -79 -64 -107q43 -9 65 -35.5t22 -62.5v-12q0 -63 -44.5 -101t-125.5 -38q-88 0 -157 54l41 66q59 -44 114 -44q42 0 62.5 18t20.5 45v10q0 62 -88 62h-56v75h55q38 0 53 13t15 44v6q0 53 -65 53
q-47 0 -81 -43z" />
    <glyph glyph-name="uni2084" unicode="&#x2084;" horiz-adv-x="400" vert-adv-y="1105" 
d="M243 206h84v-154h60v-72h-60v-91h-84v91h-225v60l198 307h92l-191 -295h126v154z" />
    <glyph glyph-name="uni20A9" unicode="&#x20a9;" horiz-adv-x="959" vert-adv-y="1105" 
d="M36 340v61h102l-72 294h99l64 -294h137l74 294h89l70 -294h133l63 294h95l-72 -294h105v-61h-120l-88 -366h-90l-86 366h-112l-90 -366h-94l-90 366h-117zM242 340l51 -234l58 234h-109zM613 340l56 -234l50 234h-106zM485 575l-43 -174h83z" />
    <glyph glyph-name="uni2103" unicode="&#x2103;" horiz-adv-x="833" vert-adv-y="1105" 
d="M739 131l54 -76q-96 -92 -255 -92q-133 0 -211 81t-78 236v109q0 154 78.5 235.5t210.5 81.5q141 0 238 -77l-51 -81q-81 66 -187 66q-86 0 -137.5 -59.5t-51.5 -178.5v-83q0 -119 51.5 -178.5t137.5 -59.5q124 0 201 76zM249 625q0 -39 -27.5 -66t-70.5 -27t-70.5 27
t-27.5 66t27.5 66t70.5 27t70.5 -27t27.5 -66zM107 624q0 -20 12 -33t32 -13q19 0 31 13t12 33q0 21 -12 34t-31 13q-20 0 -32 -13t-12 -34z" />
    <glyph glyph-name="uni2109" unicode="&#x2109;" horiz-adv-x="785" vert-adv-y="1105" 
d="M249 625q0 -39 -27.5 -66t-70.5 -27t-70.5 27t-27.5 66t27.5 66t70.5 27t70.5 -27t27.5 -66zM107 624q0 -20 12 -33t32 -13q19 0 31 13t12 33q0 21 -12 34t-31 13q-20 0 -32 -13t-12 -34zM299 695h446v-85h-347v-241h326v-85h-326v-310h-99v721z" />
    <glyph glyph-name="afii61289" unicode="&#x2113;" vert-adv-y="1105" 
d="M561 77l46 -63q-43 -48 -120 -48q-139 0 -139 133v417q0 190 133 190q39 0 66 -15t41 -42.5t19.5 -59t5.5 -73.5v-95q0 -221 -166 -305v-14q0 -55 46 -55q36 0 68 30zM447 495v-284q30 25 49 79.5t19 129.5v75q0 60 -6.5 91.5t-27.5 31.5t-27.5 -31.5t-6.5 -91.5z" />
    <glyph glyph-name="afii61352" unicode="&#x2116;" horiz-adv-x="900" vert-adv-y="1105" 
d="M66 695h114l170 -463q25 -72 34 -128v591h88v-721h-114l-172 463q-25 67 -32 128v-591h-88v721zM682 512q80 0 125.5 -48.5t45.5 -136.5v-44q0 -88 -45.5 -137t-125.5 -49q-79 0 -124.5 49t-45.5 137v44q0 88 45.5 136.5t124.5 48.5zM682 172q87 0 87 118v29
q0 118 -87 118q-86 0 -86 -118v-29q0 -118 86 -118zM540 -26v77h285v-77h-285z" />
    <glyph glyph-name="uni2121" unicode="&#x2121;" horiz-adv-x="1060" vert-adv-y="1105" 
d="M399 513h303v-83h-206v-134h185v-83h-185v-156h213v-83h-310v539zM289 -26h-97v638h-184v83h465v-83h-184v-638zM761 513h97v-456h194v-83h-291v539z" />
    <glyph glyph-name="trademark" unicode="&#x2122;" horiz-adv-x="725" vert-adv-y="1105" 
d="M116 369v267h-96v59h268v-59h-96v-267h-76zM322 369v326h92l84 -188h3l87 188h90v-326h-71v230h-1l-78 -166h-59l-80 172h-2v-236h-65z" />
    <glyph glyph-name="Omega" unicode="&#x2126;" vert-adv-y="1105" 
d="M455 617q-91 0 -149 -57.5t-58 -177.5v-88q0 -95 36.5 -154t95.5 -78v-88h-298v86h162q-94 80 -94 223v109q0 152 85.5 233t219.5 81t219.5 -81t85.5 -233v-109q0 -143 -94 -223h162v-86h-298v88q59 19 95.5 78t36.5 154v88q0 120 -58 177.5t-149 57.5z" />
    <glyph glyph-name="uni212B" unicode="&#x212b;" horiz-adv-x="673" vert-adv-y="1105" 
d="M434 713q0 -41 -31 -69l250 -670h-104l-76 212h-276l-76 -212h-101l248 669q-31 28 -31 70q0 39 28 67t70 28t70.5 -28t28.5 -67zM288 440l-61 -169h216l-60 169q-23 64 -48 145q-22 -73 -47 -145zM335 663q23 0 36.5 13.5t13.5 36.5t-14 37t-36 14t-35.5 -14t-13.5 -37
t13.5 -36.5t35.5 -13.5z" />
    <glyph glyph-name="onethird" unicode="&#x2153;" horiz-adv-x="920" vert-adv-y="1105" 
d="M168 -66l523 775h85l-523 -775h-85zM281 237h-88v359l-104 -61l-42 71l159 89h75v-458zM626 268l-59 45q46 71 143 71q70 0 109.5 -32t39.5 -79v-8q0 -79 -64 -107q43 -9 65 -35.5t22 -62.5v-12q0 -63 -44.5 -101t-125.5 -38q-88 0 -157 54l41 66q59 -44 114 -44
q42 0 62.5 18t20.5 45v10q0 62 -88 62h-56v75h55q38 0 53 13t15 44v6q0 53 -65 53q-47 0 -81 -43z" />
    <glyph glyph-name="twothirds" unicode="&#x2154;" horiz-adv-x="964" vert-adv-y="1105" 
d="M212 -66l523 775h85l-523 -775h-85zM670 268l-59 45q46 71 143 71q70 0 109.5 -32t39.5 -79v-8q0 -79 -64 -107q43 -9 65 -35.5t22 -62.5v-12q0 -63 -44.5 -101t-125.5 -38q-88 0 -157 54l41 66q59 -44 114 -44q42 0 62.5 18t20.5 45v10q0 62 -88 62h-56v75h55
q38 0 53 13t15 44v6q0 53 -65 53q-47 0 -81 -43zM39 298l160 172q37 40 48 60.5t11 41.5v5q0 21 -15.5 35t-49.5 14q-55 0 -90 -59l-66 44q53 93 157 93q73 0 112.5 -35.5t39.5 -88.5v-6q0 -61 -81 -146l-111 -117h209v-74h-324v61z" />
    <glyph glyph-name="oneeighth" unicode="&#x215b;" horiz-adv-x="920" vert-adv-y="1105" 
d="M168 -66l523 775h85l-523 -775h-85zM656 255v-6q0 -28 19 -44t46 -16t45.5 15.5t18.5 44.5v6q0 28 -17.5 44.5t-46.5 16.5q-28 0 -46.5 -16.5t-18.5 -44.5zM647 49v-8q0 -28 20 -44t56 -16q33 0 52.5 16t19.5 44v8q0 31 -20 47.5t-52 16.5q-33 0 -54.5 -16.5t-21.5 -47.5
zM561 37v12q0 37 22.5 66t54.5 38q-31 16 -47.5 44t-16.5 56v8q0 52 38.5 88t108.5 36q68 0 108 -36t40 -88v-8q0 -28 -16 -55.5t-48 -44.5q32 -9 54.5 -38t22.5 -66v-12q0 -56 -43.5 -92t-117.5 -36t-117 36t-43 92zM281 237h-88v359l-104 -61l-42 71l159 89h75v-458z" />
    <glyph glyph-name="threeeighths" unicode="&#x215c;" horiz-adv-x="936" vert-adv-y="1105" 
d="M183 -66l523 775h85l-523 -775h-85zM672 255v-6q0 -28 19 -44t46 -16t45.5 15.5t18.5 44.5v6q0 28 -17.5 44.5t-46.5 16.5q-28 0 -46.5 -16.5t-18.5 -44.5zM663 49v-8q0 -28 20 -44t56 -16q33 0 52.5 16t19.5 44v8q0 31 -20 47.5t-52 16.5q-33 0 -54.5 -16.5t-21.5 -47.5
zM577 37v12q0 37 22.5 66t54.5 38q-31 16 -47.5 44t-16.5 56v8q0 52 38.5 88t108.5 36q68 0 108 -36t40 -88v-8q0 -28 -16 -55.5t-48 -44.5q32 -9 54.5 -38t22.5 -66v-12q0 -56 -43.5 -92t-117.5 -36t-117 36t-43 92zM106 588l-59 45q46 71 143 71q70 0 109.5 -32t39.5 -79
v-8q0 -79 -64 -107q43 -9 65 -35.5t22 -62.5v-12q0 -63 -44.5 -101t-125.5 -38q-88 0 -157 54l41 66q59 -44 114 -44q42 0 62.5 18t20.5 45v10q0 62 -88 62h-56v75h55q38 0 53 13t15 44v6q0 53 -65 53q-47 0 -81 -43z" />
    <glyph glyph-name="fiveeighths" unicode="&#x215d;" horiz-adv-x="926" vert-adv-y="1105" 
d="M174 -66l523 775h85l-523 -775h-85zM275 379v6q0 73 -70 73q-50 0 -79 -35h-59l15 272h251v-71h-177l-5 -116q33 22 79 22q62 0 97.5 -40.5t35.5 -100.5v-10q0 -60 -42.5 -105t-122.5 -45q-93 0 -158 52l41 66q56 -43 116 -43q37 0 57.5 21t20.5 54zM662 255v-6
q0 -28 19 -44t46 -16t45.5 15.5t18.5 44.5v6q0 28 -17.5 44.5t-46.5 16.5q-28 0 -46.5 -16.5t-18.5 -44.5zM653 49v-8q0 -28 20 -44t56 -16q33 0 52.5 16t19.5 44v8q0 31 -20 47.5t-52 16.5q-33 0 -54.5 -16.5t-21.5 -47.5zM567 37v12q0 37 22.5 66t54.5 38q-31 16 -47.5 44
t-16.5 56v8q0 52 38.5 88t108.5 36q68 0 108 -36t40 -88v-8q0 -28 -16 -55.5t-48 -44.5q32 -9 54.5 -38t22.5 -66v-12q0 -56 -43.5 -92t-117.5 -36t-117 36t-43 92z" />
    <glyph glyph-name="seveneighths" unicode="&#x215e;" horiz-adv-x="841" vert-adv-y="1105" 
d="M88 -66l523 775h85l-523 -775h-85zM354 627l-180 -390h-91l181 384h-234v74h324v-68zM577 255v-6q0 -28 19 -44t46 -16t45.5 15.5t18.5 44.5v6q0 28 -17.5 44.5t-46.5 16.5q-28 0 -46.5 -16.5t-18.5 -44.5zM568 49v-8q0 -28 20 -44t56 -16q33 0 52.5 16t19.5 44v8
q0 31 -20 47.5t-52 16.5q-33 0 -54.5 -16.5t-21.5 -47.5zM482 37v12q0 37 22.5 66t54.5 38q-31 16 -47.5 44t-16.5 56v8q0 52 38.5 88t108.5 36q68 0 108 -36t40 -88v-8q0 -28 -16 -55.5t-48 -44.5q32 -9 54.5 -38t22.5 -66v-12q0 -56 -43.5 -92t-117.5 -36t-117 36t-43 92z
" />
    <glyph glyph-name="uni2160" unicode="&#x2160;" vert-adv-y="1105" 
d="M405 695h99v-721h-99v721z" />
    <glyph glyph-name="uni2161" unicode="&#x2161;" vert-adv-y="1105" 
d="M284 695h99v-721h-99v721zM527 695h99v-721h-99v721z" />
    <glyph glyph-name="uni2162" unicode="&#x2162;" vert-adv-y="1105" 
d="M169 695h99v-721h-99v721zM406 695h99v-721h-99v721zM641 695h99v-721h-99v721z" />
    <glyph glyph-name="uni2163" unicode="&#x2163;" vert-adv-y="1105" 
d="M318 695h105l158 -596l158 596h101l-213 -721h-99zM172 695h99v-721h-99v721z" />
    <glyph glyph-name="uni2164" unicode="&#x2164;" vert-adv-y="1105" 
d="M138 695h108l209 -596l214 596h102l-272 -721h-93z" />
    <glyph glyph-name="uni2165" unicode="&#x2165;" vert-adv-y="1105" 
d="M70 695h105l158 -596l158 596h101l-213 -721h-99zM639 695h99v-721h-99v721z" />
    <glyph glyph-name="uni2166" unicode="&#x2166;" vert-adv-y="1105" 
d="M26 695h101l144 -596l140 596h98l-187 -721h-104zM548 695h92v-721h-92v721zM722 695h92v-721h-92v721z" />
    <glyph glyph-name="uni2167" unicode="&#x2167;" vert-adv-y="1105" 
d="M33 695h97l96 -596l92 596h94l-135 -721h-104zM449 695h87v-721h-87v721zM606 695h87v-721h-87v721zM763 695h87v-721h-87v721z" />
    <glyph glyph-name="uni2168" unicode="&#x2168;" vert-adv-y="1105" 
d="M832 695l-185 -350l200 -371h-114l-152 308l-147 -308h-109l196 377l-181 344h111l139 -284l136 284h106zM186 695h97v-721h-97v721z" />
    <glyph glyph-name="uni2169" unicode="&#x2169;" vert-adv-y="1105" 
d="M740 695l-221 -349l233 -372h-117l-183 309l-183 -309h-112l233 376l-218 345h118l170 -284l169 284h111z" />
    <glyph glyph-name="uni2170" unicode="&#x2170;" vert-adv-y="1105" 
d="M406 521h97v-547h-97v547zM403 717h103v-106h-103v106z" />
    <glyph glyph-name="uni2171" unicode="&#x2171;" vert-adv-y="1105" 
d="M280 521h97v-547h-97v547zM277 717h103v-106h-103v106zM533 521h97v-547h-97v547zM530 717h103v-106h-103v106z" />
    <glyph glyph-name="uni2172" unicode="&#x2172;" vert-adv-y="1105" 
d="M178 521h97v-547h-97v547zM175 717h103v-106h-103v106zM407 521h97v-547h-97v547zM404 717h103v-106h-103v106zM635 521h97v-547h-97v547zM632 717h103v-106h-103v106z" />
    <glyph glyph-name="uni2173" unicode="&#x2173;" vert-adv-y="1105" 
d="M561 68h2l108 453h100l-148 -547h-124l-150 547h103zM212 521h97v-547h-97v547zM209 717h103v-106h-103v106z" />
    <glyph glyph-name="uni2174" unicode="&#x2174;" vert-adv-y="1105" 
d="M459 65h2l143 456h102l-185 -547h-124l-187 547h105z" />
    <glyph glyph-name="uni2175" unicode="&#x2175;" vert-adv-y="1105" 
d="M351 68h2l108 453h100l-148 -547h-124l-150 547h103zM601 521h97v-547h-97v547zM598 717h103v-106h-103v106z" />
    <glyph glyph-name="uni2176" unicode="&#x2176;" vert-adv-y="1105" 
d="M283 68h2l102 453h98l-142 -547h-120l-145 547h101zM528 521h95v-547h-95v547zM525 717h101v-106h-101v106zM710 521h95v-547h-95v547zM707 717h101v-106h-101v106z" />
    <glyph glyph-name="uni2177" unicode="&#x2177;" vert-adv-y="1105" 
d="M241 78h2l94 443h96l-136 -547h-112l-139 547h99zM464 521h89v-547h-89v547zM461 717h95v-106h-95v106zM616 521h89v-547h-89v547zM613 717h95v-106h-95v106zM768 521h89v-547h-89v547zM765 717h95v-106h-95v106z" />
    <glyph glyph-name="uni2178" unicode="&#x2178;" vert-adv-y="1105" 
d="M791 521l-153 -263l160 -284h-108l-117 220l-115 -220h-105l163 284l-154 263h108l111 -202l108 202h102zM212 521h97v-547h-97v547zM209 717h103v-106h-103v106z" />
    <glyph glyph-name="uni2179" unicode="&#x2179;" vert-adv-y="1105" 
d="M690 521l-173 -263l180 -284h-117l-127 220l-130 -220h-111l183 284l-174 263h117l121 -202l123 202h108z" />
    <glyph glyph-name="arrowleft" unicode="&#x2190;" vert-adv-y="1105" 
d="M805 373v-59h-553l75 -126l-15 -17l-208 173l208 173l15 -17l-75 -127h553z" />
    <glyph glyph-name="arrowup" unicode="&#x2191;" vert-adv-y="1105" 
d="M484 0h-58v553l-127 -75l-17 15l173 208l173 -208l-17 -15l-127 75v-553z" />
    <glyph glyph-name="arrowright" unicode="&#x2192;" vert-adv-y="1105" 
d="M104 314v59h553l-75 127l15 17l208 -173l-208 -173l-15 17l75 126h-553z" />
    <glyph glyph-name="arrowdown" unicode="&#x2193;" vert-adv-y="1105" 
d="M426 687h58v-552l127 74l17 -15l-173 -208l-173 208l17 15l127 -74v552z" />
    <glyph glyph-name="arrowboth" unicode="&#x2194;" vert-adv-y="1105" 
d="M207 314l75 -126l-15 -17l-208 173l208 173l15 -17l-75 -127h496l-75 127l15 17l208 -173l-208 -173l-15 17l75 126h-496z" />
    <glyph glyph-name="arrowupdn" unicode="&#x2195;" vert-adv-y="1105" 
d="M611 478l-127 75v-418l127 74l17 -15l-173 -208l-173 208l17 15l127 -74v418l-127 -75l-17 15l173 208l173 -208z" />
    <glyph glyph-name="uni2196" unicode="&#x2196;" vert-adv-y="1105" 
d="M808 31l-41 -42l-582 581l-36 -142l-23 -1l-25 269l269 -25l-1 -23l-142 -36z" />
    <glyph glyph-name="uni2197" unicode="&#x2197;" vert-adv-y="1105" 
d="M142 -11l-41 42l581 581l-142 36l-1 23l269 25l-25 -269l-23 1l-36 142z" />
    <glyph glyph-name="uni2198" unicode="&#x2198;" vert-adv-y="1105" 
d="M101 657l41 41l582 -581l37 142l23 2l25 -270l-270 25l2 23l142 37z" />
    <glyph glyph-name="uni2199" unicode="&#x2199;" vert-adv-y="1105" 
d="M768 698l41 -41l-582 -581l142 -37l2 -23l-270 -25l25 270l23 -2l37 -142z" />
    <glyph glyph-name="uni21B0" unicode="&#x21b0;" horiz-adv-x="940" vert-adv-y="1105" 
 />
    <glyph glyph-name="uni21B1" unicode="&#x21b1;" horiz-adv-x="940" vert-adv-y="1105" 
 />
    <glyph glyph-name="uni21B2" unicode="&#x21b2;" horiz-adv-x="940" vert-adv-y="1105" 
 />
    <glyph glyph-name="uni21B3" unicode="&#x21b3;" horiz-adv-x="940" vert-adv-y="1105" 
 />
    <glyph glyph-name="uni21B4" unicode="&#x21b4;" horiz-adv-x="940" vert-adv-y="1105" 
 />
    <glyph glyph-name="uni21BC" unicode="&#x21bc;" horiz-adv-x="940" vert-adv-y="1105" 
 />
    <glyph glyph-name="uni21C0" unicode="&#x21c0;" horiz-adv-x="940" vert-adv-y="1105" 
 />
    <glyph glyph-name="uni21C4" unicode="&#x21c4;" horiz-adv-x="940" vert-adv-y="1105" 
 />
    <glyph glyph-name="uni21C5" unicode="&#x21c5;" horiz-adv-x="940" vert-adv-y="1105" 
 />
    <glyph glyph-name="uni21CD" unicode="&#x21cd;" horiz-adv-x="940" vert-adv-y="1105" 
 />
    <glyph glyph-name="uni21CF" unicode="&#x21cf;" horiz-adv-x="940" vert-adv-y="1105" 
 />
    <glyph glyph-name="arrowdblleft" unicode="&#x21d0;" horiz-adv-x="940" vert-adv-y="1105" 
 />
    <glyph glyph-name="arrowdblup" unicode="&#x21d1;" horiz-adv-x="940" vert-adv-y="1105" 
 />
    <glyph glyph-name="arrowdblright" unicode="&#x21d2;" vert-adv-y="1105" 
d="M646 564l264 -265l-264 -266l-38 38l112 111h-720v52h771l66 65l-66 66h-771v52h719l-111 110z" />
    <glyph glyph-name="arrowdbldown" unicode="&#x21d3;" horiz-adv-x="940" vert-adv-y="1105" 
 />
    <glyph glyph-name="arrowdblboth" unicode="&#x21d4;" vert-adv-y="1105" 
d="M772 234l66 65l-66 66h-634l-66 -66l66 -65h634zM647 564l264 -265l-264 -266l-38 38l112 111h-532l112 -111l-38 -38l-264 266l264 265l38 -37l-111 -110h530l-111 110z" />
    <glyph glyph-name="uni21E0" unicode="&#x21e0;" horiz-adv-x="940" vert-adv-y="1105" 
 />
    <glyph glyph-name="uni21E1" unicode="&#x21e1;" horiz-adv-x="940" vert-adv-y="1105" 
 />
    <glyph glyph-name="uni21E2" unicode="&#x21e2;" horiz-adv-x="940" vert-adv-y="1105" 
 />
    <glyph glyph-name="uni21E3" unicode="&#x21e3;" horiz-adv-x="940" vert-adv-y="1105" 
 />
    <glyph glyph-name="uni21E6" unicode="&#x21e6;" horiz-adv-x="940" vert-adv-y="1105" 
 />
    <glyph glyph-name="uni21E7" unicode="&#x21e7;" horiz-adv-x="940" vert-adv-y="1105" 
 />
    <glyph glyph-name="uni21E8" unicode="&#x21e8;" horiz-adv-x="940" vert-adv-y="1105" 
 />
    <glyph glyph-name="uni21E9" unicode="&#x21e9;" horiz-adv-x="940" vert-adv-y="1105" 
 />
    <glyph glyph-name="universal" unicode="&#x2200;" vert-adv-y="1105" 
d="M407 -26l-269 721h104l76 -212h276l76 212h101l-268 -721h-96zM503 229l61 169h-216l60 -169q23 -64 48 -145q22 73 47 145z" />
    <glyph glyph-name="partialdiff" unicode="&#x2202;" horiz-adv-x="532" vert-adv-y="1105" 
d="M234 63q63 0 108 62.5t56 150.5q-14 39 -52 67t-87 28q-59 0 -100.5 -49t-41.5 -121q0 -63 32.5 -100.5t84.5 -37.5zM86 611l-29 62q82 54 174 54q111 0 188.5 -95t77.5 -260q0 -182 -79 -282.5t-193 -100.5q-96 0 -148 62t-52 148q0 102 63 173.5t156 71.5
q57 0 100.5 -26.5t62.5 -60.5h1q1 10 1 32q0 123 -54.5 192.5t-130.5 69.5q-73 0 -138 -40z" />
    <glyph glyph-name="existential" unicode="&#x2203;" vert-adv-y="1105" 
d="M234 695h449v-721h-456v85h357v242h-329v85h329v224h-350v85z" />
    <glyph glyph-name="Delta" unicode="&#x2206;" horiz-adv-x="940" vert-adv-y="1105" 
 />
    <glyph glyph-name="gradient" unicode="&#x2207;" vert-adv-y="1105" 
d="M61 599h788l-394 -624zM455 87l282 453h-565z" />
    <glyph glyph-name="element" unicode="&#x2208;" vert-adv-y="1105" 
d="M795 355v-73h-602q22 -142 202 -142h402v-73h-398q-142 0 -214.5 70.5t-72.5 181.5q0 105 70.5 172t212.5 67h402v-73h-402q-91 0 -140.5 -35.5t-60.5 -94.5h601z" />
    <glyph glyph-name="notelement" unicode="&#x2209;" horiz-adv-x="940" vert-adv-y="1105" 
 />
    <glyph glyph-name="suchthat" unicode="&#x220b;" vert-adv-y="1105" 
d="M114 282v73h600q-27 129 -199 129h-403v74h403q141 0 211.5 -67t70.5 -172q0 -110 -73 -181t-214 -71h-398v74h403q92 0 141 38t59 103h-601z" />
    <glyph glyph-name="uni220C" unicode="&#x220c;" horiz-adv-x="940" vert-adv-y="1105" 
 />
    <glyph glyph-name="product" unicode="&#x220f;" horiz-adv-x="653" vert-adv-y="1105" 
d="M629 610h-120v-652h-99v652h-167v-652h-99v652h-120v85h605v-85z" />
    <glyph glyph-name="summation" unicode="&#x2211;" horiz-adv-x="571" vert-adv-y="1105" 
d="M70 695h454v-85h-330l201 -278l-204 -273h340v-85h-461v70l213 287l-213 297v67z" />
    <glyph glyph-name="uni2213" unicode="&#x2213;" horiz-adv-x="940" vert-adv-y="1105" 
 />
    <glyph glyph-name="radical" unicode="&#x221a;" horiz-adv-x="562" vert-adv-y="1105" 
d="M580 800l-230 -922h-66l-159 427l-75 -31l-19 48l140 58l141 -407h2l198 827h68z" />
    <glyph glyph-name="proportional" unicode="&#x221d;" vert-adv-y="1105" 
d="M301 194q91 0 156 121q-68 122 -156 122q-53 0 -85.5 -34t-32.5 -87q0 -56 31 -89t87 -33zM795 460l-34 -53q-48 32 -82 32q-49 0 -84.5 -31t-69.5 -93q33 -62 69 -93t85 -31q34 0 76 22l27 -56q-53 -31 -103 -31q-110 0 -189 125q-34 -55 -78.5 -89.5t-113.5 -34.5
q-74 0 -129 50t-55 139q0 86 54.5 136.5t128.5 50.5q117 0 193 -125q76 125 189 125q57 0 116 -43z" />
    <glyph glyph-name="infinity" unicode="&#x221e;" horiz-adv-x="610" vert-adv-y="1105" 
d="M154 222q18 0 35 8t26 16t27 28t26 28q-2 2 -21 24.5t-27 30t-26.5 17t-37.5 9.5q-38 0 -58.5 -22t-20.5 -59q0 -36 20.5 -58t56.5 -22zM458 222q34 0 55 22t21 58q0 81 -77 81q-25 0 -46 -17.5t-50 -52.5q-5 -7 -8 -10q3 -3 19 -21t22 -24t19 -17t23.5 -15t21.5 -4z
M454 158q-31 0 -60 17.5t-43.5 33.5t-40.5 49q-39 -50 -74 -75t-87 -25q-65 0 -102.5 38.5t-37.5 105.5q0 63 40.5 103.5t107.5 40.5q28 0 49 -6t42.5 -24.5t29.5 -27.5t34 -40q7 8 23.5 27.5t26 28t25.5 20.5t34 17t41 5q64 0 101.5 -38.5t37.5 -105.5q0 -63 -40 -103.5
t-107 -40.5z" />
    <glyph glyph-name="orthogonal" unicode="&#x221f;" horiz-adv-x="940" vert-adv-y="1105" 
 />
    <glyph glyph-name="angle" unicode="&#x2220;" vert-adv-y="1105" 
d="M760 70v-70h-611v49l471 549l56 -47l-417 -481h501z" />
    <glyph glyph-name="uni2222" unicode="&#x2222;" horiz-adv-x="940" vert-adv-y="1105" 
 />
    <glyph glyph-name="uni2225" unicode="&#x2225;" horiz-adv-x="940" vert-adv-y="1105" 
 />
    <glyph glyph-name="uni2226" unicode="&#x2226;" horiz-adv-x="940" vert-adv-y="1105" 
 />
    <glyph glyph-name="logicaland" unicode="&#x2227;" vert-adv-y="1105" 
d="M482 591l294 -568l-57 -28l-264 510l-265 -510l-57 28l294 568h55z" />
    <glyph glyph-name="logicalor" unicode="&#x2228;" vert-adv-y="1105" 
d="M719 599l57 -28l-294 -568h-55l-294 568l57 28l265 -511z" />
    <glyph glyph-name="intersection" unicode="&#x2229;" vert-adv-y="1105" 
d="M455 636q110 0 177.5 -72.5t67.5 -214.5v-398h-78v403q0 105 -45 157.5t-122 52.5q-78 0 -123 -52t-45 -158v-403h-78v398q0 142 67.5 214.5t178.5 72.5z" />
    <glyph glyph-name="union" unicode="&#x222a;" vert-adv-y="1105" 
d="M208 636h78v-403q0 -105 46 -156t119 -51q78 0 125 51t47 156v403h78v-398q0 -141 -71.5 -214t-181.5 -73q-105 0 -172.5 70.5t-67.5 211.5v403z" />
    <glyph glyph-name="integral" unicode="&#x222b;" horiz-adv-x="318" vert-adv-y="1105" 
d="M308 774l-11 -59q-18 4 -31 4q-30 0 -46 -22q-27 -36 -27 -156q0 -72 6 -232t6 -237q0 -131 -43 -188q-35 -50 -97 -50q-39 0 -55 11l11 59q25 -5 36 -5q26 0 45 20q29 40 29 153q0 77 -6 239.5t-6 235.5q0 140 54 197q33 37 90 37q29 0 45 -7z" />
    <glyph glyph-name="uni222C" unicode="&#x222c;" horiz-adv-x="555" vert-adv-y="1105" 
d="M537 774l-12 -59q-18 4 -30 4q-30 0 -46 -22q-28 -35 -28 -156q0 -72 6 -232t6 -237q0 -133 -43 -188q-33 -50 -97 -50q-37 0 -55 11l12 59q22 -5 36 -5q27 0 44 20q30 39 30 153q0 77 -6.5 239.5t-6.5 235.5q0 139 54 197q34 37 90 37q29 0 46 -7zM308 774l-11 -59
q-18 4 -31 4q-30 0 -46 -22q-27 -36 -27 -156q0 -72 6 -232t6 -237q0 -131 -43 -188q-35 -50 -97 -50q-39 0 -55 11l11 59q25 -5 36 -5q26 0 45 20q29 40 29 153q0 77 -6 239.5t-6 235.5q0 140 54 197q33 37 90 37q29 0 45 -7z" />
    <glyph glyph-name="uni222E" unicode="&#x222e;" vert-adv-y="1105" 
d="M430 410q-70 -26 -78 -111q-4 -43 14 -73t52 -40q4 52 6 114q1 57 6 110zM566 299q4 43 -17 75t-59 40q-4 -52 -6 -114q-2 -67 -7 -115q37 9 61 39.5t28 74.5zM664 649l-47 -21q-18 40 -50 40q-22 0 -42 -59.5t-32 -164.5q57 -6 92 -44.5t30 -100.5q-5 -60 -45 -98
t-96 -46q-14 -110 -43 -181q-35 -86 -93 -86q-61 0 -92 59l44 26q20 -41 51 -41q23 0 43.5 60t30.5 164q-53 9 -85 46.5t-27 96.5q5 57 41.5 94t88.5 48q14 112 44 185q35 86 93 86q62 0 94 -63z" />
    <glyph glyph-name="therefore" unicode="&#x2234;" horiz-adv-x="610" vert-adv-y="1105" 
d="M188 133q0 -28 -19.5 -47.5t-47.5 -19.5q-27 0 -47 19.5t-20 47.5q0 26 20 46t47 20t47 -19.5t20 -46.5zM556 133q0 -27 -20 -47t-47 -20q-28 0 -47.5 19.5t-19.5 47.5q0 27 19.5 46.5t47.5 19.5q26 0 46.5 -20t20.5 -46zM366 505q0 -27 -19.5 -47.5t-46.5 -20.5
t-47.5 20.5t-20.5 47.5t20.5 46.5t47.5 19.5t46.5 -19.5t19.5 -46.5z" />
    <glyph glyph-name="uni2235" unicode="&#x2235;" horiz-adv-x="586" vert-adv-y="1105" 
d="M408 506q0 26 20 45.5t46 19.5q28 0 46.5 -19t18.5 -46t-18.5 -46t-46.5 -19q-27 0 -46.5 19t-19.5 46zM44 506q0 26 19.5 45.5t45.5 19.5q28 0 47 -19t19 -46t-19 -46t-47 -19q-26 0 -45.5 19t-19.5 46zM227 126q0 28 19 47t46 19q28 0 47 -19t19 -47q0 -26 -19.5 -45.5
t-46.5 -19.5t-46 19.5t-19 45.5z" />
    <glyph glyph-name="uni2236" unicode="&#x2236;" vert-adv-y="1105" 
d="M364 549h181l-91 -95zM454 167l91 -94h-181z" />
    <glyph glyph-name="uni2237" unicode="&#x2237;" horiz-adv-x="940" vert-adv-y="1105" 
 />
    <glyph glyph-name="uni223D" unicode="&#x223d;" vert-adv-y="1105" 
d="M829 316q0 -78 -52.5 -134t-130.5 -56q-61 0 -122 45l32 52q44 -32 90 -32q51 0 83.5 35.5t32.5 89.5q0 49 -32.5 86t-82.5 37q-51 0 -87.5 -32.5t-72.5 -100.5q-11 -22 -15.5 -30t-19 -31.5t-25 -35t-30 -30.5t-38 -28t-44 -16.5t-53.5 -7.5q-73 0 -127 50t-54 139
q0 86 53.5 136.5t126.5 50.5q60 0 125 -42l-33 -53q-48 29 -85 29q-54 0 -86.5 -33.5t-32.5 -87.5q0 -56 31.5 -89t86.5 -33q27 0 52.5 12t41.5 25.5t34.5 40t25 39t20.5 38.5q77 154 204 154q78 0 131 -56t53 -131z" />
    <glyph glyph-name="uni2243" unicode="&#x2243;" horiz-adv-x="940" vert-adv-y="1105" 
 />
    <glyph glyph-name="congruent" unicode="&#x2245;" horiz-adv-x="940" vert-adv-y="1105" 
 />
    <glyph glyph-name="approxequal" unicode="&#x2248;" horiz-adv-x="940" vert-adv-y="1105" 
 />
    <glyph glyph-name="uni2250" unicode="&#x2250;" horiz-adv-x="940" vert-adv-y="1105" 
 />
    <glyph glyph-name="uni2251" unicode="&#x2251;" horiz-adv-x="940" vert-adv-y="1105" 
 />
    <glyph glyph-name="uni2252" unicode="&#x2252;" horiz-adv-x="610" vert-adv-y="1105" 
d="M372 86q0 26 19 44.5t44 18.5t43.5 -18.5t18.5 -44.5t-18.5 -44.5t-43.5 -18.5t-44 18.5t-19 44.5zM110 538q0 25 18.5 44t43.5 19q26 0 44.5 -18.5t18.5 -44.5q0 -25 -18.5 -43.5t-44.5 -18.5q-25 0 -43.5 18.5t-18.5 43.5zM45 363v62h519v-62h-519zM45 201v63h519v-63
h-519z" />
    <glyph glyph-name="uni2253" unicode="&#x2253;" horiz-adv-x="940" vert-adv-y="1105" 
 />
    <glyph glyph-name="uni225A" unicode="&#x225a;" horiz-adv-x="940" vert-adv-y="1105" 
 />
    <glyph glyph-name="notequal" unicode="&#x2260;" horiz-adv-x="610" vert-adv-y="1105" 
d="M74 383v85h281l81 124h80l-81 -124h101v-85h-157l-82 -126h239v-85h-295l-79 -122h-80l79 122h-87v85h143l82 126h-225z" />
    <glyph glyph-name="equivalence" unicode="&#x2261;" horiz-adv-x="610" vert-adv-y="1105" 
d="M564 284h-519v62h519v-62zM564 435h-519v61h519v-61zM564 133h-519v61h519v-61z" />
    <glyph glyph-name="uni2262" unicode="&#x2262;" horiz-adv-x="940" vert-adv-y="1105" 
 />
    <glyph glyph-name="lessequal" unicode="&#x2264;" horiz-adv-x="610" vert-adv-y="1105" 
d="M541 244v-93l-475 209v85l475 208v-91l-371 -158v-1zM541 38h-472v81h472v-81z" />
    <glyph glyph-name="greaterequal" unicode="&#x2265;" horiz-adv-x="610" vert-adv-y="1105" 
d="M66 151v93l371 159v1l-371 158v91l475 -208v-85zM538 38h-472v81h472v-81z" />
    <glyph glyph-name="uni2266" unicode="&#x2266;" horiz-adv-x="940" vert-adv-y="1105" 
 />
    <glyph glyph-name="uni2267" unicode="&#x2267;" horiz-adv-x="940" vert-adv-y="1105" 
 />
    <glyph glyph-name="uni226E" unicode="&#x226e;" horiz-adv-x="940" vert-adv-y="1105" 
 />
    <glyph glyph-name="uni226F" unicode="&#x226f;" horiz-adv-x="940" vert-adv-y="1105" 
 />
    <glyph glyph-name="uni2270" unicode="&#x2270;" horiz-adv-x="940" vert-adv-y="1105" 
 />
    <glyph glyph-name="uni2271" unicode="&#x2271;" horiz-adv-x="940" vert-adv-y="1105" 
 />
    <glyph glyph-name="uni2272" unicode="&#x2272;" horiz-adv-x="940" vert-adv-y="1105" 
 />
    <glyph glyph-name="uni2273" unicode="&#x2273;" horiz-adv-x="940" vert-adv-y="1105" 
 />
    <glyph glyph-name="uni2276" unicode="&#x2276;" horiz-adv-x="940" vert-adv-y="1105" 
 />
    <glyph glyph-name="uni2277" unicode="&#x2277;" horiz-adv-x="940" vert-adv-y="1105" 
 />
    <glyph glyph-name="uni2279" unicode="&#x2279;" horiz-adv-x="940" vert-adv-y="1105" 
 />
    <glyph glyph-name="uni227A" unicode="&#x227a;" horiz-adv-x="940" vert-adv-y="1105" 
 />
    <glyph glyph-name="uni227B" unicode="&#x227b;" horiz-adv-x="940" vert-adv-y="1105" 
 />
    <glyph glyph-name="uni2280" unicode="&#x2280;" horiz-adv-x="940" vert-adv-y="1105" 
 />
    <glyph glyph-name="uni2281" unicode="&#x2281;" horiz-adv-x="940" vert-adv-y="1105" 
 />
    <glyph glyph-name="propersubset" unicode="&#x2282;" vert-adv-y="1105" 
d="M797 555v-74h-402q-106 0 -155 -46t-49 -119q0 -79 49.5 -125.5t154.5 -46.5h402v-74h-398q-142 0 -214.5 69.5t-72.5 179.5q0 104 70.5 170t212.5 66h402z" />
    <glyph glyph-name="propersuperset" unicode="&#x2283;" vert-adv-y="1105" 
d="M112 481v74h403q142 0 212 -65.5t70 -170.5q0 -110 -72.5 -179.5t-214.5 -69.5h-398v74h403q104 0 153.5 46.5t49.5 125.5q0 73 -48.5 119t-154.5 46h-403z" />
    <glyph glyph-name="notsubset" unicode="&#x2284;" horiz-adv-x="940" vert-adv-y="1105" 
 />
    <glyph glyph-name="uni2285" unicode="&#x2285;" horiz-adv-x="940" vert-adv-y="1105" 
 />
    <glyph glyph-name="reflexsubset" unicode="&#x2286;" vert-adv-y="1105" 
d="M795 63v-74h-647v74h647zM797 611v-74h-402q-106 0 -155 -42t-49 -111q0 -75 49.5 -117.5t154.5 -42.5h402v-74h-398q-142 0 -214.5 65.5t-72.5 171.5q0 100 70.5 162t212.5 62h402z" />
    <glyph glyph-name="reflexsuperset" unicode="&#x2287;" vert-adv-y="1105" 
d="M112 537v74h403q142 0 212 -62t70 -162q0 -106 -72.5 -171.5t-214.5 -65.5h-398v74h403q105 0 154 42.5t49 117.5q0 69 -48.5 111t-154.5 42h-403zM114 -11v74h647v-74h-647z" />
    <glyph glyph-name="uni228A" unicode="&#x228a;" horiz-adv-x="940" vert-adv-y="1105" 
 />
    <glyph glyph-name="uni228B" unicode="&#x228b;" horiz-adv-x="940" vert-adv-y="1105" 
 />
    <glyph glyph-name="circleplus" unicode="&#x2295;" horiz-adv-x="940" vert-adv-y="1105" 
 />
    <glyph glyph-name="uni2296" unicode="&#x2296;" horiz-adv-x="940" vert-adv-y="1105" 
 />
    <glyph glyph-name="circlemultiply" unicode="&#x2297;" horiz-adv-x="940" vert-adv-y="1105" 
 />
    <glyph glyph-name="uni22A3" unicode="&#x22a3;" horiz-adv-x="940" vert-adv-y="1105" 
 />
    <glyph glyph-name="uni22A4" unicode="&#x22a4;" horiz-adv-x="940" vert-adv-y="1105" 
 />
    <glyph glyph-name="perpendicular" unicode="&#x22a5;" vert-adv-y="1105" 
d="M774 71v-71h-638v71h282v504h73v-504h283z" />
    <glyph glyph-name="uni22BB" unicode="&#x22bb;" horiz-adv-x="940" vert-adv-y="1105" 
 />
    <glyph glyph-name="uni22BC" unicode="&#x22bc;" horiz-adv-x="940" vert-adv-y="1105" 
 />
    <glyph glyph-name="uni22CE" unicode="&#x22ce;" horiz-adv-x="940" vert-adv-y="1105" 
 />
    <glyph glyph-name="uni22CF" unicode="&#x22cf;" horiz-adv-x="940" vert-adv-y="1105" 
 />
    <glyph glyph-name="uni22DA" unicode="&#x22da;" horiz-adv-x="940" vert-adv-y="1105" 
 />
    <glyph glyph-name="uni22DB" unicode="&#x22db;" horiz-adv-x="940" vert-adv-y="1105" 
 />
    <glyph glyph-name="uni22EE" unicode="&#x22ee;" horiz-adv-x="940" vert-adv-y="910" 
 />
    <glyph glyph-name="uni2306" unicode="&#x2306;" horiz-adv-x="940" vert-adv-y="1105" 
 />
    <glyph glyph-name="uni2312" unicode="&#x2312;" vert-adv-y="1105" 
d="M718 574h-72q-60 110 -190 110q-67 0 -116 -30.5t-77 -79.5h-72q86 162 263 162q176 0 264 -162z" />
    <glyph glyph-name="uni2314" unicode="&#x2314;" horiz-adv-x="940" vert-adv-y="1105" 
 />
    <glyph glyph-name="uni2460" unicode="&#x2460;" vert-adv-y="1105" 
d="M518 41h-86v429l-120 -70l-42 69l174 99h74v-527zM828 306q0 164 -105.5 270.5t-267.5 106.5t-267.5 -106.5t-105.5 -270.5t105.5 -270.5t267.5 -106.5t267.5 106.5t105.5 270.5zM892 306q0 -190 -124 -314t-313 -124q-190 0 -313.5 124t-123.5 314q0 189 124 313.5
t313 124.5q188 0 312.5 -125t124.5 -313z" />
    <glyph glyph-name="uni2461" unicode="&#x2461;" vert-adv-y="1105" 
d="M828 306q0 164 -105.5 270.5t-267.5 106.5t-267.5 -106.5t-105.5 -270.5t105.5 -270.5t267.5 -106.5t267.5 106.5t105.5 270.5zM892 306q0 -190 -124 -314t-313 -124q-190 0 -313.5 124t-123.5 314q0 189 124 313.5t313 124.5q188 0 312.5 -125t124.5 -313zM279 116
l197 203q41 42 52.5 67.5t11.5 51.5v6q0 26 -22 42.5t-61 16.5q-69 0 -111 -76l-65 43q61 109 175 109q86 0 128 -38.5t42 -97.5v-7q0 -76 -78 -154l-163 -164h259v-73h-365v71z" />
    <glyph glyph-name="uni2462" unicode="&#x2462;" vert-adv-y="1105" 
d="M828 306q0 164 -105.5 270.5t-267.5 106.5t-267.5 -106.5t-105.5 -270.5t105.5 -270.5t267.5 -106.5t267.5 106.5t105.5 270.5zM892 306q0 -190 -124 -314t-313 -124q-190 0 -313.5 124t-123.5 314q0 189 124 313.5t313 124.5q188 0 312.5 -125t124.5 -313zM351 457
l-60 45q58 77 160 77q74 0 119 -36.5t45 -95.5v-7q0 -88 -80 -119q51 -9 78.5 -40.5t27.5 -77.5v-9q0 -67 -49.5 -112t-141.5 -45q-100 0 -174 59l43 66q68 -49 131 -49q50 0 77 21t27 59v7q0 45 -27 64t-79 19h-65v74h59q88 0 88 80v5q0 30 -22 46t-57 16q-59 0 -100 -47z
" />
    <glyph glyph-name="uni2463" unicode="&#x2463;" vert-adv-y="1105" 
d="M828 306q0 164 -105.5 270.5t-267.5 106.5t-267.5 -106.5t-105.5 -270.5t105.5 -270.5t267.5 -106.5t267.5 106.5t105.5 270.5zM892 306q0 -190 -124 -314t-313 -124q-190 0 -313.5 124t-123.5 314q0 189 124 313.5t313 124.5q188 0 312.5 -125t124.5 -313zM487 387h84
v-159h72v-71h-72v-111h-84v111h-259v59l239 357h93l-232 -345h159v159z" />
    <glyph glyph-name="uni2464" unicode="&#x2464;" vert-adv-y="1105" 
d="M828 306q0 164 -105.5 270.5t-267.5 106.5t-267.5 -106.5t-105.5 -270.5t105.5 -270.5t267.5 -106.5t267.5 106.5t105.5 270.5zM892 306q0 -190 -124 -314t-313 -124q-190 0 -313.5 124t-123.5 314q0 189 124 313.5t313 124.5q188 0 312.5 -125t124.5 -313zM563 205v8
q0 91 -97 91q-59 0 -103 -42h-59l18 302h293v-72h-217l-7 -147q43 29 102 29q73 0 115 -45.5t42 -113.5v-11q0 -68 -47 -121t-143 -53q-106 0 -181 59l42 68q63 -50 142 -50q46 0 73 29t27 69z" />
    <glyph glyph-name="uni2465" unicode="&#x2465;" vert-adv-y="1105" 
d="M828 306q0 164 -105.5 270.5t-267.5 106.5t-267.5 -106.5t-105.5 -270.5t105.5 -270.5t267.5 -106.5t267.5 106.5t105.5 270.5zM892 306q0 -190 -124 -314t-313 -124q-190 0 -313.5 124t-123.5 314q0 189 124 313.5t313 124.5q188 0 312.5 -125t124.5 -313zM613 542
l-30 -75q-54 31 -112 31q-50 0 -82 -31.5t-36 -124.5q42 51 117 51q73 0 120.5 -46t47.5 -122v-16q0 -75 -50 -124t-134 -49q-93 0 -139.5 57t-46.5 162v33q0 85 15.5 143.5t45.5 89.5t65 44t82 13q79 0 137 -36zM354 222v-10q0 -46 25.5 -71.5t71.5 -25.5q49 0 75 26.5
t26 73.5v8q0 93 -98 93q-48 0 -74 -26.5t-26 -67.5z" />
    <glyph glyph-name="uni2466" unicode="&#x2466;" vert-adv-y="1105" 
d="M828 306q0 164 -105.5 270.5t-267.5 106.5t-267.5 -106.5t-105.5 -270.5t105.5 -270.5t267.5 -106.5t267.5 106.5t105.5 270.5zM892 306q0 -190 -124 -314t-313 -124q-190 0 -313.5 124t-123.5 314q0 189 124 313.5t313 124.5q188 0 312.5 -125t124.5 -313zM650 489
l-204 -460h-93l205 453h-279v73h371v-66z" />
    <glyph glyph-name="uni2467" unicode="&#x2467;" vert-adv-y="1105" 
d="M828 306q0 164 -105.5 270.5t-267.5 106.5t-267.5 -106.5t-105.5 -270.5t105.5 -270.5t267.5 -106.5t267.5 106.5t105.5 270.5zM892 306q0 -190 -124 -314t-313 -124q-190 0 -313.5 124t-123.5 314q0 189 124 313.5t313 124.5q188 0 312.5 -125t124.5 -313zM377 426v-8
q0 -34 22.5 -52t54.5 -18q34 0 56 18t22 52v8q0 34 -21 53.5t-57 19.5q-34 0 -55.5 -19.5t-21.5 -53.5zM363 191v-7q0 -35 25 -54.5t67 -19.5t66 19.5t24 54.5v7q0 39 -25 59t-65 20t-66 -20t-26 -59zM274 179v12q0 42 25.5 75.5t61.5 44.5q-36 17 -54.5 49t-18.5 63v9
q0 61 43 101.5t123 40.5q79 0 122.5 -41t43.5 -101v-9q0 -31 -18 -61.5t-54 -50.5q37 -11 61.5 -44t24.5 -76v-12q0 -65 -47.5 -106t-132.5 -41t-132.5 41t-47.5 106z" />
    <glyph glyph-name="uni2468" unicode="&#x2468;" vert-adv-y="1105" 
d="M828 306q0 164 -105.5 270.5t-267.5 106.5t-267.5 -106.5t-105.5 -270.5t105.5 -270.5t267.5 -106.5t267.5 106.5t105.5 270.5zM892 306q0 -190 -124 -314t-313 -124q-190 0 -313.5 124t-123.5 314q0 189 124 313.5t313 124.5q188 0 312.5 -125t124.5 -313zM301 73l33 74
q54 -32 113 -32q22 0 39 5t36 19t29.5 46.5t10.5 81.5q-14 -22 -48.5 -35.5t-71.5 -13.5q-73 0 -119 46.5t-46 123.5v15q0 76 50 125t134 49q186 0 186 -215v-31q0 -165 -51.5 -230.5t-155.5 -65.5q-78 0 -139 38zM562 389v11q0 46 -25.5 72t-71.5 26q-49 0 -75.5 -26
t-26.5 -71v-9q0 -47 26 -72t73 -25t73.5 27t26.5 67z" />
    <glyph glyph-name="uni2469" unicode="&#x2469;" vert-adv-y="1105" 
d="M828 306q0 164 -105.5 270.5t-267.5 106.5t-267.5 -106.5t-105.5 -270.5t105.5 -270.5t267.5 -106.5t267.5 106.5t105.5 270.5zM892 306q0 -190 -124 -314t-313 -124q-190 0 -313.5 124t-123.5 314q0 189 124 313.5t313 124.5q188 0 312.5 -125t124.5 -313zM369 41h-84
v428l-103 -66l-42 69l157 95h72v-526zM726 346v-82q0 -115 -35.5 -173t-114.5 -58q-151 0 -151 231v82q0 230 151 230q150 0 150 -230zM642 263v83q0 89 -16.5 120t-49.5 31q-32 0 -49.5 -31.5t-17.5 -119.5v-83q0 -88 17.5 -119.5t49.5 -31.5q33 0 49.5 30.5t16.5 120.5z
" />
    <glyph glyph-name="uni246A" unicode="&#x246a;" vert-adv-y="1105" 
d="M828 306q0 164 -105.5 270.5t-267.5 106.5t-267.5 -106.5t-105.5 -270.5t105.5 -270.5t267.5 -106.5t267.5 106.5t105.5 270.5zM892 306q0 -190 -124 -314t-313 -124q-190 0 -313.5 124t-123.5 314q0 189 124 313.5t313 124.5q188 0 312.5 -125t124.5 -313zM400 41h-84
v428l-103 -66l-42 69l157 95h72v-526zM661 41h-84v428l-103 -66l-42 69l157 95h72v-526z" />
    <glyph glyph-name="uni246B" unicode="&#x246b;" vert-adv-y="1105" 
d="M828 306q0 164 -105.5 270.5t-267.5 106.5t-267.5 -106.5t-105.5 -270.5t105.5 -270.5t267.5 -106.5t267.5 106.5t105.5 270.5zM892 306q0 -190 -124 -314t-313 -124q-190 0 -313.5 124t-123.5 314q0 189 124 313.5t313 124.5q188 0 312.5 -125t124.5 -313zM369 41h-84
v428l-103 -66l-42 69l157 95h72v-526zM402 114l147 197q37 50 49.5 75.5t12.5 47.5v6q0 26 -16 41.5t-46 15.5q-53 0 -85 -68l-65 45q11 21 19 32.5t26 30.5t44 28.5t60 9.5q72 0 111.5 -38t39.5 -92v-7q0 -39 -19.5 -77t-57.5 -87l-120 -158h213v-75h-313v73z" />
    <glyph glyph-name="uni246C" unicode="&#x246c;" vert-adv-y="1105" 
d="M828 306q0 164 -105.5 270.5t-267.5 106.5t-267.5 -106.5t-105.5 -270.5t105.5 -270.5t267.5 -106.5t267.5 106.5t105.5 270.5zM892 306q0 -190 -124 -314t-313 -124q-190 0 -313.5 124t-123.5 314q0 189 124 313.5t313 124.5q188 0 312.5 -125t124.5 -313zM369 41h-84
v428l-103 -66l-42 69l157 95h72v-526zM460 453l-60 45q58 77 149 77q72 0 112 -36.5t40 -95.5v-7q0 -37 -19.5 -70t-62.5 -48q51 -9 79.5 -41.5t28.5 -77.5v-9q0 -68 -44 -112.5t-133 -44.5q-91 0 -165 59l43 66q38 -28 64.5 -38.5t57.5 -10.5q43 0 66.5 21t23.5 59v7
q0 45 -25 64t-76 19h-48v74h45q46 0 63 19.5t17 57.5v5q0 65 -67 65q-53 0 -89 -47z" />
    <glyph glyph-name="uni246D" unicode="&#x246d;" vert-adv-y="1105" 
d="M828 306q0 164 -105.5 270.5t-267.5 106.5t-267.5 -106.5t-105.5 -270.5t105.5 -270.5t267.5 -106.5t267.5 106.5t105.5 270.5zM892 306q0 -190 -124 -314t-313 -124q-190 0 -313.5 124t-123.5 314q0 189 124 313.5t313 124.5q188 0 312.5 -125t124.5 -313zM369 41h-84
v428l-103 -66l-42 69l157 95h72v-526zM599 382h82v-161h72v-69h-72v-111h-82v111h-207v57l181 359h91l-174 -347h109v161z" />
    <glyph glyph-name="uni246E" unicode="&#x246e;" vert-adv-y="1105" 
d="M828 306q0 164 -105.5 270.5t-267.5 106.5t-267.5 -106.5t-105.5 -270.5t105.5 -270.5t267.5 -106.5t267.5 106.5t105.5 270.5zM892 306q0 -190 -124 -314t-313 -124q-190 0 -313.5 124t-123.5 314q0 189 124 313.5t313 124.5q188 0 312.5 -125t124.5 -313zM369 41h-84
v428l-103 -66l-42 69l157 95h72v-526zM639 205v8q0 47 -18.5 69.5t-60.5 22.5q-47 0 -81 -43h-60l17 302h255v-70h-179l-7 -149q39 29 82 29q67 0 103 -45.5t36 -113.5v-11q0 -32 -8.5 -60.5t-26.5 -55t-53.5 -42.5t-83.5 -16q-89 0 -161 59l42 67q37 -30 62 -40t60 -10
q42 0 62 28.5t20 70.5z" />
    <glyph glyph-name="uni246F" unicode="&#x246f;" horiz-adv-x="940" vert-adv-y="1105" 
 />
    <glyph glyph-name="uni2470" unicode="&#x2470;" horiz-adv-x="940" vert-adv-y="1105" 
 />
    <glyph glyph-name="uni2471" unicode="&#x2471;" horiz-adv-x="940" vert-adv-y="1105" 
 />
    <glyph glyph-name="uni2472" unicode="&#x2472;" horiz-adv-x="940" vert-adv-y="1105" 
 />
    <glyph glyph-name="uni2473" unicode="&#x2473;" horiz-adv-x="940" vert-adv-y="1105" 
 />
    <glyph glyph-name="uni2474" unicode="&#x2474;" vert-adv-y="1105" 
d="M548 15h-91v473l-133 -78l-44 74l190 108h78v-577zM134 684h74q-106 -156 -106 -352v-46q0 -201 106 -358h-74q-112 147 -112 363v36q0 208 112 357zM702 684h74q112 -149 112 -357v-36q0 -216 -112 -363h-74q106 157 106 358v46q0 196 -106 352z" />
    <glyph glyph-name="uni2475" unicode="&#x2475;" vert-adv-y="1105" 
d="M269 90l215 225q32 33 48 58.5t19.5 39.5t3.5 33v6q0 31 -24 49t-70 18q-78 0 -121 -82l-69 45q66 119 189 119q90 0 137.5 -42.5t47.5 -108.5v-8q0 -78 -87 -167l-177 -182h285v-78h-397v75zM134 684h74q-106 -156 -106 -352v-46q0 -201 106 -358h-74q-112 147 -112 363
v36q0 208 112 357zM702 684h74q112 -149 112 -357v-36q0 -216 -112 -363h-74q106 157 106 358v46q0 196 -106 352z" />
    <glyph glyph-name="uni2476" unicode="&#x2476;" vert-adv-y="1105" 
d="M349 467l-63 48q62 85 172 85q81 0 131 -40t50 -105v-8q0 -99 -86 -131q56 -10 85 -43.5t29 -85.5v-12q0 -69 -54.5 -119.5t-154.5 -50.5q-109 0 -189 64l45 72q72 -53 144 -53q56 0 87 23.5t31 63.5v10q0 50 -28.5 70.5t-87.5 20.5h-68v78h62q96 0 96 91v6
q0 34 -25.5 51.5t-65.5 17.5q-66 0 -110 -53zM134 684h74q-106 -156 -106 -352v-46q0 -201 106 -358h-74q-112 147 -112 363v36q0 208 112 357zM702 684h74q112 -149 112 -357v-36q0 -216 -112 -363h-74q106 157 106 358v46q0 196 -106 352z" />
    <glyph glyph-name="uni2477" unicode="&#x2477;" vert-adv-y="1105" 
d="M134 684h74q-106 -156 -106 -352v-46q0 -201 106 -358h-74q-112 147 -112 363v36q0 208 112 357zM702 684h74q112 -149 112 -357v-36q0 -216 -112 -363h-74q106 157 106 358v46q0 196 -106 352zM517 386h90v-174h80v-75h-80v-122h-90v122h-287v63l266 392h100l-260 -380
h181v174z" />
    <glyph glyph-name="uni2478" unicode="&#x2478;" vert-adv-y="1105" 
d="M134 684h74q-106 -156 -106 -352v-46q0 -201 106 -358h-74q-112 147 -112 363v36q0 208 112 357zM702 684h74q112 -149 112 -357v-36q0 -216 -112 -363h-74q106 157 106 358v46q0 196 -106 352zM581 192v8q0 51 -28 78t-81 27q-66 0 -112 -46h-64l18 331h321v-77h-238
l-9 -166q49 32 109 32q79 0 127 -51.5t48 -125.5v-10q0 -75 -51.5 -131.5t-151.5 -56.5q-119 0 -200 65l44 71q68 -53 157 -53q52 0 81.5 31t29.5 74z" />
    <glyph glyph-name="uni2479" unicode="&#x2479;" vert-adv-y="1105" 
d="M134 684h74q-106 -156 -106 -352v-46q0 -201 106 -358h-74q-112 147 -112 363v36q0 208 112 357zM702 684h74q112 -149 112 -357v-36q0 -216 -112 -363h-74q106 157 106 358v46q0 196 -106 352zM641 559l-33 -78q-58 34 -124 34q-57 0 -92 -38t-38 -141q15 25 53.5 41.5
t80.5 16.5q79 0 129.5 -51.5t50.5 -135.5v-16q0 -83 -54.5 -135t-145.5 -52q-204 0 -204 239v35q0 75 11.5 131.5t31 92t49 58t62 31t73.5 8.5q89 0 150 -40zM355 208v-11q0 -52 28.5 -81t80.5 -29q54 0 83.5 28t29.5 80v10q0 108 -110 108q-52 0 -82 -29.5t-30 -75.5z" />
    <glyph glyph-name="uni247A" unicode="&#x247a;" vert-adv-y="1105" 
d="M134 684h74q-106 -156 -106 -352v-46q0 -201 106 -358h-74q-112 147 -112 363v36q0 208 112 357zM702 684h74q112 -149 112 -357v-36q0 -216 -112 -363h-74q106 157 106 358v46q0 196 -106 352zM673 512l-225 -507h-98l226 499h-308v78h405v-70z" />
    <glyph glyph-name="uni247B" unicode="&#x247b;" vert-adv-y="1105" 
d="M134 684h74q-106 -156 -106 -352v-46q0 -201 106 -358h-74q-112 147 -112 363v36q0 208 112 357zM702 684h74q112 -149 112 -357v-36q0 -216 -112 -363h-74q106 157 106 358v46q0 196 -106 352zM370 436v-8q0 -39 25 -60t62 -21t62.5 21t25.5 60v8q0 39 -24 61t-64 22
q-38 0 -62.5 -22.5t-24.5 -60.5zM355 178v-9q0 -39 28 -61t76 -22q47 0 73.5 22t26.5 61v9q0 43 -28 65.5t-72 22.5q-46 0 -75 -22t-29 -66zM261 164v14q0 46 28 82.5t68 48.5q-39 19 -59.5 54t-20.5 70v10q0 66 47 111t133 45q85 0 133 -45t48 -111v-10q0 -35 -20 -69
t-60 -55q41 -12 68.5 -48.5t27.5 -82.5v-14q0 -71 -52.5 -115.5t-144.5 -44.5t-144 44.5t-52 115.5z" />
    <glyph glyph-name="uni247C" unicode="&#x247c;" vert-adv-y="1105" 
d="M134 684h74q-106 -156 -106 -352v-46q0 -201 106 -358h-74q-112 147 -112 363v36q0 208 112 357zM702 684h74q112 -149 112 -357v-36q0 -216 -112 -363h-74q106 157 106 358v46q0 196 -106 352zM289 46l33 77q62 -36 124 -36q55 0 88 35.5t41 140.5q-16 -25 -53.5 -41
t-79.5 -16q-79 0 -129.5 51t-50.5 134v17q0 83 55 137t145 54q204 0 204 -235v-32q0 -181 -56.5 -254.5t-169.5 -73.5q-84 0 -151 42zM575 393v11q0 52 -28.5 81.5t-80.5 29.5q-54 0 -83.5 -28.5t-29.5 -80.5v-10q0 -53 29.5 -81t80.5 -28q52 0 82 30.5t30 75.5z" />
    <glyph glyph-name="uni247D" unicode="&#x247d;" vert-adv-y="1105" 
d="M371 15h-88v471l-94 -70l-43 65l150 111h75v-577zM134 684h74q-106 -156 -106 -352v-46q0 -201 106 -358h-74q-112 147 -112 363v36q0 208 112 357zM702 684h74q112 -149 112 -357v-36q0 -216 -112 -363h-74q106 157 106 358v46q0 196 -106 352zM734 348v-90
q0 -128 -35.5 -190.5t-121.5 -62.5t-122.5 63t-36.5 190v90q0 125 37.5 188.5t121.5 63.5q85 0 121 -63t36 -189zM645 257v91q0 99 -16 134.5t-52 35.5q-35 0 -52 -36t-17 -134v-91q0 -99 17 -134.5t52 -35.5q36 0 52 35t16 135z" />
    <glyph glyph-name="uni247E" unicode="&#x247e;" vert-adv-y="1105" 
d="M394 15h-88v471l-98 -70l-43 65l154 111h75v-577zM134 684h74q-106 -156 -106 -352v-46q0 -201 106 -358h-74q-112 147 -112 363v36q0 208 112 357zM702 684h74q112 -149 112 -357v-36q0 -216 -112 -363h-74q106 157 106 358v46q0 196 -106 352zM675 15h-88v471l-98 -70
l-43 65l154 111h75v-577z" />
    <glyph glyph-name="uni247F" unicode="&#x247f;" vert-adv-y="1105" 
d="M371 15h-88v471l-94 -70l-43 65l150 111h75v-577zM134 684h74q-106 -156 -106 -352v-46q0 -201 106 -358h-74q-112 147 -112 363v36q0 208 112 357zM702 684h74q112 -149 112 -357v-36q0 -216 -112 -363h-74q106 157 106 358v46q0 196 -106 352zM412 90l182 225
q50 61 50 128v6q0 31 -19 50.5t-54 19.5q-61 0 -98 -73l-69 43q59 112 167 112q86 0 125 -47.5t39 -106.5v-8q0 -45 -16.5 -82.5t-53.5 -83.5l-146 -180h222v-78h-329v75z" />
    <glyph glyph-name="uni2480" unicode="&#x2480;" vert-adv-y="1105" 
d="M371 15h-88v471l-94 -70l-43 65l150 111h75v-577zM134 684h74q-106 -156 -106 -352v-46q0 -201 106 -358h-74q-112 147 -112 363v36q0 208 112 357zM702 684h74q112 -149 112 -357v-36q0 -216 -112 -363h-74q106 157 106 358v46q0 196 -106 352zM473 468l-63 47
q51 85 146 85q75 0 117 -39.5t42 -105.5v-8q0 -41 -20.5 -77t-67.5 -54q56 -10 85 -43.5t29 -85.5v-12q0 -73 -44 -121.5t-141 -48.5q-89 0 -163 64l45 72q34 -30 60 -41.5t58 -11.5q94 0 94 87v10q0 91 -92 91h-68v78h62q38 0 56 25.5t18 65.5v6q0 71 -69 71q-51 0 -84 -54
z" />
    <glyph glyph-name="uni2481" unicode="&#x2481;" vert-adv-y="1105" 
d="M371 15h-88v471l-94 -70l-43 65l150 111h75v-577zM134 684h74q-106 -156 -106 -352v-46q0 -201 106 -358h-74q-112 147 -112 363v36q0 208 112 357zM702 684h74q112 -149 112 -357v-36q0 -216 -112 -363h-74q106 157 106 358v46q0 196 -106 352zM609 386h87v-176h68v-73
h-68v-122h-87v122h-213v61l177 394h97l-171 -382h110v176z" />
    <glyph glyph-name="uni2482" unicode="&#x2482;" vert-adv-y="1105" 
d="M371 15h-88v471l-94 -70l-43 65l150 111h75v-577zM134 684h74q-106 -156 -106 -352v-46q0 -201 106 -358h-74q-112 147 -112 363v36q0 208 112 357zM702 684h74q112 -149 112 -357v-36q0 -216 -112 -363h-74q106 157 106 358v46q0 196 -106 352zM649 192v8q0 107 -81 107
q-46 0 -81 -48h-64l18 331h260v-75h-179l-9 -168q34 32 80 32q74 0 109.5 -49.5t35.5 -127.5v-10q0 -49 -15 -89t-57 -69.5t-106 -29.5q-51 0 -86.5 15t-77.5 50l44 69q37 -31 61 -42t60 -11q45 0 66.5 29.5t21.5 77.5z" />
    <glyph glyph-name="uni2483" unicode="&#x2483;" horiz-adv-x="940" vert-adv-y="1105" 
 />
    <glyph glyph-name="uni2484" unicode="&#x2484;" horiz-adv-x="940" vert-adv-y="1105" 
 />
    <glyph glyph-name="uni2485" unicode="&#x2485;" horiz-adv-x="940" vert-adv-y="1105" 
 />
    <glyph glyph-name="uni2486" unicode="&#x2486;" horiz-adv-x="940" vert-adv-y="1105" 
 />
    <glyph glyph-name="uni2487" unicode="&#x2487;" horiz-adv-x="940" vert-adv-y="1105" 
 />
    <glyph glyph-name="uni249C" unicode="&#x249c;" vert-adv-y="1105" 
d="M134 684h74q-106 -156 -106 -352v-46q0 -201 106 -358h-74q-112 147 -112 363v36q0 208 112 357zM702 684h74q112 -149 112 -357v-36q0 -216 -112 -363h-74q106 157 106 358v46q0 196 -106 352zM420 78q-70 0 -109.5 33t-39.5 92v23q0 61 41 96.5t125 35.5h107v21
q0 43 -19 62.5t-66 19.5q-66 0 -127 -45l-45 67q85 58 172 58q77 0 126 -38.5t49 -103.5v-314h-87l-1 53q-27 -60 -126 -60zM544 253v29h-106q-78 0 -78 -63v-11q0 -52 69 -52q115 0 115 97z" />
    <glyph glyph-name="uni249D" unicode="&#x249d;" vert-adv-y="1105" 
d="M134 684h74q-106 -156 -106 -352v-46q0 -201 106 -358h-74q-112 147 -112 363v36q0 208 112 357zM702 684h74q112 -149 112 -357v-36q0 -216 -112 -363h-74q106 157 106 358v46q0 196 -106 352zM380 66h-3v-52h-86v620h89v-218q40 54 126 54q84 0 128 -49t44 -140v-81
q0 -90 -48 -141t-129 -51q-90 0 -121 58zM589 213v53q0 59 -26 92.5t-72 33.5q-50 0 -80.5 -29.5t-30.5 -78.5v-106q0 -34 32 -63t79 -29t72.5 33.5t25.5 93.5z" />
    <glyph glyph-name="uni249E" unicode="&#x249e;" vert-adv-y="1105" 
d="M134 684h74q-106 -156 -106 -352v-46q0 -201 106 -358h-74q-112 147 -112 363v36q0 208 112 357zM702 684h74q112 -149 112 -357v-36q0 -216 -112 -363h-74q106 157 106 358v46q0 196 -106 352zM468 540q90 0 153 -48l-41 -68q-45 36 -112 36q-47 0 -76.5 -28t-29.5 -92
v-58q0 -66 30.5 -95.5t76.5 -29.5q69 0 122 41l42 -69q-60 -52 -165 -52q-95 0 -146 53.5t-51 149.5v59q0 95 53 148t144 53z" />
    <glyph glyph-name="uni249F" unicode="&#x249f;" vert-adv-y="1105" 
d="M134 684h74q-106 -156 -106 -352v-46q0 -201 106 -358h-74q-112 147 -112 363v36q0 208 112 357zM702 684h74q112 -149 112 -357v-36q0 -216 -112 -363h-74q106 157 106 358v46q0 196 -106 352zM551 15v54h-2q-32 -60 -130 -60q-83 0 -126.5 49t-43.5 140v81
q0 89 48.5 140.5t128.5 51.5q86 0 121 -51v215h89v-620h-85zM338 267v-53q0 -61 25.5 -94t72.5 -33q46 0 78.5 31.5t32.5 79.5v105q0 35 -31.5 62t-79.5 27q-47 0 -72.5 -33t-25.5 -92z" />
    <glyph glyph-name="uni24A0" unicode="&#x24a0;" vert-adv-y="1105" 
d="M134 684h74q-106 -156 -106 -352v-46q0 -201 106 -358h-74q-112 147 -112 363v36q0 208 112 357zM702 684h74q112 -149 112 -357v-36q0 -216 -112 -363h-74q106 157 106 358v46q0 196 -106 352zM353 346h211v21q0 42 -28.5 69t-75.5 27q-45 0 -76 -28.5t-31 -72.5v-16z
M602 193l38 -68q-70 -48 -177 -48q-88 0 -144 49.5t-56 156.5v50q0 101 55.5 154t141.5 53q87 0 139 -52.5t52 -146.5v-68h-298q0 -57 31.5 -87.5t83.5 -30.5q75 0 134 38z" />
    <glyph glyph-name="uni24A1" unicode="&#x24a1;" vert-adv-y="1105" 
d="M134 684h74q-106 -156 -106 -352v-46q0 -201 106 -358h-74q-112 147 -112 363v36q0 208 112 357zM702 684h74q112 -149 112 -357v-36q0 -216 -112 -363h-74q106 157 106 358v46q0 196 -106 352zM394 4v366h-72v78h72v47q0 133 137 133q49 0 82 -13l-13 -72q-32 8 -60 8
q-56 0 -56 -60v-43h115v-78h-115v-366h-90z" />
    <glyph glyph-name="uni24A2" unicode="&#x24a2;" vert-adv-y="1105" 
d="M134 684h74q-106 -156 -106 -352v-46q0 -201 106 -358h-74q-112 147 -112 363v36q0 208 112 357zM702 684h74q112 -149 112 -357v-36q0 -216 -112 -363h-74q106 157 106 358v46q0 196 -106 352zM555 164v51q-32 -55 -126 -55q-85 0 -128 49t-43 140v74q0 88 49 140
t127 52q85 0 121 -52v43h90v-443q0 -186 -207 -186q-86 0 -148 48l40 72q19 -15 51 -27t60 -12q114 0 114 106zM347 410v-45q0 -61 25.5 -94t72.5 -33q46 0 78.5 31.5t32.5 79.5v97q0 36 -30.5 62.5t-80.5 26.5q-47 0 -72.5 -33t-25.5 -92z" />
    <glyph glyph-name="uni24A3" unicode="&#x24a3;" vert-adv-y="1105" 
d="M134 684h74q-106 -156 -106 -352v-46q0 -201 106 -358h-74q-112 147 -112 363v36q0 208 112 357zM702 684h74q112 -149 112 -357v-36q0 -216 -112 -363h-74q106 157 106 358v46q0 196 -106 352zM508 459q66 0 110.5 -40.5t44.5 -121.5v-293h-90v274q0 57 -23 79.5
t-67 22.5q-39 0 -72 -25.5t-33 -79.5v-271h-90v620h90v-223q41 58 130 58z" />
    <glyph glyph-name="uni24A4" unicode="&#x24a4;" vert-adv-y="1105" 
d="M410 3v446h89v-446h-89zM407 516v98h95v-98h-95zM134 684h74q-106 -156 -106 -352v-46q0 -201 106 -358h-74q-112 147 -112 363v36q0 208 112 357zM702 684h74q112 -149 112 -357v-36q0 -216 -112 -363h-74q106 157 106 358v46q0 196 -106 352z" />
    <glyph glyph-name="uni24A5" unicode="&#x24a5;" vert-adv-y="1105" 
d="M134 684h74q-106 -156 -106 -352v-46q0 -201 106 -358h-74q-112 147 -112 363v36q0 208 112 357zM702 684h74q112 -149 112 -357v-36q0 -216 -112 -363h-74q106 157 106 358v46q0 196 -106 352zM441 516v98h95v-98h-95zM534 449v-334q0 -64 -36 -98t-104 -34
q-44 0 -82 12l15 73q27 -8 58 -8q11 0 18.5 1.5t17.5 6.5t15 18t5 33v330h93z" />
    <glyph glyph-name="uni24A6" unicode="&#x24a6;" vert-adv-y="1105" 
d="M680 451l-175 -182l183 -265h-114l-131 200l-57 -59v-141h-90v620h90v-369l179 196h115zM134 684h74q-106 -156 -106 -352v-46q0 -201 106 -358h-74q-112 147 -112 363v36q0 208 112 357zM702 684h74q112 -149 112 -357v-36q0 -216 -112 -363h-74q106 157 106 358v46
q0 196 -106 352z" />
    <glyph glyph-name="uni24A7" unicode="&#x24a7;" vert-adv-y="1105" 
d="M134 684h74q-106 -156 -106 -352v-46q0 -201 106 -358h-74q-112 147 -112 363v36q0 208 112 357zM702 684h74q112 -149 112 -357v-36q0 -216 -112 -363h-74q106 157 106 358v46q0 196 -106 352zM410 4v620h89v-620h-89z" />
    <glyph glyph-name="uni24A8" unicode="&#x24a8;" vert-adv-y="1105" 
d="M134 684h74q-106 -156 -106 -352v-46q0 -201 106 -358h-74q-112 147 -112 363v36q0 208 112 357zM702 684h74q112 -149 112 -357v-36q0 -216 -112 -363h-74q106 157 106 358v46q0 196 -106 352zM617 540q62 0 98.5 -43.5t36.5 -122.5v-289h-90v259q0 61 -16 87.5
t-54 26.5q-80 0 -80 -102v-271h-89v259q0 60 -16.5 87t-55.5 27q-78 0 -78 -94v-279h-90v447h87v-60q30 68 108 68q79 0 111 -72q41 72 128 72z" />
    <glyph glyph-name="uni24A9" unicode="&#x24a9;" vert-adv-y="1105" 
d="M134 684h74q-106 -156 -106 -352v-46q0 -201 106 -358h-74q-112 147 -112 363v36q0 208 112 357zM702 684h74q112 -149 112 -357v-36q0 -216 -112 -363h-74q106 157 106 358v46q0 196 -106 352zM496 540q66 0 110.5 -40.5t44.5 -121.5v-293h-90v273q0 57 -23 79.5
t-67 22.5q-39 0 -72 -25.5t-33 -79.5v-270h-90v447h85v-54q44 62 135 62z" />
    <glyph glyph-name="uni24AA" unicode="&#x24aa;" vert-adv-y="1105" 
d="M134 684h74q-106 -156 -106 -352v-46q0 -201 106 -358h-74q-112 147 -112 363v36q0 208 112 357zM702 684h74q112 -149 112 -357v-36q0 -216 -112 -363h-74q106 157 106 358v46q0 196 -106 352zM456 540q94 0 148.5 -54t54.5 -149v-57q0 -96 -54.5 -149.5t-148.5 -53.5
t-149 53.5t-55 149.5v57q0 96 55 149.5t149 53.5zM456 156q112 0 112 132v41q0 132 -112 132q-113 0 -113 -132v-41q0 -132 113 -132z" />
    <glyph glyph-name="uni24AB" unicode="&#x24ab;" vert-adv-y="1105" 
d="M134 684h74q-106 -156 -106 -352v-46q0 -201 106 -358h-74q-112 147 -112 363v36q0 208 112 357zM702 684h74q112 -149 112 -357v-36q0 -216 -112 -363h-74q106 157 106 358v46q0 196 -106 352zM505 140q-42 0 -75.5 18t-43.5 36v-223h-89v623h86v-52q19 29 54.5 44.5
t74.5 15.5q83 0 127.5 -50.5t44.5 -138.5v-81q0 -91 -48 -141.5t-131 -50.5zM595 345v52q0 60 -26 93.5t-72 33.5q-50 0 -80.5 -29.5t-30.5 -78.5v-105q0 -34 32 -63t79 -29t72.5 33t25.5 93z" />
    <glyph glyph-name="uni24AC" unicode="&#x24ac;" vert-adv-y="1105" 
d="M134 684h74q-106 -156 -106 -352v-46q0 -201 106 -358h-74q-112 147 -112 363v36q0 208 112 357zM702 684h74q112 -149 112 -357v-36q0 -216 -112 -363h-74q106 157 106 358v46q0 196 -106 352zM548 -29v225q-36 -56 -127 -56q-171 0 -171 190v80q0 89 48.5 140.5
t128.5 51.5q85 0 120 -51v43h90v-623h-89zM339 397v-52q0 -60 25.5 -93t72.5 -33q46 0 78.5 31.5t32.5 79.5v106q0 34 -32 60.5t-79 26.5t-72.5 -33t-25.5 -93z" />
    <glyph glyph-name="uni24AD" unicode="&#x24ad;" vert-adv-y="1105" 
d="M134 684h74q-106 -156 -106 -352v-46q0 -201 106 -358h-74q-112 147 -112 363v36q0 208 112 357zM702 684h74q112 -149 112 -357v-36q0 -216 -112 -363h-74q106 157 106 358v46q0 196 -106 352zM641 531l-27 -87q-25 11 -55 11q-41 0 -73 -30t-32 -76v-264h-90v447h87
v-68q24 40 55.5 58t79.5 18q28 0 55 -9z" />
    <glyph glyph-name="uni24AE" unicode="&#x24ae;" vert-adv-y="1105" 
d="M134 684h74q-106 -156 -106 -352v-46q0 -201 106 -358h-74q-112 147 -112 363v36q0 208 112 357zM702 684h74q112 -149 112 -357v-36q0 -216 -112 -363h-74q106 157 106 358v46q0 196 -106 352zM464 154q84 0 84 52v6q0 26 -16 36.5t-77 23.5q-81 16 -118.5 47t-37.5 90
v9q0 51 42.5 86.5t126.5 35.5q96 0 161 -43l-40 -68q-44 34 -112 34q-88 0 -88 -46v-7q0 -24 18 -35.5t71 -21.5q86 -16 123.5 -46t37.5 -93v-10q0 -54 -46.5 -90.5t-125.5 -36.5q-114 0 -183 54l41 71q71 -48 139 -48z" />
    <glyph glyph-name="uni24AF" unicode="&#x24af;" vert-adv-y="1105" 
d="M134 684h74q-106 -156 -106 -352v-46q0 -201 106 -358h-74q-112 147 -112 363v36q0 208 112 357zM702 684h74q112 -149 112 -357v-36q0 -216 -112 -363h-74q106 157 106 358v46q0 196 -106 352zM377 154v242h-72v78h72v111h90v-111h115v-78h-115v-242q0 -19 4 -30.5
t13 -16t16.5 -6t20.5 -1.5q28 0 57 11l14 -72q-41 -16 -87 -16q-128 0 -128 131z" />
    <glyph glyph-name="uni24B0" unicode="&#x24b0;" vert-adv-y="1105" 
d="M134 684h74q-106 -156 -106 -352v-46q0 -201 106 -358h-74q-112 147 -112 363v36q0 208 112 357zM702 684h74q112 -149 112 -357v-36q0 -216 -112 -363h-74q106 157 106 358v46q0 196 -106 352zM429 75q-65 0 -109.5 40.5t-44.5 121.5v294h90v-274q0 -58 22.5 -80
t67.5 -22q38 0 70 25.5t32 79.5v271h90v-447h-87v54q-44 -63 -131 -63z" />
    <glyph glyph-name="uni24B1" unicode="&#x24b1;" vert-adv-y="1105" 
d="M134 684h74q-106 -156 -106 -352v-46q0 -201 106 -358h-74q-112 147 -112 363v36q0 208 112 357zM702 684h74q112 -149 112 -357v-36q0 -216 -112 -363h-74q106 157 106 358v46q0 196 -106 352zM516 85h-116l-149 446h98l109 -364h2l109 364h95z" />
    <glyph glyph-name="uni24B2" unicode="&#x24b2;" vert-adv-y="1105" 
d="M134 684h74q-106 -156 -106 -352v-46q0 -201 106 -358h-74q-112 147 -112 363v36q0 208 112 357zM702 684h74q112 -149 112 -357v-36q0 -216 -112 -363h-74q106 157 106 358v46q0 196 -106 352zM377 85h-107l-111 446h96l72 -351h2l88 351h87l85 -351h3l74 351h90
l-109 -446h-106l-81 329h-3z" />
    <glyph glyph-name="uni24B3" unicode="&#x24b3;" vert-adv-y="1105" 
d="M134 684h74q-106 -156 -106 -352v-46q0 -201 106 -358h-74q-112 147 -112 363v36q0 208 112 357zM702 684h74q112 -149 112 -357v-36q0 -216 -112 -363h-74q106 157 106 358v46q0 196 -106 352zM657 529l-137 -214l142 -230h-111l-92 169l-94 -169h-104l144 230l-137 214
h110l89 -156l90 156h100z" />
    <glyph glyph-name="uni24B4" unicode="&#x24b4;" vert-adv-y="1105" 
d="M134 684h74q-106 -156 -106 -352v-46q0 -201 106 -358h-74q-112 147 -112 363v36q0 208 112 357zM702 684h74q112 -149 112 -357v-36q0 -216 -112 -363h-74q106 157 106 358v46q0 196 -106 352zM256 595h100l105 -340h5l114 340h93l-235 -627l-81 29l56 149z" />
    <glyph glyph-name="uni24B5" unicode="&#x24b5;" vert-adv-y="1105" 
d="M134 684h74q-106 -156 -106 -352v-46q0 -201 106 -358h-74q-112 147 -112 363v36q0 208 112 357zM702 684h74q112 -149 112 -357v-36q0 -216 -112 -363h-74q106 157 106 358v46q0 196 -106 352zM634 531v-73l-231 -293h244v-80h-362v64l239 301h-222v81h332z" />
    <glyph glyph-name="uni24B6" unicode="&#x24b6;" horiz-adv-x="940" vert-adv-y="1105" 
 />
    <glyph glyph-name="uni24B7" unicode="&#x24b7;" horiz-adv-x="940" vert-adv-y="1105" 
 />
    <glyph glyph-name="uni24B8" unicode="&#x24b8;" horiz-adv-x="940" vert-adv-y="1105" 
 />
    <glyph glyph-name="uni24B9" unicode="&#x24b9;" horiz-adv-x="940" vert-adv-y="1105" 
 />
    <glyph glyph-name="uni24BA" unicode="&#x24ba;" horiz-adv-x="940" vert-adv-y="1105" 
 />
    <glyph glyph-name="uni24BB" unicode="&#x24bb;" horiz-adv-x="940" vert-adv-y="1105" 
 />
    <glyph glyph-name="uni24BC" unicode="&#x24bc;" horiz-adv-x="940" vert-adv-y="1105" 
 />
    <glyph glyph-name="uni24BD" unicode="&#x24bd;" horiz-adv-x="940" vert-adv-y="1105" 
 />
    <glyph glyph-name="uni24BE" unicode="&#x24be;" horiz-adv-x="940" vert-adv-y="1105" 
 />
    <glyph glyph-name="uni24BF" unicode="&#x24bf;" horiz-adv-x="940" vert-adv-y="1105" 
 />
    <glyph glyph-name="uni24C0" unicode="&#x24c0;" horiz-adv-x="940" vert-adv-y="1105" 
 />
    <glyph glyph-name="uni24C1" unicode="&#x24c1;" horiz-adv-x="940" vert-adv-y="1105" 
 />
    <glyph glyph-name="uni24C2" unicode="&#x24c2;" horiz-adv-x="940" vert-adv-y="1105" 
 />
    <glyph glyph-name="uni24C3" unicode="&#x24c3;" horiz-adv-x="940" vert-adv-y="1105" 
 />
    <glyph glyph-name="uni24C4" unicode="&#x24c4;" horiz-adv-x="940" vert-adv-y="1105" 
 />
    <glyph glyph-name="uni24C5" unicode="&#x24c5;" horiz-adv-x="940" vert-adv-y="1105" 
 />
    <glyph glyph-name="uni24C6" unicode="&#x24c6;" horiz-adv-x="940" vert-adv-y="1105" 
 />
    <glyph glyph-name="uni24C7" unicode="&#x24c7;" horiz-adv-x="940" vert-adv-y="1105" 
 />
    <glyph glyph-name="uni24C8" unicode="&#x24c8;" horiz-adv-x="940" vert-adv-y="1105" 
 />
    <glyph glyph-name="uni24C9" unicode="&#x24c9;" horiz-adv-x="940" vert-adv-y="1105" 
 />
    <glyph glyph-name="uni24CA" unicode="&#x24ca;" horiz-adv-x="940" vert-adv-y="1105" 
 />
    <glyph glyph-name="uni24CB" unicode="&#x24cb;" horiz-adv-x="940" vert-adv-y="1105" 
 />
    <glyph glyph-name="uni24CC" unicode="&#x24cc;" horiz-adv-x="940" vert-adv-y="1105" 
 />
    <glyph glyph-name="uni24CD" unicode="&#x24cd;" horiz-adv-x="940" vert-adv-y="1105" 
 />
    <glyph glyph-name="uni24CE" unicode="&#x24ce;" horiz-adv-x="940" vert-adv-y="1105" 
 />
    <glyph glyph-name="uni24CF" unicode="&#x24cf;" horiz-adv-x="940" vert-adv-y="1105" 
 />
    <glyph glyph-name="uni24D0" unicode="&#x24d0;" vert-adv-y="1105" 
d="M828 306q0 164 -105.5 270.5t-267.5 106.5t-267.5 -106.5t-105.5 -270.5t105.5 -270.5t267.5 -106.5t267.5 106.5t105.5 270.5zM892 306q0 -190 -124 -314t-313 -124q-190 0 -313.5 124t-123.5 314q0 189 124 313.5t313 124.5q188 0 312.5 -125t124.5 -313zM421 100
q-64 0 -100.5 31t-36.5 85v20q0 122 152 122h96v16q0 40 -16.5 56.5t-59.5 16.5q-58 0 -115 -40l-42 63q76 53 158 53q71 0 115.5 -34.5t44.5 -95.5v-287h-81v49h-1q-9 -20 -33 -36q-31 -19 -81 -19zM532 264v21h-94q-38 0 -54 -13.5t-16 -41.5v-10q0 -46 61 -46q51 0 83 27
q20 18 20 63z" />
    <glyph glyph-name="uni24D1" unicode="&#x24d1;" vert-adv-y="1105" 
d="M828 306q0 164 -105.5 270.5t-267.5 106.5t-267.5 -106.5t-105.5 -270.5t105.5 -270.5t267.5 -106.5t267.5 106.5t105.5 270.5zM892 306q0 -190 -124 -314t-313 -124q-190 0 -313.5 124t-123.5 314q0 189 124 313.5t313 124.5q188 0 312.5 -125t124.5 -313zM386 82h-1
v-48h-83v567h86v-199q32 48 113 48q78 0 118 -45t40 -129v-72q0 -82 -44 -129t-118 -47q-81 0 -111 54zM575 216v46q0 114 -88 114q-46 0 -73.5 -27t-27.5 -71v-92q0 -31 29.5 -57t71.5 -26t65 30t23 83z" />
    <glyph glyph-name="uni24D2" unicode="&#x24d2;" vert-adv-y="1105" 
d="M828 306q0 164 -105.5 270.5t-267.5 106.5t-267.5 -106.5t-105.5 -270.5t105.5 -270.5t267.5 -106.5t267.5 106.5t105.5 270.5zM892 306q0 -190 -124 -314t-313 -124q-190 0 -313.5 124t-123.5 314q0 189 124 313.5t313 124.5q188 0 312.5 -125t124.5 -313zM462 516
q83 0 145 -47l-41 -64q-48 35 -104 35q-38 0 -66 -25t-28 -82v-52q0 -59 29 -85.5t66 -26.5q66 0 113 36l41 -65q-53 -47 -155 -47q-87 0 -134 49.5t-47 137.5v52q0 87 48.5 135.5t132.5 48.5z" />
    <glyph glyph-name="uni24D3" unicode="&#x24d3;" vert-adv-y="1105" 
d="M828 306q0 164 -105.5 270.5t-267.5 106.5t-267.5 -106.5t-105.5 -270.5t105.5 -270.5t267.5 -106.5t267.5 106.5t105.5 270.5zM892 306q0 -190 -124 -314t-313 -124q-190 0 -313.5 124t-123.5 314q0 189 124 313.5t313 124.5q188 0 312.5 -125t124.5 -313zM533 42v49h-2
q-31 -55 -117 -55q-77 0 -117 45t-40 128v73q0 82 44 129t118 47q78 0 109 -45v196h86v-567h-81zM341 270v-46q0 -54 23.5 -83.5t64.5 -29.5q42 0 71.5 28.5t29.5 72.5v91q0 31 -27.5 55.5t-73.5 24.5q-42 0 -65 -30t-23 -83z" />
    <glyph glyph-name="uni24D4" unicode="&#x24d4;" vert-adv-y="1105" 
d="M828 306q0 164 -105.5 270.5t-267.5 106.5t-267.5 -106.5t-105.5 -270.5t105.5 -270.5t267.5 -106.5t267.5 106.5t105.5 270.5zM892 306q0 -190 -124 -314t-313 -124q-190 0 -313.5 124t-123.5 314q0 189 124 313.5t313 124.5q188 0 312.5 -125t124.5 -313zM360 343h191
v13q0 38 -25 63.5t-68 25.5q-46 0 -72 -26.5t-26 -67.5v-8zM587 206l36 -64q-70 -46 -164 -46q-80 0 -131.5 45t-51.5 144v43q0 93 51.5 141.5t130.5 48.5t126.5 -47.5t47.5 -133.5v-63h-272q-1 -50 28.5 -77.5t75.5 -27.5q65 0 123 37z" />
    <glyph glyph-name="uni24D5" unicode="&#x24d5;" vert-adv-y="1105" 
d="M828 306q0 164 -105.5 270.5t-267.5 106.5t-267.5 -106.5t-105.5 -270.5t105.5 -270.5t267.5 -106.5t267.5 106.5t105.5 270.5zM892 306q0 -190 -124 -314t-313 -124q-190 0 -313.5 124t-123.5 314q0 189 124 313.5t313 124.5q188 0 312.5 -125t124.5 -313zM389 18v334
h-66v73h66v43q0 58 33 90t94 32q46 0 77 -11l-14 -70q-30 8 -54 8q-50 0 -50 -53v-39h104v-73h-104v-334h-86z" />
    <glyph glyph-name="uni24D6" unicode="&#x24d6;" vert-adv-y="1105" 
d="M828 306q0 164 -105.5 270.5t-267.5 106.5t-267.5 -106.5t-105.5 -270.5t105.5 -270.5t267.5 -106.5t267.5 106.5t105.5 270.5zM892 306q0 -190 -124 -314t-313 -124q-190 0 -313.5 124t-123.5 314q0 189 124 313.5t313 124.5q188 0 312.5 -125t124.5 -313zM542 170v48
q-30 -49 -114 -49q-157 0 -157 173v66q0 82 44 129t118 47q76 0 109 -45v38h86v-404q0 -88 -46 -130.5t-142 -42.5q-80 0 -140 44l39 68q48 -35 101 -35q102 0 102 93zM355 396v-39q0 -54 23.5 -84t64.5 -30q42 0 71 28.5t29 72.5v86q0 31 -28 54.5t-72 23.5
q-42 0 -65 -29.5t-23 -82.5z" />
    <glyph glyph-name="uni24D7" unicode="&#x24d7;" vert-adv-y="1105" 
d="M828 306q0 164 -105.5 270.5t-267.5 106.5t-267.5 -106.5t-105.5 -270.5t105.5 -270.5t267.5 -106.5t267.5 106.5t105.5 270.5zM892 306q0 -190 -124 -314t-313 -124q-190 0 -313.5 124t-123.5 314q0 189 124 313.5t313 124.5q188 0 312.5 -125t124.5 -313zM505 445
q59 0 99.5 -37t40.5 -112v-267h-85v249q0 53 -20 72.5t-60 19.5q-35 0 -64.5 -23t-29.5 -73v-245h-86v567h86v-203q39 52 119 52z" />
    <glyph glyph-name="uni24D8" unicode="&#x24d8;" vert-adv-y="1105" 
d="M828 306q0 164 -105.5 270.5t-267.5 106.5t-267.5 -106.5t-105.5 -270.5t105.5 -270.5t267.5 -106.5t267.5 106.5t105.5 270.5zM892 306q0 -190 -124 -314t-313 -124q-190 0 -313.5 124t-123.5 314q0 189 124 313.5t313 124.5q188 0 312.5 -125t124.5 -313zM410 26v408
h86v-408h-86zM408 494v93h90v-93h-90z" />
    <glyph glyph-name="uni24D9" unicode="&#x24d9;" vert-adv-y="1105" 
d="M828 306q0 164 -105.5 270.5t-267.5 106.5t-267.5 -106.5t-105.5 -270.5t105.5 -270.5t267.5 -106.5t267.5 106.5t105.5 270.5zM892 306q0 -190 -124 -314t-313 -124q-190 0 -313.5 124t-123.5 314q0 189 124 313.5t313 124.5q188 0 312.5 -125t124.5 -313zM435 495v93
h90v-93h-90zM523 435v-320q0 -121 -127 -121q-46 0 -75 11l13 69q27 -7 53 -7q50 0 50 52v316h86z" />
    <glyph glyph-name="uni24DA" unicode="&#x24da;" vert-adv-y="1105" 
d="M828 306q0 164 -105.5 270.5t-267.5 106.5t-267.5 -106.5t-105.5 -270.5t105.5 -270.5t267.5 -106.5t267.5 106.5t105.5 270.5zM892 306q0 -190 -124 -314t-313 -124q-190 0 -313.5 124t-123.5 314q0 189 124 313.5t313 124.5q188 0 312.5 -125t124.5 -313zM666 440
l-160 -168l166 -241h-109l-116 179l-51 -53v-126h-85v567h85v-336l161 178h109z" />
    <glyph glyph-name="uni24DB" unicode="&#x24db;" vert-adv-y="1105" 
d="M828 306q0 164 -105.5 270.5t-267.5 106.5t-267.5 -106.5t-105.5 -270.5t105.5 -270.5t267.5 -106.5t267.5 106.5t105.5 270.5zM892 306q0 -190 -124 -314t-313 -124q-190 0 -313.5 124t-123.5 314q0 189 124 313.5t313 124.5q188 0 312.5 -125t124.5 -313zM411 23v567
h86v-567h-86z" />
    <glyph glyph-name="uni24DC" unicode="&#x24dc;" vert-adv-y="1105" 
d="M828 306q0 164 -105.5 270.5t-267.5 106.5t-267.5 -106.5t-105.5 -270.5t105.5 -270.5t267.5 -106.5t267.5 106.5t105.5 270.5zM892 306q0 -190 -124 -314t-313 -124q-190 0 -313.5 124t-123.5 314q0 189 124 313.5t313 124.5q188 0 312.5 -125t124.5 -313zM611 512
q59 0 95 -40t36 -113v-263h-86v238q0 55 -16.5 77.5t-52.5 22.5q-34 0 -55.5 -22t-21.5 -70v-246h-86v239q0 54 -17 76.5t-50 22.5t-56 -19.5t-23 -64.5v-254h-86v409h83v-55q26 62 104 62t109 -64q41 64 123 64z" />
    <glyph glyph-name="uni24DD" unicode="&#x24dd;" vert-adv-y="1105" 
d="M828 306q0 164 -105.5 270.5t-267.5 106.5t-267.5 -106.5t-105.5 -270.5t105.5 -270.5t267.5 -106.5t267.5 106.5t105.5 270.5zM892 306q0 -190 -124 -314t-313 -124q-190 0 -313.5 124t-123.5 314q0 189 124 313.5t313 124.5q188 0 312.5 -125t124.5 -313zM498 512
q58 0 99 -37t41 -112v-267h-85v249q0 52 -20.5 71.5t-59.5 19.5q-35 0 -64.5 -22.5t-29.5 -72.5v-245h-86v409h82v-49q39 56 123 56z" />
    <glyph glyph-name="uni24DE" unicode="&#x24de;" vert-adv-y="1105" 
d="M828 306q0 164 -105.5 270.5t-267.5 106.5t-267.5 -106.5t-105.5 -270.5t105.5 -270.5t267.5 -106.5t267.5 106.5t105.5 270.5zM892 306q0 -190 -124 -314t-313 -124q-190 0 -313.5 124t-123.5 314q0 189 124 313.5t313 124.5q188 0 312.5 -125t124.5 -313zM456 519
q87 0 137.5 -49t50.5 -137v-50q0 -88 -50.5 -137.5t-137.5 -49.5q-86 0 -136.5 49.5t-50.5 137.5v50q0 88 50.5 137t136.5 49zM456 171q102 0 102 119v35q0 119 -102 119q-101 0 -101 -119v-35q0 -119 101 -119z" />
    <glyph glyph-name="uni24DF" unicode="&#x24df;" vert-adv-y="1105" 
d="M828 306q0 164 -105.5 270.5t-267.5 106.5t-267.5 -106.5t-105.5 -270.5t105.5 -270.5t267.5 -106.5t267.5 106.5t105.5 270.5zM892 306q0 -190 -124 -314t-313 -124q-190 0 -313.5 124t-123.5 314q0 189 124 313.5t313 124.5q188 0 312.5 -125t124.5 -313zM501 154
q-72 0 -107 48v-202h-86v568h83v-46q33 54 117 54q78 0 117.5 -46.5t39.5 -127.5v-72q0 -84 -43.5 -130t-120.5 -46zM581 342v46q0 53 -23.5 83.5t-64.5 30.5q-46 0 -73.5 -27t-27.5 -71v-92q0 -31 29.5 -57t71.5 -26t65 30t23 83z" />
    <glyph glyph-name="uni24E0" unicode="&#x24e0;" vert-adv-y="1105" 
d="M828 306q0 164 -105.5 270.5t-267.5 106.5t-267.5 -106.5t-105.5 -270.5t105.5 -270.5t267.5 -106.5t267.5 106.5t105.5 270.5zM892 306q0 -190 -124 -314t-313 -124q-190 0 -313.5 124t-123.5 314q0 189 124 313.5t313 124.5q188 0 312.5 -125t124.5 -313zM520 0v204
q-31 -50 -114 -50q-78 0 -117.5 44.5t-39.5 128.5v73q0 82 44 129t118 47q76 0 109 -45v37h86v-568h-86zM333 388v-46q0 -54 23.5 -83.5t64.5 -29.5q42 0 71.5 28.5t29.5 72.5v93q0 31 -27.5 54.5t-73.5 23.5q-42 0 -65 -30t-23 -83z" />
    <glyph glyph-name="uni24E1" unicode="&#x24e1;" vert-adv-y="1105" 
d="M828 306q0 164 -105.5 270.5t-267.5 106.5t-267.5 -106.5t-105.5 -270.5t105.5 -270.5t267.5 -106.5t267.5 106.5t105.5 270.5zM892 306q0 -190 -124 -314t-313 -124q-190 0 -313.5 124t-123.5 314q0 189 124 313.5t313 124.5q188 0 312.5 -125t124.5 -313zM622 494
l-25 -82q-24 11 -50 11q-37 0 -65.5 -27t-28.5 -68v-242h-86v408h83v-60q22 37 50 52.5t72 15.5q28 0 50 -8z" />
    <glyph glyph-name="uni24E2" unicode="&#x24e2;" vert-adv-y="1105" 
d="M828 306q0 164 -105.5 270.5t-267.5 106.5t-267.5 -106.5t-105.5 -270.5t105.5 -270.5t267.5 -106.5t267.5 106.5t105.5 270.5zM892 306q0 -190 -124 -314t-313 -124q-190 0 -313.5 124t-123.5 314q0 189 124 313.5t313 124.5q188 0 312.5 -125t124.5 -313zM455 168
q75 0 75 45v5q0 23 -13.5 32t-69.5 21q-75 16 -109 43.5t-34 83.5v8q0 46 39 79t116 33q94 0 151 -39l-40 -64q-38 30 -101 30q-80 0 -80 -40v-6q0 -21 16 -31t64 -19q78 -15 113 -42.5t35 -86.5v-8q0 -50 -43 -83.5t-116 -33.5q-101 0 -168 50l38 67q66 -44 127 -44z" />
    <glyph glyph-name="uni24E3" unicode="&#x24e3;" vert-adv-y="1105" 
d="M828 306q0 164 -105.5 270.5t-267.5 106.5t-267.5 -106.5t-105.5 -270.5t105.5 -270.5t267.5 -106.5t267.5 106.5t105.5 270.5zM892 306q0 -190 -124 -314t-313 -124q-190 0 -313.5 124t-123.5 314q0 189 124 313.5t313 124.5q188 0 312.5 -125t124.5 -313zM380 166v225
h-65v74h65v102h85v-102h105v-74h-105v-219q0 -22 8.5 -33t16.5 -12.5t24 -1.5q27 0 52 11l13 -69q-39 -16 -80 -16q-61 0 -90 28t-29 87z" />
    <glyph glyph-name="uni24E4" unicode="&#x24e4;" vert-adv-y="1105" 
d="M828 306q0 164 -105.5 270.5t-267.5 106.5t-267.5 -106.5t-105.5 -270.5t105.5 -270.5t267.5 -106.5t267.5 106.5t105.5 270.5zM892 306q0 -190 -124 -314t-313 -124q-190 0 -313.5 124t-123.5 314q0 189 124 313.5t313 124.5q188 0 312.5 -125t124.5 -313zM424 81
q-59 0 -100.5 36.5t-41.5 111.5v269h86v-250q0 -53 20.5 -72.5t60.5 -19.5q34 0 62.5 23t28.5 73v246h86v-409h-82v48q-42 -56 -120 -56z" />
    <glyph glyph-name="uni24E5" unicode="&#x24e5;" vert-adv-y="1105" 
d="M828 306q0 164 -105.5 270.5t-267.5 106.5t-267.5 -106.5t-105.5 -270.5t105.5 -270.5t267.5 -106.5t267.5 106.5t105.5 270.5zM892 306q0 -190 -124 -314t-313 -124q-190 0 -313.5 124t-123.5 314q0 189 124 313.5t313 124.5q188 0 312.5 -125t124.5 -313zM518 82h-114
l-133 405h93l97 -328h3l98 328h90z" />
    <glyph glyph-name="uni24E6" unicode="&#x24e6;" vert-adv-y="1105" 
d="M828 306q0 164 -105.5 270.5t-267.5 106.5t-267.5 -106.5t-105.5 -270.5t105.5 -270.5t267.5 -106.5t267.5 106.5t105.5 270.5zM892 306q0 -190 -124 -314t-313 -124q-190 0 -313.5 124t-123.5 314q0 189 124 313.5t313 124.5q188 0 312.5 -125t124.5 -313zM387 82h-100
l-103 405h91l65 -315h2l79 315h83l75 -315h2l69 315h85l-101 -405h-102l-71 293h-2z" />
    <glyph glyph-name="uni24E7" unicode="&#x24e7;" vert-adv-y="1105" 
d="M828 306q0 164 -105.5 270.5t-267.5 106.5t-267.5 -106.5t-105.5 -270.5t105.5 -270.5t267.5 -106.5t267.5 106.5t105.5 270.5zM892 306q0 -190 -124 -314t-313 -124q-190 0 -313.5 124t-123.5 314q0 189 124 313.5t313 124.5q188 0 312.5 -125t124.5 -313zM637 498
l-125 -195l129 -210h-105l-81 152l-83 -152h-99l131 210l-126 195h106l77 -140l80 140h96z" />
    <glyph glyph-name="uni24E8" unicode="&#x24e8;" vert-adv-y="1105" 
d="M828 306q0 164 -105.5 270.5t-267.5 106.5t-267.5 -106.5t-105.5 -270.5t105.5 -270.5t267.5 -106.5t267.5 106.5t105.5 270.5zM892 306q0 -190 -124 -314t-313 -124q-190 0 -313.5 124t-123.5 314q0 189 124 313.5t313 124.5q188 0 312.5 -125t124.5 -313zM273 555h95
l96 -301h6l99 301h89l-215 -573l-79 27l55 142z" />
    <glyph glyph-name="uni24E9" unicode="&#x24e9;" vert-adv-y="1105" 
d="M828 306q0 164 -105.5 270.5t-267.5 106.5t-267.5 -106.5t-105.5 -270.5t105.5 -270.5t267.5 -106.5t267.5 106.5t105.5 270.5zM892 306q0 -190 -124 -314t-313 -124q-190 0 -313.5 124t-123.5 314q0 189 124 313.5t313 124.5q188 0 312.5 -125t124.5 -313zM614 507v-69
l-210 -265h221v-75h-333v60l217 272h-202v77h307z" />
    <glyph glyph-name="Korea1.8683" unicode="&#x24eb;" horiz-adv-x="940" vert-adv-y="1105" 
 />
    <glyph glyph-name="Korea1.8684" unicode="&#x24ec;" horiz-adv-x="940" vert-adv-y="1105" 
 />
    <glyph glyph-name="Korea1.8685" unicode="&#x24ed;" horiz-adv-x="940" vert-adv-y="1105" 
 />
    <glyph glyph-name="Korea1.8686" unicode="&#x24ee;" horiz-adv-x="940" vert-adv-y="1105" 
 />
    <glyph glyph-name="Korea1.8687" unicode="&#x24ef;" horiz-adv-x="940" vert-adv-y="1105" 
 />
    <glyph glyph-name="Korea1.8688" unicode="&#x24f0;" horiz-adv-x="940" vert-adv-y="1105" 
 />
    <glyph glyph-name="Korea1.8689" unicode="&#x24f1;" horiz-adv-x="940" vert-adv-y="1105" 
 />
    <glyph glyph-name="Korea1.8690" unicode="&#x24f2;" horiz-adv-x="940" vert-adv-y="1105" 
 />
    <glyph glyph-name="Korea1.8691" unicode="&#x24f3;" horiz-adv-x="940" vert-adv-y="1105" 
 />
    <glyph glyph-name="Korea1.8692" unicode="&#x24f4;" horiz-adv-x="940" vert-adv-y="1105" 
 />
    <glyph glyph-name="SF100000" unicode="&#x2500;" horiz-adv-x="920" vert-adv-y="1105" 
d="M920 315v-29h-920v29h920z" />
    <glyph glyph-name="uni2501" unicode="&#x2501;" horiz-adv-x="920" vert-adv-y="1105" 
d="M920 325v-54h-920v54h920z" />
    <glyph glyph-name="SF110000" unicode="&#x2502;" horiz-adv-x="920" vert-adv-y="1105" 
d="M475 800v-1000h-29v1000h29z" />
    <glyph glyph-name="uni2503" unicode="&#x2503;" horiz-adv-x="920" vert-adv-y="1105" 
d="M487 800v-1000h-54v1000h54z" />
    <glyph glyph-name="SF010000" unicode="&#x250c;" horiz-adv-x="920" vert-adv-y="1105" 
d="M920 315v-29h-445v-486h-29v515h474z" />
    <glyph glyph-name="uni250D" unicode="&#x250d;" horiz-adv-x="920" vert-adv-y="1105" 
d="M920 336v-72h-441v-464h-38v536h479z" />
    <glyph glyph-name="uni250E" unicode="&#x250e;" horiz-adv-x="920" vert-adv-y="1105" 
d="M920 318v-36h-422v-482h-76v518h498z" />
    <glyph glyph-name="uni250F" unicode="&#x250f;" horiz-adv-x="920" vert-adv-y="1105" 
d="M920 325v-54h-433v-471h-54v525h487z" />
    <glyph glyph-name="SF030000" unicode="&#x2510;" horiz-adv-x="920" vert-adv-y="1105" 
d="M475 315v-515h-29v486h-446v29h475z" />
    <glyph glyph-name="uni2511" unicode="&#x2511;" horiz-adv-x="920" vert-adv-y="1105" 
d="M479 336v-536h-38v464h-441v72h479z" />
    <glyph glyph-name="uni2512" unicode="&#x2512;" horiz-adv-x="920" vert-adv-y="1105" 
d="M498 318v-518h-76v482h-422v36h498z" />
    <glyph glyph-name="uni2513" unicode="&#x2513;" horiz-adv-x="920" vert-adv-y="1105" 
d="M487 325v-525h-54v471h-433v54h487z" />
    <glyph glyph-name="SF020000" unicode="&#x2514;" horiz-adv-x="920" vert-adv-y="1105" 
d="M920 315v-29h-474v514h29v-485h445z" />
    <glyph glyph-name="uni2515" unicode="&#x2515;" horiz-adv-x="920" vert-adv-y="1105" 
d="M920 336v-72h-479v536h38v-464h441z" />
    <glyph glyph-name="uni2516" unicode="&#x2516;" horiz-adv-x="920" vert-adv-y="1105" 
d="M920 318v-36h-498v518h76v-482h422z" />
    <glyph glyph-name="uni2517" unicode="&#x2517;" horiz-adv-x="920" vert-adv-y="1105" 
d="M920 325v-54h-487v529h54v-475h433z" />
    <glyph glyph-name="SF040000" unicode="&#x2518;" horiz-adv-x="920" vert-adv-y="1105" 
d="M475 800v-514h-475v29h446v485h29z" />
    <glyph glyph-name="uni2519" unicode="&#x2519;" horiz-adv-x="920" vert-adv-y="1105" 
d="M479 800v-536h-479v72h441v464h38z" />
    <glyph glyph-name="uni251A" unicode="&#x251a;" horiz-adv-x="920" vert-adv-y="1105" 
d="M498 800v-518h-498v36h422v482h76z" />
    <glyph glyph-name="uni251B" unicode="&#x251b;" horiz-adv-x="920" vert-adv-y="1105" 
d="M487 800v-529h-487v54h433v475h54z" />
    <glyph glyph-name="SF080000" unicode="&#x251c;" horiz-adv-x="920" vert-adv-y="1105" 
d="M920 315v-29h-445v-486h-29v1000h29v-485h445z" />
    <glyph glyph-name="uni251D" unicode="&#x251d;" horiz-adv-x="920" vert-adv-y="1105" 
d="M920 336v-72h-441v-464h-38v1000h38v-464h441z" />
    <glyph glyph-name="uni251E" unicode="&#x251e;" horiz-adv-x="920" vert-adv-y="1105" 
d="M920 318v-36h-442l1 -482h-38v500h-19v500h76v-482h422z" />
    <glyph glyph-name="uni251F" unicode="&#x251f;" horiz-adv-x="920" vert-adv-y="1105" 
d="M920 318v-36h-422v-482h-76v500h19v500h38v-482h441z" />
    <glyph glyph-name="uni2520" unicode="&#x2520;" horiz-adv-x="920" vert-adv-y="1105" 
d="M920 318v-36h-423v-482h-76v1000h76v-482h423z" />
    <glyph glyph-name="uni2521" unicode="&#x2521;" horiz-adv-x="920" vert-adv-y="1105" 
d="M920 336v-72h-441v-464h-38v500h-19v500h76v-464h422z" />
    <glyph glyph-name="uni2522" unicode="&#x2522;" horiz-adv-x="920" vert-adv-y="1105" 
d="M920 336v-72h-422v-464h-76v500h19v500h38v-464h441z" />
    <glyph glyph-name="uni2523" unicode="&#x2523;" horiz-adv-x="920" vert-adv-y="1105" 
d="M920 325v-54h-433v-471h-54v1000h54v-475h433z" />
    <glyph glyph-name="SF090000" unicode="&#x2524;" horiz-adv-x="920" vert-adv-y="1105" 
d="M475 800v-1000h-29v486h-446v29h446v485h29z" />
    <glyph glyph-name="uni2525" unicode="&#x2525;" horiz-adv-x="920" vert-adv-y="1105" 
d="M479 800v-1000h-38v464h-441v72h441v464h38z" />
    <glyph glyph-name="uni2526" unicode="&#x2526;" horiz-adv-x="920" vert-adv-y="1105" 
d="M498 800v-500h-19v-500h-38v482h-441v36h422v482h76z" />
    <glyph glyph-name="uni2527" unicode="&#x2527;" horiz-adv-x="920" vert-adv-y="1105" 
d="M498 300v-500h-76v482h-422v36h441v482h38v-500h19z" />
    <glyph glyph-name="uni2528" unicode="&#x2528;" horiz-adv-x="920" vert-adv-y="1105" 
d="M498 800v-1000h-76v482h-422v36h422v482h76z" />
    <glyph glyph-name="uni2529" unicode="&#x2529;" horiz-adv-x="920" vert-adv-y="1105" 
d="M498 800v-500h-19v-500h-38v464h-441v72h422v464h76z" />
    <glyph glyph-name="uni252A" unicode="&#x252a;" horiz-adv-x="920" vert-adv-y="1105" 
d="M498 300v-500h-76v464h-422v72h441v464h38v-500h19z" />
    <glyph glyph-name="uni252B" unicode="&#x252b;" horiz-adv-x="920" vert-adv-y="1105" 
d="M487 800v-1000h-54v471h-433v54h433v475h54z" />
    <glyph glyph-name="SF060000" unicode="&#x252c;" horiz-adv-x="920" vert-adv-y="1105" 
d="M920 315v-29h-445v-486h-29v486h-446v29h920z" />
    <glyph glyph-name="uni252D" unicode="&#x252d;" horiz-adv-x="920" vert-adv-y="1105" 
d="M920 318v-36h-441v-482h-38v464h-441v72h460v-18h460z" />
    <glyph glyph-name="uni252E" unicode="&#x252e;" horiz-adv-x="920" vert-adv-y="1105" 
d="M920 336v-72h-441v-464h-38v482h-441v36h460v18h460z" />
    <glyph glyph-name="uni252F" unicode="&#x252f;" horiz-adv-x="920" vert-adv-y="1105" 
d="M920 336v-72h-441v-464h-38v464h-441v72h920z" />
    <glyph glyph-name="uni2530" unicode="&#x2530;" horiz-adv-x="920" vert-adv-y="1105" 
d="M920 318v-36h-422v-482h-76v482h-422v36h920z" />
    <glyph glyph-name="uni2531" unicode="&#x2531;" horiz-adv-x="920" vert-adv-y="1105" 
d="M920 318v-36h-422v-482h-76v464h-422v72h460v-18h460z" />
    <glyph glyph-name="uni2532" unicode="&#x2532;" horiz-adv-x="920" vert-adv-y="1105" 
d="M920 336v-72h-422v-464h-76v482h-422v36h460v18h460z" />
    <glyph glyph-name="uni2533" unicode="&#x2533;" horiz-adv-x="920" vert-adv-y="1105" 
d="M920 325v-54h-433v-471h-54v471h-433v54h920z" />
    <glyph glyph-name="SF070000" unicode="&#x2534;" horiz-adv-x="920" vert-adv-y="1105" 
d="M920 315v-29h-920v29h446v485h29v-485h445z" />
    <glyph glyph-name="uni2535" unicode="&#x2535;" horiz-adv-x="920" vert-adv-y="1105" 
d="M920 318v-36h-460v-18h-460v72h441v464h38v-482h441z" />
    <glyph glyph-name="uni2536" unicode="&#x2536;" horiz-adv-x="920" vert-adv-y="1105" 
d="M920 336v-72h-460v18h-460v36h441v482h38v-464h441z" />
    <glyph glyph-name="uni2537" unicode="&#x2537;" horiz-adv-x="920" vert-adv-y="1105" 
d="M920 336v-72h-920v72h441v464h38v-464h441z" />
    <glyph glyph-name="uni2538" unicode="&#x2538;" horiz-adv-x="920" vert-adv-y="1105" 
d="M920 318v-36h-920v36h422v482h76v-482h422z" />
    <glyph glyph-name="uni2539" unicode="&#x2539;" horiz-adv-x="920" vert-adv-y="1105" 
d="M920 318v-36h-460v-18h-460v72h422v464h76v-482h422z" />
    <glyph glyph-name="uni253A" unicode="&#x253a;" horiz-adv-x="920" vert-adv-y="1105" 
d="M920 336v-72h-460v18h-460v36h422v482h76v-464h422z" />
    <glyph glyph-name="uni253B" unicode="&#x253b;" horiz-adv-x="920" vert-adv-y="1105" 
d="M920 325v-54h-920v54h433v475h54v-475h433z" />
    <glyph glyph-name="SF050000" unicode="&#x253c;" horiz-adv-x="920" vert-adv-y="1105" 
d="M920 314v-29h-445v-485h-29v485h-446v29h446v486h29v-486h445z" />
    <glyph glyph-name="uni253D" unicode="&#x253d;" horiz-adv-x="920" vert-adv-y="1105" 
d="M920 318v-36h-441v-482h-38v464h-441v76h441v460h38v-482h441z" />
    <glyph glyph-name="uni253E" unicode="&#x253e;" horiz-adv-x="920" vert-adv-y="1105" 
d="M920 336v-72h-441v-464h-38v482h-441v36h441v482h38v-464h441z" />
    <glyph glyph-name="uni253F" unicode="&#x253f;" horiz-adv-x="920" vert-adv-y="1105" 
d="M920 336v-72h-441v-464h-38v464h-441v72h441v464h38v-464h441z" />
    <glyph glyph-name="uni2540" unicode="&#x2540;" horiz-adv-x="920" vert-adv-y="1105" 
d="M920 318v-36h-441v-482h-38v482h-441v36h422v482h76v-482h422z" />
    <glyph glyph-name="uni2541" unicode="&#x2541;" horiz-adv-x="920" vert-adv-y="1105" 
d="M920 318v-36h-422v-482h-76v482h-422v36h441v482h38v-482h441z" />
    <glyph glyph-name="uni2542" unicode="&#x2542;" horiz-adv-x="920" vert-adv-y="1105" 
d="M920 318v-36h-422v-482h-76v482h-422v36h422v482h76v-482h422z" />
    <glyph glyph-name="uni2543" unicode="&#x2543;" horiz-adv-x="920" vert-adv-y="1105" 
d="M920 318v-36h-441v-482h-38v464h-441v72h422v464h76v-482h422z" />
    <glyph glyph-name="uni2544" unicode="&#x2544;" horiz-adv-x="920" vert-adv-y="1105" 
d="M920 336v-72h-441v-464h-38v482h-441v36h422v482h76v-464h422z" />
    <glyph glyph-name="uni2545" unicode="&#x2545;" horiz-adv-x="920" vert-adv-y="1105" 
d="M920 318v-36h-422v-482h-76v464h-422v72h441v464h38v-482h441z" />
    <glyph glyph-name="uni2546" unicode="&#x2546;" horiz-adv-x="920" vert-adv-y="1105" 
d="M920 336v-72h-422v-464h-76v482h-422v36h441v482h38v-464h441z" />
    <glyph glyph-name="uni2547" unicode="&#x2547;" horiz-adv-x="920" vert-adv-y="1105" 
d="M920 336v-72h-441v-464h-38v464h-441v72h422v464h76v-464h422z" />
    <glyph glyph-name="uni2548" unicode="&#x2548;" horiz-adv-x="920" vert-adv-y="1105" 
d="M920 336v-72h-422v-464h-76v464h-422v72h441v464h38v-464h441z" />
    <glyph glyph-name="uni2549" unicode="&#x2549;" horiz-adv-x="920" vert-adv-y="1105" 
d="M920 318v-36h-422v-482h-76v464h-422v72h422v464h76v-482h422z" />
    <glyph glyph-name="uni254A" unicode="&#x254a;" horiz-adv-x="920" vert-adv-y="1105" 
d="M920 336v-72h-422v-464h-76v482h-422v36h422v482h76v-464h422z" />
    <glyph glyph-name="uni254B" unicode="&#x254b;" horiz-adv-x="920" vert-adv-y="1105" 
d="M920 325v-54h-433v-471h-54v471h-433v54h433v475h54v-475h433z" />
    <glyph glyph-name="shade" unicode="&#x2592;" vert-adv-y="1105" 
d="M827 669v-743h-744v743h744zM116 -41h678v677h-678v-677zM762 581q0 -11 -7.5 -18t-18.5 -7q-25 0 -25 25q0 11 7 18.5t18 7.5t18.5 -7.5t7.5 -18.5zM668 581q0 -25 -25 -25t-25 25q0 11 7 18.5t18 7.5t18 -7.5t7 -18.5zM762 487q0 -10 -7.5 -17t-18.5 -7t-18 7t-7 17
q0 11 7 18.5t18 7.5t18.5 -7.5t7.5 -18.5zM668 487q0 -10 -7 -17t-18 -7t-18 7t-7 17q0 11 7 18.5t18 7.5t18 -7.5t7 -18.5zM575 581q0 -11 -7.5 -18t-18.5 -7t-18.5 7t-7.5 18t7.5 18.5t18.5 7.5t18.5 -7.5t7.5 -18.5zM762 394q0 -11 -7.5 -18.5t-18.5 -7.5t-18 7.5
t-7 18.5t7 18.5t18 7.5t18.5 -7.5t7.5 -18.5zM575 487q0 -10 -7.5 -17t-18.5 -7t-18.5 7t-7.5 17q0 11 7.5 18.5t18.5 7.5t18.5 -7.5t7.5 -18.5zM668 394q0 -11 -7 -18.5t-18 -7.5t-18 7.5t-7 18.5t7 18.5t18 7.5t18 -7.5t7 -18.5zM480 581q0 -25 -25 -25q-10 0 -17.5 7
t-7.5 18t7.5 18.5t17.5 7.5q11 0 18 -7.5t7 -18.5zM762 300q0 -10 -7.5 -17.5t-18.5 -7.5t-18 7.5t-7 17.5q0 25 25 25q11 0 18.5 -7t7.5 -18zM480 487q0 -10 -7 -17t-18 -7q-10 0 -17.5 7t-7.5 17q0 11 7.5 18.5t17.5 7.5q11 0 18 -7.5t7 -18.5zM575 394q0 -11 -7.5 -18.5
t-18.5 -7.5t-18.5 7.5t-7.5 18.5t7.5 18.5t18.5 7.5t18.5 -7.5t7.5 -18.5zM668 300q0 -10 -7 -17.5t-18 -7.5t-18 7.5t-7 17.5q0 25 25 25t25 -25zM387 581q0 -11 -7.5 -18t-18.5 -7q-25 0 -25 25q0 11 7 18.5t18 7.5t18.5 -7.5t7.5 -18.5zM762 206q0 -11 -7.5 -18.5
t-18.5 -7.5t-18 7.5t-7 18.5t7 18.5t18 7.5t18.5 -7.5t7.5 -18.5zM387 487q0 -10 -7.5 -17t-18.5 -7t-18 7t-7 17q0 11 7 18.5t18 7.5t18.5 -7.5t7.5 -18.5zM480 394q0 -11 -7 -18.5t-18 -7.5q-10 0 -17.5 7.5t-7.5 18.5t7.5 18.5t17.5 7.5q11 0 18 -7.5t7 -18.5zM575 300
q0 -10 -7.5 -17.5t-18.5 -7.5t-18.5 7.5t-7.5 17.5q0 11 7.5 18t18.5 7t18.5 -7t7.5 -18zM668 206q0 -11 -7 -18.5t-18 -7.5t-18 7.5t-7 18.5t7 18.5t18 7.5t18 -7.5t7 -18.5zM293 581q0 -11 -7.5 -18t-17.5 -7q-11 0 -18.5 7t-7.5 18t7.5 18.5t18.5 7.5q10 0 17.5 -7.5
t7.5 -18.5zM762 113q0 -11 -7.5 -18.5t-18.5 -7.5t-18 7.5t-7 18.5q0 10 7 17t18 7t18.5 -7t7.5 -17zM199 581q0 -25 -24 -25q-11 0 -18.5 7t-7.5 18t7.5 18.5t18.5 7.5q24 0 24 -26zM293 487q0 -10 -7.5 -17t-17.5 -7q-11 0 -18.5 7t-7.5 17q0 11 7.5 18.5t18.5 7.5
q10 0 17.5 -7.5t7.5 -18.5zM387 394q0 -11 -7.5 -18.5t-18.5 -7.5t-18 7.5t-7 18.5t7 18.5t18 7.5t18.5 -7.5t7.5 -18.5zM480 300q0 -10 -7 -17.5t-18 -7.5q-10 0 -17.5 7.5t-7.5 17.5q0 11 7.5 18t17.5 7q25 0 25 -25zM575 206q0 -11 -7.5 -18.5t-18.5 -7.5t-18.5 7.5
t-7.5 18.5t7.5 18.5t18.5 7.5t18.5 -7.5t7.5 -18.5zM668 113q0 -11 -7 -18.5t-18 -7.5t-18 7.5t-7 18.5q0 10 7 17t18 7t18 -7t7 -17zM762 19q0 -11 -7.5 -18.5t-18.5 -7.5t-18 7.5t-7 18.5q0 25 25 25q11 0 18.5 -7t7.5 -18zM199 487q0 -10 -6.5 -17t-17.5 -7t-18.5 7
t-7.5 17q0 11 7.5 18.5t18.5 7.5q24 0 24 -26zM668 19q0 -11 -7 -18.5t-18 -7.5t-18 7.5t-7 18.5q0 25 25 25t25 -25zM293 394q0 -11 -7.5 -18.5t-17.5 -7.5q-11 0 -18.5 7.5t-7.5 18.5t7.5 18.5t18.5 7.5q10 0 17.5 -7.5t7.5 -18.5zM387 300q0 -10 -7.5 -17.5t-18.5 -7.5
t-18 7.5t-7 17.5q0 25 25 25q11 0 18.5 -7t7.5 -18zM480 206q0 -11 -7 -18.5t-18 -7.5q-10 0 -17.5 7.5t-7.5 18.5t7.5 18.5t17.5 7.5q11 0 18 -7.5t7 -18.5zM575 113q0 -11 -7.5 -18.5t-18.5 -7.5t-18.5 7.5t-7.5 18.5q0 10 7.5 17t18.5 7t18.5 -7t7.5 -17zM199 394
q0 -26 -24 -26q-11 0 -18.5 7.5t-7.5 18.5t7.5 18.5t18.5 7.5q24 0 24 -26zM575 19q0 -11 -7.5 -18.5t-18.5 -7.5t-18.5 7.5t-7.5 18.5t7.5 18t18.5 7t18.5 -7t7.5 -18zM293 300q0 -10 -7.5 -17.5t-17.5 -7.5q-11 0 -18.5 7.5t-7.5 17.5q0 11 7.5 18t18.5 7q10 0 17.5 -7
t7.5 -18zM387 206q0 -11 -7.5 -18.5t-18.5 -7.5t-18 7.5t-7 18.5t7 18.5t18 7.5t18.5 -7.5t7.5 -18.5zM480 113q0 -11 -7 -18.5t-18 -7.5q-10 0 -17.5 7.5t-7.5 18.5q0 10 7.5 17t17.5 7q11 0 18 -7t7 -17zM199 300q0 -10 -6.5 -17.5t-17.5 -7.5t-18.5 7.5t-7.5 17.5
q0 11 7.5 18t18.5 7q24 0 24 -25zM480 19q0 -11 -7 -18.5t-18 -7.5q-10 0 -17.5 7.5t-7.5 18.5t7.5 18t17.5 7q25 0 25 -25zM293 206q0 -11 -7.5 -18.5t-17.5 -7.5q-11 0 -18.5 7.5t-7.5 18.5t7.5 18.5t18.5 7.5q10 0 17.5 -7.5t7.5 -18.5zM387 113q0 -11 -7.5 -18.5
t-18.5 -7.5t-18 7.5t-7 18.5q0 10 7 17t18 7t18.5 -7t7.5 -17zM199 206q0 -26 -24 -26q-11 0 -18.5 7.5t-7.5 18.5t7.5 18.5t18.5 7.5q24 0 24 -26zM387 19q0 -11 -7.5 -18.5t-18.5 -7.5t-18 7.5t-7 18.5q0 25 25 25q11 0 18.5 -7t7.5 -18zM293 113q0 -11 -7.5 -18.5
t-17.5 -7.5q-11 0 -18.5 7.5t-7.5 18.5q0 10 7.5 17t18.5 7q10 0 17.5 -7t7.5 -17zM199 113q0 -26 -24 -26q-11 0 -18.5 7.5t-7.5 18.5q0 10 7.5 17t18.5 7t17.5 -7t6.5 -17zM293 19q0 -11 -7.5 -18.5t-17.5 -7.5q-11 0 -18.5 7.5t-7.5 18.5t7.5 18t18.5 7q10 0 17.5 -7
t7.5 -18zM199 19q0 -26 -24 -26q-11 0 -18.5 7.5t-7.5 18.5t7.5 18t18.5 7q24 0 24 -25z" />
    <glyph glyph-name="filledbox" unicode="&#x25a0;" vert-adv-y="1105" 
d="M802 -14h-695v694h695v-694z" />
    <glyph glyph-name="H22073" unicode="&#x25a1;" vert-adv-y="1105" 
d="M739 617h-567v-566h567v566zM108 -14v694h694v-694h-694z" />
    <glyph glyph-name="uni25A3" unicode="&#x25a3;" vert-adv-y="1105" 
d="M830 672v-750h-751v750h751zM124 -33h661v660h-661v-660zM682 524v-455h-455v455h455z" />
    <glyph glyph-name="uni25A4" unicode="&#x25a4;" vert-adv-y="1105" 
d="M827 669v-743h-744v743h744zM116 568h678v68h-678v-68zM116 463h678v73h-678v-73zM116 365h678v66h-678v-66zM116 262h678v71h-678v-71zM116 158h678v72h-678v-72zM116 58h678v68h-678v-68zM116 -41h678v67h-678v-67z" />
    <glyph glyph-name="uni25A5" unicode="&#x25a5;" vert-adv-y="1105" 
d="M827 669v-743h-744v743h744zM726 -41h68v677h-68v-677zM626 -41h68v677h-68v-677zM522 -41h72v677h-72v-677zM419 -41h71v677h-71v-677zM321 -41h66v677h-66v-677zM216 -41h73v677h-73v-677zM116 -41h68v677h-68v-677z" />
    <glyph glyph-name="uni25A6" unicode="&#x25a6;" vert-adv-y="1105" 
d="M827 669v-743h-744v743h744zM723 565h71v71h-71v-71zM723 464h71v71h-71v-71zM621 565h71v71h-71v-71zM723 363h71v71h-71v-71zM520 565h71v71h-71v-71zM621 464h71v71h-71v-71zM723 262h71v71h-71v-71zM419 565h71v71h-71v-71zM520 464h71v71h-71v-71zM621 363h71v71
h-71v-71zM723 161h71v71h-71v-71zM318 565h71v71h-71v-71zM419 464h71v71h-71v-71zM520 363h71v71h-71v-71zM621 262h71v71h-71v-71zM723 60h71v71h-71v-71zM217 565h71v71h-71v-71zM318 464h71v71h-71v-71zM419 363h71v71h-71v-71zM520 262h71v71h-71v-71zM621 161h71v71
h-71v-71zM723 -41h71v71h-71v-71zM116 565h71v71h-71v-71zM217 464h71v71h-71v-71zM318 363h71v71h-71v-71zM419 262h71v71h-71v-71zM520 161h71v71h-71v-71zM621 60h71v71h-71v-71zM621 -41h71v71h-71v-71zM116 464h71v71h-71v-71zM217 363h71v71h-71v-71zM318 262h71v71
h-71v-71zM419 161h71v71h-71v-71zM520 60h71v71h-71v-71zM520 -41h71v71h-71v-71zM116 363h71v71h-71v-71zM217 262h71v71h-71v-71zM318 161h71v71h-71v-71zM419 60h71v71h-71v-71zM419 -41h71v71h-71v-71zM116 262h71v71h-71v-71zM217 161h71v71h-71v-71zM318 60h71v71h-71
v-71zM318 -41h71v71h-71v-71zM116 161h71v71h-71v-71zM217 60h71v71h-71v-71zM217 -41h71v71h-71v-71zM116 60h71v71h-71v-71zM116 -41h71v71h-71v-71z" />
    <glyph glyph-name="uni25A7" unicode="&#x25a7;" vert-adv-y="1105" 
d="M827 669v-743h-744v743h744zM639 636l155 -154v154h-155zM472 636l322 -321v119l-203 202h-119zM306 636l488 -487v118l-370 369h-118zM141 636l653 -653v118l-536 535h-117zM652 -41h118l-654 654v-118zM486 -41h118l-488 488v-118zM320 -41h118l-322 322v-118zM116 -41
h156l-156 156v-156z" />
    <glyph glyph-name="uni25A8" unicode="&#x25a8;" vert-adv-y="1105" 
d="M827 669v-743h-744v743h744zM258 -41l536 536v118l-654 -654h118zM424 -41l370 370v118l-488 -488h118zM590 -41l204 204v118l-322 -322h118zM638 -41h156v156zM116 482l155 154h-155v-154zM116 315l322 321h-119l-203 -202v-119zM116 149l488 487h-118l-370 -369v-118z
M116 -17l653 653h-117l-536 -535v-118z" />
    <glyph glyph-name="uni25A9" unicode="&#x25a9;" vert-adv-y="1105" 
d="M827 669v-743h-744v743h744zM727 548l67 -66v133zM703 572l65 64h-129zM710 398l60 60l-66 67l-61 -60zM620 488l59 60l-64 64l-60 -59zM532 576l60 60h-120zM734 374l60 -60v120zM448 494l60 59l-60 59l-59 -59zM537 406l59 59l-65 63l-59 -58zM627 315l59 60l-66 66
l-59 -59zM711 232l59 59l-60 59l-59 -59zM365 577l59 59h-118zM735 208l59 -59v118zM544 233l60 58l-68 67l-58 -59zM282 495l59 58l-60 60l-58 -59zM454 323l58 59l-64 64l-58 -59zM628 149l59 59l-60 59l-58 -58zM711 66l59 59l-59 59l-59 -59zM366 411l58 59l-60 59
l-58 -58zM199 578l59 58h-117zM735 42l59 -59v118zM652 -41h118l-59 59zM116 495l59 59l-59 59v-118zM461 150l60 58l-67 68l-59 -60zM199 412l59 59l-59 59l-59 -59zM282 329l59 59l-59 59l-59 -59zM371 241l58 58l-64 65l-59 -59zM545 66l59 59l-59 59l-59 -59zM628 -17
l59 59l-59 59l-59 -59zM486 -41h118l-59 59zM116 329l59 59l-59 59v-118zM199 246l59 59l-59 59l-59 -59zM287 158l59 59l-64 64l-59 -59zM378 66l60 59l-67 68l-60 -59zM462 -17l59 59l-59 59l-59 -59zM116 164l59 58l-59 59v-117zM319 -41h119l-59 59zM204 75l59 59
l-64 64l-59 -59zM296 -17l58 60l-67 67l-59 -59zM116 -13l64 64l-64 64v-128zM137 -41h135l-68 68z" />
    <glyph glyph-name="uni25B1" unicode="&#x25b1;" horiz-adv-x="940" vert-adv-y="1105" 
 />
    <glyph glyph-name="triagup" unicode="&#x25b2;" vert-adv-y="1105" 
d="M825 -53h-741l371 738z" />
    <glyph glyph-name="uni25B3" unicode="&#x25b3;" vert-adv-y="1105" 
d="M178 9h549l-274 548zM826 -48h-743l372 738z" />
    <glyph glyph-name="uni25B5" unicode="&#x25b5;" horiz-adv-x="940" vert-adv-y="1105" 
 />
    <glyph glyph-name="uni25B6" unicode="&#x25b6;" vert-adv-y="1105" 
d="M143 694l624 -394l-624 -392v786z" />
    <glyph glyph-name="uni25B7" unicode="&#x25b7;" vert-adv-y="1105" 
d="M143 694l624 -394l-624 -392v786zM191 -3l485 303l-485 305v-608z" />
    <glyph glyph-name="uni25B9" unicode="&#x25b9;" horiz-adv-x="940" vert-adv-y="1105" 
 />
    <glyph glyph-name="triagdn" unicode="&#x25bc;" vert-adv-y="1105" 
d="M84 663h741l-370 -738z" />
    <glyph glyph-name="uni25BD" unicode="&#x25bd;" vert-adv-y="1105" 
d="M729 605h-549l275 -548zM83 663h743l-371 -738z" />
    <glyph glyph-name="uni25BF" unicode="&#x25bf;" horiz-adv-x="940" vert-adv-y="1105" 
 />
    <glyph glyph-name="uni25C0" unicode="&#x25c0;" vert-adv-y="1105" 
d="M767 694v-786l-624 392z" />
    <glyph glyph-name="uni25C1" unicode="&#x25c1;" vert-adv-y="1105" 
d="M767 694v-786l-624 392zM233 300l485 -303v608z" />
    <glyph glyph-name="uni25C3" unicode="&#x25c3;" horiz-adv-x="940" vert-adv-y="1105" 
 />
    <glyph glyph-name="uni25C6" unicode="&#x25c6;" vert-adv-y="1105" 
d="M456 -60l-394 394l393 392l393 -393z" />
    <glyph glyph-name="uni25C7" unicode="&#x25c7;" vert-adv-y="1105" 
d="M756 333l-301 302l-303 -301l303 -304zM62 333l393 393l392 -393l-392 -393z" />
    <glyph glyph-name="uni25C8" unicode="&#x25c8;" vert-adv-y="1105" 
d="M455 736l438 -438l-439 -439l-438 438zM454 -83l381 381l-380 379l-381 -380zM455 562l265 -265l-265 -266l-267 266z" />
    <glyph glyph-name="uni25C9" unicode="&#x25c9;" vert-adv-y="1105" 
d="M849 299q0 -163 -115.5 -278.5t-278.5 -115.5q-162 0 -278 115.5t-116 278.5t116 278.5t278 115.5q163 0 278.5 -115.5t115.5 -278.5zM793 299q0 139 -99.5 238.5t-238.5 99.5t-238.5 -99.5t-99.5 -238.5t99.5 -238.5t238.5 -99.5t238.5 99.5t99.5 238.5zM610 299
q0 -65 -45 -110t-110 -45q-63 0 -109 45.5t-46 109.5t46 109.5t109 45.5q65 0 110 -45t45 -110z" />
    <glyph glyph-name="lozenge" unicode="&#x25ca;" horiz-adv-x="940" vert-adv-y="1105" 
 />
    <glyph glyph-name="circle" unicode="&#x25cb;" vert-adv-y="1105" 
d="M156 334q0 -124 87.5 -211.5t211.5 -87.5q125 0 212 87.5t87 211.5t-87 211.5t-212 87.5q-124 0 -211.5 -87.5t-87.5 -211.5zM93 334q0 149 106 255.5t256 106.5t256 -106t106 -256q0 -151 -105.5 -257t-256.5 -106q-150 0 -256 106t-106 257z" />
    <glyph glyph-name="uni25CC" unicode="&#x25cc;" horiz-adv-x="940" vert-adv-y="1105" 
 />
    <glyph glyph-name="uni25CE" unicode="&#x25ce;" vert-adv-y="1105" 
d="M299 334q0 -64 45.5 -110t110.5 -46t110.5 46t45.5 110q0 63 -46 109.5t-110 46.5t-110 -46.5t-46 -109.5zM240 334q0 89 63 152t152 63t152 -63t63 -152t-63 -152t-152 -63t-152 63t-63 152zM158 334q0 -123 87 -210t210 -87q124 0 211 87t87 210t-87 210.5t-211 87.5
q-123 0 -210 -87.5t-87 -210.5zM93 334q0 149 106 255.5t256 106.5t256 -106t106 -256q0 -151 -105.5 -257t-256.5 -106q-150 0 -256 106t-106 257z" />
    <glyph glyph-name="H18533" unicode="&#x25cf;" vert-adv-y="1105" 
d="M93 334q0 149 106 255.5t256 106.5t256 -106t106 -256q0 -151 -105.5 -257t-256.5 -106q-150 0 -256 106t-106 257z" />
    <glyph glyph-name="uni25D0" unicode="&#x25d0;" vert-adv-y="1105" 
d="M845 299q0 -162 -114 -276t-276 -114q-160 0 -275 114.5t-115 275.5t115 275.5t275 114.5q162 0 276 -114t114 -276zM806 299q0 144 -103.5 247.5t-247.5 103.5v-701q144 0 247.5 103t103.5 247z" />
    <glyph glyph-name="uni25D1" unicode="&#x25d1;" vert-adv-y="1105" 
d="M845 299q0 -161 -115 -275.5t-275 -114.5q-162 0 -276 114t-114 276t114 276t276 114q160 0 275 -114.5t115 -275.5zM455 -51v701q-144 0 -247.5 -103.5t-103.5 -247.5t103.5 -247t247.5 -103z" />
    <glyph glyph-name="openbullet" unicode="&#x25e6;" horiz-adv-x="940" vert-adv-y="1105" 
 />
    <glyph glyph-name="uni25EF" unicode="&#x25ef;" horiz-adv-x="940" vert-adv-y="1105" 
 />
    <glyph glyph-name="uni2605" unicode="&#x2605;" vert-adv-y="1105" 
d="M457 758l109 -322h340l-276 -205l104 -325l-277 196l-282 -196l106 325l-278 205h346z" />
    <glyph glyph-name="uni2606" unicode="&#x2606;" vert-adv-y="1105" 
d="M529 387l-73 217l-72 -217h-233l187 -139l-73 -218l191 133l186 -133l-68 218l185 139h-230zM457 758l109 -322h340l-276 -205l104 -325l-277 196l-282 -196l106 325l-278 205h346z" />
    <glyph glyph-name="uni260E" unicode="&#x260e;" vert-adv-y="1105" 
d="M878 328q-6 -10 -18.5 -13t-35 0t-36 6t-41.5 10q-79 23 -85 54q-3 11 7 40.5t9 38.5q-5 29 -55 37q-8 -63 11 -127q9 -33 24 -57.5t28.5 -38t39.5 -34.5q70 -59 70 -169q14 -5 19 -30t2 -50q-1 -16 -34 -16h-656q-33 0 -34 16q-3 25 2 50t19 30q0 110 70 169
q26 21 39.5 34.5t28.5 38t24 57.5q19 69 11 127q-50 -8 -55 -37q-2 -9 8.5 -39t7.5 -40q-6 -31 -85 -54q-28 -7 -41.5 -10t-36 -6t-35 0t-18.5 13q-14 18 -6 70.5t34 85.5q46 60 156 90.5t239 30.5t239 -30.5t156 -90.5q26 -33 34 -85.5t-6 -70.5zM377 439h156v65
q-38 -10 -78 -10t-78 10v-65zM602 208q0 61 -43 104t-104 43t-104 -43t-43 -104t43 -103.5t104 -42.5t104 42.5t43 103.5z" />
    <glyph glyph-name="uni260F" unicode="&#x260f;" vert-adv-y="1105" 
d="M878 328q-6 -10 -18.5 -13t-35 0t-36 6t-41.5 10q-79 23 -85 54q-3 11 6 40.5t8 38.5q-2 13 -11.5 20t-17 8.5t-24.5 3.5q-8 -60 11 -122q9 -33 24 -57.5t28.5 -38t39.5 -34.5q70 -59 70 -169q14 -5 19 -30t2 -50q-1 -16 -34 -16h-656q-33 0 -34 16q-3 25 2 50t19 30
q0 110 70 169q26 21 39.5 34.5t28.5 38t24 57.5q18 67 11 122q-17 -2 -24.5 -3.5t-17 -8.5t-11.5 -20q-2 -9 7.5 -39t6.5 -40q-6 -31 -85 -54q-28 -7 -41.5 -10t-36 -6t-35 0t-18.5 13q-14 18 -6 70t34 85q46 60 156 91t239 31t239 -31t156 -91q26 -33 34 -85t-6 -70z
M385 436h140v59q-34 -10 -70 -10t-70 10v-59zM845 346q10 1 11.5 26.5t-14.5 63.5t-50 65q-41 33 -146.5 55.5t-190.5 22.5q-104 0 -199.5 -22t-138.5 -56q-34 -27 -50 -65t-14 -63.5t11 -26.5q37 -4 80 8.5t68 30.5q7 5 -2.5 41.5t-0.5 56.5q18 43 138 43q12 0 46 -6
q35 -8 62 -8q25 0 62 8q34 6 45 6q117 0 139 -43q9 -20 -1 -56.5t-3 -41.5q24 -18 68 -30.5t80 -8.5zM134 9h642q4 0 5.5 13t-2.5 28.5t-14 21.5q0 31 -11 71.5t-34 62.5q-66 63 -82 86q-11 17 -19 37q-32 89 -25 167h-41v-86h-196v86h-42q8 -80 -24 -167q-3 -7 -6 -13.5
t-5.5 -11.5t-7.5 -11.5t-7.5 -10t-9.5 -11t-9.5 -11t-12 -12.5t-12.5 -12t-15.5 -14.5t-16.5 -15.5q-23 -22 -34 -62.5t-11 -71.5q-10 -6 -14 -21.5t-2 -28.5t6 -13zM617 206q0 -67 -48 -114.5t-114 -47.5q-67 0 -114.5 47.5t-47.5 114.5q0 66 47.5 114t114.5 48
q66 0 114 -48t48 -114zM585 206q0 54 -38 92t-92 38t-92 -38t-38 -92t38 -91.5t92 -37.5t92 37.5t38 91.5z" />
    <glyph glyph-name="uni261C" unicode="&#x261c;" vert-adv-y="1105" 
d="M847 420v-236h-76v21h-29q-63 -38 -168 -55q-38 -5 -99 -5t-94 5q-49 8 -55 33q-4 20 15 32q-14 0 -25.5 9.5t-12.5 23.5q-1 18 11 30q-36 4 -36 33q0 22 19 31t63 9l-3 8q-101 3 -171 7q-81 4 -100 12q-24 10 -24 31q0 32 107 38q7 1 11 1q62 5 287 5h14q55 0 84.5 -2
t73 -15.5t73.5 -41.5q32 -8 60 -6v32h75zM752 217h20v154q-23 -2 -44 3l2 -8q2 -11 -1 -10q-1 0 -6 5q-19 23 -58 49q-28 18 -89.5 25t-95.5 2q-34 -4 -66 -24q-11 -6 -22 -27q-8 -17 -19 -24q-6 -8 6 -10q9 -1 25 5q11 4 22.5 14t17.5 15.5t8 2.5q6 -5 -4 -15q20 -8 41 -4
q11 3 21.5 8.5t15 7.5t5.5 0q4 -11 -14 -23q8 -11 29.5 -27t49.5 -25q22 -7 46 -10.5t35 -5t11 -6.5q-1 -6 -31.5 -4t-55.5 9q-67 22 -100 67q-6 -4 -23 -4q-21 1 -42 7l-15 -13q59 0 65 -25q7 -26 -11 -41q28 -7 31 -28q2 -20 -15 -32q29 -6 32 -28q2 -9 -1 -17t-6.5 -11.5
t-5.5 -4.5q14 -3 35 0q122 11 202 62q6 5 7 -1zM429 437q-68 0 -248 -4q-56 -2 -79 -6t-23 -18t19 -18.5t83 -8.5q153 -7 187 -8l21 32q17 23 40 31zM787 200h44v203h-44v-203zM490 247q1 14 -5.5 20t-22.5 8q-32 4 -119 0q-10 -1 -16.5 -8t-6.5 -17q0 -16 25 -20
q9 -2 60.5 -3t53.5 0q11 0 20.5 5t10.5 15zM507 194q-1 18 -31 18q-70 2 -113 -1q-22 -2 -18 -24q2 -15 18 -18q49 -10 114 -4q33 2 30 29zM467 316q0 16 -20 17q-88 5 -134 0q-21 -3 -19 -22q0 -7 5.5 -13t14.5 -6q77 -4 134 2q19 3 19 22z" />
    <glyph glyph-name="uni261D" unicode="&#x261d;" horiz-adv-x="940" vert-adv-y="1105" 
 />
    <glyph glyph-name="uni261E" unicode="&#x261e;" vert-adv-y="1105" 
d="M847 409q0 -13 -7.5 -21.5t-29 -13t-31 -5.5t-40.5 -2q-4 0 -6 -0.5t-5 -0.5h-5q-70 -4 -171 -7l-3 -8q44 0 63 -9t19 -31q0 -29 -36 -33q12 -12 11 -30q-1 -14 -12.5 -23.5t-25.5 -9.5q19 -12 15 -32q-6 -25 -55 -33q-33 -5 -94 -5t-99 5q-105 17 -168 55h-29v-21h-76
v236h75v-32q28 -2 60 6q30 28 73.5 41.5t73 15.5t84.5 2h14q225 0 287 -5q85 -5 103 -15q15 -9 15 -24zM536 362q-11 7 -19 24q-11 21 -22 27q-32 20 -66 24q-34 5 -95.5 -2t-89.5 -25q-39 -26 -58 -49q-4 -4 -5.5 -5t-2 1t0.5 9l2 8q-21 -5 -44 -3v-154h20l-2 8q-1 3 1 3
q2 1 6 -2q80 -51 202 -62q20 -3 33 0q-16 10 -11 33q3 22 32 28q-17 12 -15 32q5 21 31 28q-18 15 -11 41q8 25 65 25l-15 13q-21 -6 -42 -7q-17 0 -23 4q-33 -45 -100 -67q-25 -7 -55.5 -9t-31.5 4q0 5 11 6.5t35 5t46 10.5q28 9 49.5 25t29.5 27q-18 12 -14 23q1 2 5.5 0
t15 -7.5t21.5 -8.5q21 -4 41 4q-9 10 -4 15q2 3 8 -2.5t17.5 -15.5t22.5 -14q30 -12 32 0q1 3 -1 5zM830 409q0 14 -23 18t-79 6q-180 4 -248 4q23 -8 40 -31l21 -32q34 1 187 8q84 6 95 14q7 5 7 13zM78 200h44v203h-44v-203zM589 250q0 10 -6.5 17t-16.5 8q-87 4 -119 0
q-16 -2 -22.5 -8t-5.5 -20q1 -10 10.5 -15t20.5 -5q2 -1 53.5 0t60.5 3q25 4 25 20zM564 187q4 22 -18 24q-43 3 -113 1q-30 0 -31 -18q-3 -27 30 -29q65 -6 114 4q16 3 18 18zM615 311q2 19 -19 22q-46 5 -134 0q-20 -1 -20 -17q0 -19 19 -22q57 -6 134 -2q9 0 14.5 6
t5.5 13z" />
    <glyph glyph-name="uni261F" unicode="&#x261f;" horiz-adv-x="940" vert-adv-y="1105" 
 />
    <glyph glyph-name="uni262F" unicode="&#x262f;" horiz-adv-x="940" vert-adv-y="1105" 
 />
    <glyph glyph-name="female" unicode="&#x2640;" horiz-adv-x="652" vert-adv-y="1105" 
d="M123 462q0 -86 58.5 -147t144.5 -61q84 0 143.5 61.5t59.5 146.5t-59.5 146.5t-143.5 61.5q-86 0 -144.5 -61t-58.5 -147zM290 59v128q-103 14 -172 91t-69 184q0 115 80.5 196t196.5 81q115 0 196 -81t81 -196q0 -107 -69.5 -184.5t-172.5 -90.5v-128h141v-69h-141v-139
h-71v139h-141v69h141z" />
    <glyph glyph-name="male" unicode="&#x2642;" horiz-adv-x="776" vert-adv-y="1105" 
d="M123 262q0 -86 58.5 -147t144.5 -61q84 0 143.5 61.5t59.5 146.5t-59.5 146.5t-143.5 61.5q-86 0 -144.5 -61t-58.5 -147zM49 262q0 115 80.5 196t196.5 81q95 0 170 -58l115 114h-105v68h222v-221h-69v106l-115 -116q59 -75 59 -170q0 -115 -81 -196t-196 -81
q-116 0 -196.5 81t-80.5 196z" />
    <glyph glyph-name="spade" unicode="&#x2660;" vert-adv-y="1105" 
d="M785 200q0 -67 -39 -110t-101 -43q-27 0 -53 11t-72 37q2 -39 17.5 -96t35.5 -94q9 -19 -14 -22q-45 -5 -104 -5q-57 0 -104 5q-23 3 -14 22q43 88 52 190q-82 -48 -124 -48q-63 0 -102 43t-39 110q0 33 20 80.5t44 88.5t75 110t80 105.5t92 115.5q13 17 20 25
q176 -221 233 -305q97 -146 97 -220z" />
    <glyph glyph-name="uni2661" unicode="&#x2661;" vert-adv-y="1105" 
d="M808 479q0 -69 -33.5 -150.5t-89.5 -159.5t-112.5 -143t-117.5 -124q-61 59 -118 124t-113 143t-89.5 159.5t-33.5 150.5q0 84 52 141t127 57q133 0 175 -182q41 182 174 182q75 0 127 -57t52 -141zM744 461q0 153 -136 153q-36 0 -63 -36.5t-41 -82.5
q-6 -21 -19.5 -37.5t-29.5 -16.5q-15 0 -28 17t-18 37q-15 45 -47 82t-60 37q-137 0 -137 -153q0 -100 86.5 -229.5t203.5 -250.5q72 75 131 149t108.5 168t49.5 163z" />
    <glyph glyph-name="club" unicode="&#x2663;" vert-adv-y="1105" 
d="M858 210q0 -76 -48 -132t-124 -56q-86 0 -162 83q40 -92 40 -205q0 -14 -18 -16q-34 -3 -91 -3q-58 0 -91 3q-18 2 -18 16q0 54 11.5 111.5t27.5 93.5q-28 -32 -71 -57.5t-91 -25.5q-75 0 -123 56t-48 132q0 73 47.5 127t118.5 54q44 0 124 -38q22 -10 29 3q9 13 -8 30
q-50 43 -70.5 79.5t-20.5 88.5q0 73 54 118.5t129 45.5t129 -45.5t54 -118.5q0 -52 -20.5 -88t-70.5 -80q-17 -17 -8 -30q7 -13 29 -3q78 38 123 38q71 0 119 -54.5t48 -126.5z" />
    <glyph glyph-name="uni2664" unicode="&#x2664;" vert-adv-y="1105" 
d="M785 200q0 -67 -39 -110t-101 -43q-27 0 -53 11t-72 37q2 -39 17.5 -96t35.5 -94q9 -19 -14 -22q-45 -5 -104 -5q-57 0 -104 5q-23 3 -14 22q43 88 52 190q-82 -48 -124 -48q-63 0 -102 43t-39 110q0 33 20 80.5t44 88.5t75 110t80 105.5t92 115.5q13 17 20 25
q176 -221 233 -305q97 -146 97 -220zM724 209q0 104 -269 429q-269 -325 -269 -429q0 -41 23 -75t67 -34q32 0 75.5 29.5t50.5 29.5q19 0 28.5 -14t7.5 -38q-5 -69 -29 -145q-5 -17 12 -18q22 -2 34 -2q10 0 34 2q18 1 13 18q-25 80 -30 145q-3 52 36 52q9 0 28.5 -14.5
t46 -29.5t50.5 -15q45 0 68 34t23 75z" />
    <glyph glyph-name="heart" unicode="&#x2665;" vert-adv-y="1105" 
d="M808 479q0 -69 -33.5 -150.5t-89.5 -159.5t-112.5 -143t-117.5 -124q-61 59 -118 124t-113 143t-89.5 159.5t-33.5 150.5q0 84 52 141t127 57q133 0 175 -182q41 182 174 182q75 0 127 -57t52 -141z" />
    <glyph glyph-name="uni2667" unicode="&#x2667;" vert-adv-y="1105" 
d="M858 210q0 -76 -48 -132t-124 -56q-86 0 -162 83q40 -92 40 -205q0 -14 -18 -16q-34 -3 -91 -3q-58 0 -91 3q-18 2 -18 16q0 54 11.5 111.5t27.5 93.5q-28 -32 -71 -57.5t-91 -25.5q-75 0 -123 56t-48 132q0 73 47.5 127t118.5 54q44 0 124 -38q22 -10 29 3q9 13 -8 30
q-50 43 -70.5 79.5t-20.5 88.5q0 73 54 118.5t129 45.5t129 -45.5t54 -118.5q0 -52 -20.5 -88t-70.5 -80q-17 -17 -8 -30q7 -13 29 -3q78 38 123 38q71 0 119 -54.5t48 -126.5zM803 214q0 53 -34.5 91.5t-89.5 38.5q-36 0 -84 -21.5t-62 -21.5q-23 0 -37 14t-14 37
q0 19 16 38.5t35 35.5t35 47.5t16 71.5q0 57 -36.5 89.5t-92.5 32.5q-54 0 -91.5 -32.5t-37.5 -89.5q0 -40 16 -71.5t34.5 -47.5t34.5 -35.5t16 -38.5q0 -23 -13.5 -37t-36.5 -14q-14 0 -62.5 21.5t-84.5 21.5q-54 0 -88.5 -38.5t-34.5 -91.5q0 -57 35 -96.5t93 -39.5
q33 0 62 14t46 31t35.5 31t32.5 14q16 0 16 -21t-15 -87t-15 -119q0 -11 13 -12q21 -3 45 -3t45 3q12 1 12 12q0 53 -14.5 119t-14.5 87t16 21q13 0 31 -14t35.5 -31t47 -31t61.5 -14q58 0 93.5 39.5t35.5 96.5z" />
    <glyph glyph-name="uni2668" unicode="&#x2668;" vert-adv-y="1105" 
d="M657 298q4 -45 -7.5 -80.5t-37 -74.5t-27.5 -42q-19 -37 -28 -73q-3 -6 -7 -7t-7 7q-7 13 -6 45t10 54q58 145 26 221q-21 48 -25.5 91t2 72.5t23.5 69.5q13 33 13 69q0 10 4.5 11.5t9.5 -9.5q26 -49 12 -143q-7 -51 16.5 -110.5t28.5 -100.5zM525 286q0 -16 1 -27
t-5 -30t-10 -30.5t-12.5 -30t-13 -28t-12.5 -24t-10 -19.5q-28 -53 -30 -73q0 -4 -2.5 -6.5t-5 -2t-5.5 2.5t-4 5q-22 51 8 123q18 42 19 92.5t-5.5 79t-14.5 45.5q-11 25 -17.5 48.5t-6 45t1 36t7.5 34.5t10.5 28t13.5 28l12 24q23 47 23 93q0 7 2.5 9.5t6.5 0t6 -7.5
q12 -28 15 -68.5t-12 -95.5q-10 -28 -11 -53t4.5 -48.5t13.5 -44t18 -50t15 -56.5zM853 101q0 -90 -116 -149.5t-277 -59.5q-163 0 -283.5 52t-120.5 130q0 37 23.5 69.5t61.5 53.5t66 33t57 20q12 4 13 -5t-11 -13q-137 -62 -137 -138q0 -48 100.5 -75t231.5 -27
q127 0 229 34.5t102 88.5q0 37 -39 68t-76 42q-12 4 -9 11t13 5q17 -2 43.5 -12t56.5 -26.5t51 -43.5t21 -58zM383 261q5 -49 -55 -165q-22 -42 -24 -62q0 -5 -3 -7.5t-7 -0.5t-7 8q-20 43 -1 97q9 23 15.5 56t6 79t-14.5 79q-49 118 22 250q16 28 23 60q1 5 4 7t5.5 0
t4.5 -6q18 -52 -10 -150q-9 -33 14 -120.5t27 -124.5z" />
    <glyph glyph-name="uni2669" unicode="&#x2669;" horiz-adv-x="388" vert-adv-y="1105" 
d="M288 662v-547q0 -45 -7 -73t-28 -52q-30 -36 -69.5 -50t-69.5 13q-24 33 -6.5 72t57.5 63q37 22 85 29v545h38z" />
    <glyph glyph-name="musicalnote" unicode="&#x266a;" horiz-adv-x="539" vert-adv-y="1105" 
d="M479 339q0 -65 -39 -125q-19 -29 -49 -58t-58 -45q-11 -7 -14.5 -1.5t4.5 13.5q99 96 99 193q0 25 -13.5 46.5t-29.5 34.5t-45 26.5t-44 18.5t-42 13v-340q0 -45 -7 -73t-28 -52q-30 -36 -69.5 -50t-69.5 13q-24 33 -6.5 72t57.5 63q37 22 85 29v500q0 40 9 40
q10 0 31 -24q34 -40 70 -71q86 -74 122.5 -125.5t36.5 -97.5z" />
    <glyph glyph-name="uni266C" unicode="&#x266c;" horiz-adv-x="693" vert-adv-y="1105" 
d="M251 412l347 74v58l-347 -74v-58zM638 645v-454q0 -63 -67 -119q-19 -16 -40 -25.5t-44 -7.5t-37 20q-15 24 -0.5 58t43.5 55q39 29 105 38v182l-347 -75v-223q0 -63 -67 -119q-19 -16 -40 -25.5t-44 -7.5t-37 20q-15 24 -0.5 58t43.5 55q39 29 105 38v446z" />
    <glyph glyph-name="uni266D" unicode="&#x266d;" horiz-adv-x="517" vert-adv-y="1105" 
d="M342 229q0 55 -19.5 91t-51.5 36q-51 0 -80 -38t-29 -80v-214q32 2 61.5 14.5t57 35t44.5 63t17 92.5zM418 266q0 -65 -20.5 -116t-52.5 -82t-76 -52t-85 -30t-85 -11v665h63v-328q34 95 140 95q49 0 82.5 -39t33.5 -102z" />
    <glyph glyph-name="uni266F" unicode="&#x266f;" horiz-adv-x="940" vert-adv-y="1105" 
 />
    <glyph glyph-name="uni2716" unicode="&#x2716;" horiz-adv-x="940" vert-adv-y="1105" 
 />
    <glyph glyph-name="uni271A" unicode="&#x271a;" horiz-adv-x="940" vert-adv-y="1105" 
 />
    <glyph glyph-name="uni273D" unicode="&#x273d;" horiz-adv-x="940" vert-adv-y="1105" 
 />
    <glyph glyph-name="uni2756" unicode="&#x2756;" horiz-adv-x="940" vert-adv-y="1105" 
 />
    <glyph glyph-name="uni2776" unicode="&#x2776;" horiz-adv-x="940" vert-adv-y="1105" 
 />
    <glyph glyph-name="uni2777" unicode="&#x2777;" horiz-adv-x="940" vert-adv-y="1105" 
 />
    <glyph glyph-name="uni2778" unicode="&#x2778;" horiz-adv-x="940" vert-adv-y="1105" 
 />
    <glyph glyph-name="uni2779" unicode="&#x2779;" horiz-adv-x="940" vert-adv-y="1105" 
 />
    <glyph glyph-name="uni277A" unicode="&#x277a;" horiz-adv-x="940" vert-adv-y="1105" 
 />
    <glyph glyph-name="uni277B" unicode="&#x277b;" horiz-adv-x="940" vert-adv-y="1105" 
 />
    <glyph glyph-name="uni277C" unicode="&#x277c;" horiz-adv-x="940" vert-adv-y="1105" 
 />
    <glyph glyph-name="uni277D" unicode="&#x277d;" horiz-adv-x="940" vert-adv-y="1105" 
 />
    <glyph glyph-name="uni277E" unicode="&#x277e;" horiz-adv-x="940" vert-adv-y="1105" 
 />
    <glyph glyph-name="uni277F" unicode="&#x277f;" horiz-adv-x="940" vert-adv-y="1105" 
 />
    <glyph glyph-name="uni278A" unicode="&#x278a;" horiz-adv-x="940" vert-adv-y="1105" 
 />
    <glyph glyph-name="uni278B" unicode="&#x278b;" horiz-adv-x="940" vert-adv-y="1105" 
 />
    <glyph glyph-name="uni278C" unicode="&#x278c;" horiz-adv-x="940" vert-adv-y="1105" 
 />
    <glyph glyph-name="uni278D" unicode="&#x278d;" horiz-adv-x="940" vert-adv-y="1105" 
 />
    <glyph glyph-name="uni278E" unicode="&#x278e;" horiz-adv-x="940" vert-adv-y="1105" 
 />
    <glyph glyph-name="uni278F" unicode="&#x278f;" horiz-adv-x="940" vert-adv-y="1105" 
 />
    <glyph glyph-name="uni2790" unicode="&#x2790;" horiz-adv-x="940" vert-adv-y="1105" 
 />
    <glyph glyph-name="uni2791" unicode="&#x2791;" horiz-adv-x="940" vert-adv-y="1105" 
 />
    <glyph glyph-name="uni2792" unicode="&#x2792;" horiz-adv-x="940" vert-adv-y="1105" 
 />
    <glyph glyph-name="uni2793" unicode="&#x2793;" horiz-adv-x="940" vert-adv-y="1105" 
 />
    <glyph glyph-name="Korea1.8485" unicode="&#x2ac5;" horiz-adv-x="940" vert-adv-y="1105" 
 />
    <glyph glyph-name="Korea1.8487" unicode="&#x2ac6;" horiz-adv-x="940" vert-adv-y="1105" 
 />
    <glyph glyph-name="uni4E00" unicode="&#x2f00;" horiz-adv-x="940" vert-adv-y="1105" 
 />
    <glyph glyph-name="uni4E00" unicode="&#x4e00;" horiz-adv-x="940" vert-adv-y="1105" 
 />
    <glyph glyph-name="uni4E59" unicode="&#x2f04;" horiz-adv-x="940" vert-adv-y="1105" 
 />
    <glyph glyph-name="uni4E59" unicode="&#x4e59;" horiz-adv-x="940" vert-adv-y="1105" 
 />
    <glyph glyph-name="uni4E8C" unicode="&#x2f06;" horiz-adv-x="940" vert-adv-y="1105" 
 />
    <glyph glyph-name="uni4E8C" unicode="&#x4e8c;" horiz-adv-x="940" vert-adv-y="1105" 
 />
    <glyph glyph-name="uni4EBA" unicode="&#x2f08;" horiz-adv-x="940" vert-adv-y="1105" 
 />
    <glyph glyph-name="uni4EBA" unicode="&#x4eba;" horiz-adv-x="940" vert-adv-y="1105" 
 />
    <glyph glyph-name="uni5165" unicode="&#x2f0a;" horiz-adv-x="940" vert-adv-y="1105" 
 />
    <glyph glyph-name="uni5165" unicode="&#x5165;" horiz-adv-x="940" vert-adv-y="1105" 
 />
    <glyph glyph-name="uni516B" unicode="&#x2f0b;" horiz-adv-x="940" vert-adv-y="1105" 
 />
    <glyph glyph-name="uni516B" unicode="&#x516b;" horiz-adv-x="940" vert-adv-y="1105" 
 />
    <glyph glyph-name="uni5200" unicode="&#x2f11;" horiz-adv-x="940" vert-adv-y="1105" 
 />
    <glyph glyph-name="uni5200" unicode="&#x5200;" horiz-adv-x="940" vert-adv-y="1105" 
 />
    <glyph glyph-name="uni529B" unicode="&#x2f12;" horiz-adv-x="940" vert-adv-y="1105" 
 />
    <glyph glyph-name="uni529B" unicode="&#xf98a;" horiz-adv-x="940" vert-adv-y="1105" 
 />
    <glyph glyph-name="uni529B" unicode="&#x529b;" horiz-adv-x="940" vert-adv-y="1105" 
 />
    <glyph glyph-name="uni5315" unicode="&#x2f14;" horiz-adv-x="940" vert-adv-y="1105" 
 />
    <glyph glyph-name="uni5315" unicode="&#x5315;" horiz-adv-x="940" vert-adv-y="1105" 
 />
    <glyph glyph-name="uni5341" unicode="&#x2f17;" horiz-adv-x="940" vert-adv-y="1105" 
 />
    <glyph glyph-name="uni5341" unicode="&#x5341;" horiz-adv-x="940" vert-adv-y="1105" 
 />
    <glyph glyph-name="uni535C" unicode="&#x2f18;" horiz-adv-x="940" vert-adv-y="1105" 
 />
    <glyph glyph-name="uni535C" unicode="&#x535c;" horiz-adv-x="940" vert-adv-y="1105" 
 />
    <glyph glyph-name="uni53C8" unicode="&#x2f1c;" horiz-adv-x="940" vert-adv-y="1105" 
 />
    <glyph glyph-name="uni53C8" unicode="&#x53c8;" horiz-adv-x="940" vert-adv-y="1105" 
 />
    <glyph glyph-name="uni53E3" unicode="&#x2f1d;" horiz-adv-x="940" vert-adv-y="1105" 
 />
    <glyph glyph-name="uni53E3" unicode="&#x53e3;" horiz-adv-x="940" vert-adv-y="1105" 
 />
    <glyph glyph-name="uni571F" unicode="&#x2f1f;" horiz-adv-x="940" vert-adv-y="1105" 
 />
    <glyph glyph-name="uni571F" unicode="&#x571f;" horiz-adv-x="940" vert-adv-y="1105" 
 />
    <glyph glyph-name="uni58EB" unicode="&#x2f20;" horiz-adv-x="940" vert-adv-y="1105" 
 />
    <glyph glyph-name="uni58EB" unicode="&#x58eb;" horiz-adv-x="940" vert-adv-y="1105" 
 />
    <glyph glyph-name="uni5915" unicode="&#x2f23;" horiz-adv-x="940" vert-adv-y="1105" 
 />
    <glyph glyph-name="uni5915" unicode="&#x5915;" horiz-adv-x="940" vert-adv-y="1105" 
 />
    <glyph glyph-name="uni5927" unicode="&#x2f24;" horiz-adv-x="940" vert-adv-y="1105" 
 />
    <glyph glyph-name="uni5927" unicode="&#x5927;" horiz-adv-x="940" vert-adv-y="1105" 
 />
    <glyph glyph-name="uni5973" unicode="&#x2f25;" horiz-adv-x="940" vert-adv-y="1105" 
 />
    <glyph glyph-name="uni5973" unicode="&#xf981;" horiz-adv-x="940" vert-adv-y="1105" 
 />
    <glyph glyph-name="uni5973" unicode="&#x5973;" horiz-adv-x="940" vert-adv-y="1105" 
 />
    <glyph glyph-name="uni5B50" unicode="&#x2f26;" horiz-adv-x="940" vert-adv-y="1105" 
 />
    <glyph glyph-name="uni5B50" unicode="&#x5b50;" horiz-adv-x="940" vert-adv-y="1105" 
 />
    <glyph glyph-name="uni5BF8" unicode="&#x2f28;" horiz-adv-x="940" vert-adv-y="1105" 
 />
    <glyph glyph-name="uni5BF8" unicode="&#x5bf8;" horiz-adv-x="940" vert-adv-y="1105" 
 />
    <glyph glyph-name="uni5C0F" unicode="&#x2f29;" horiz-adv-x="940" vert-adv-y="1105" 
 />
    <glyph glyph-name="uni5C0F" unicode="&#x5c0f;" horiz-adv-x="940" vert-adv-y="1105" 
 />
    <glyph glyph-name="uni5C38" unicode="&#x2f2b;" horiz-adv-x="940" vert-adv-y="1105" 
 />
    <glyph glyph-name="uni5C38" unicode="&#x5c38;" horiz-adv-x="940" vert-adv-y="1105" 
 />
    <glyph glyph-name="uni5C71" unicode="&#x2f2d;" horiz-adv-x="940" vert-adv-y="1105" 
 />
    <glyph glyph-name="uni5C71" unicode="&#x5c71;" horiz-adv-x="940" vert-adv-y="1105" 
 />
    <glyph glyph-name="uni5DE5" unicode="&#x2f2f;" horiz-adv-x="940" vert-adv-y="1105" 
 />
    <glyph glyph-name="uni5DE5" unicode="&#x5de5;" horiz-adv-x="940" vert-adv-y="1105" 
 />
    <glyph glyph-name="uni5DF1" unicode="&#x2f30;" horiz-adv-x="940" vert-adv-y="1105" 
 />
    <glyph glyph-name="uni5DF1" unicode="&#x5df1;" horiz-adv-x="940" vert-adv-y="1105" 
 />
    <glyph glyph-name="uni5DFE" unicode="&#x2f31;" horiz-adv-x="940" vert-adv-y="1105" 
 />
    <glyph glyph-name="uni5DFE" unicode="&#x5dfe;" horiz-adv-x="940" vert-adv-y="1105" 
 />
    <glyph glyph-name="uni5E72" unicode="&#x2f32;" horiz-adv-x="940" vert-adv-y="1105" 
 />
    <glyph glyph-name="uni5E72" unicode="&#x5e72;" horiz-adv-x="940" vert-adv-y="1105" 
 />
    <glyph glyph-name="uni5F13" unicode="&#x2f38;" horiz-adv-x="940" vert-adv-y="1105" 
 />
    <glyph glyph-name="uni5F13" unicode="&#x5f13;" horiz-adv-x="940" vert-adv-y="1105" 
 />
    <glyph glyph-name="uni5FC3" unicode="&#x2f3c;" horiz-adv-x="940" vert-adv-y="1105" 
 />
    <glyph glyph-name="uni5FC3" unicode="&#x5fc3;" horiz-adv-x="940" vert-adv-y="1105" 
 />
    <glyph glyph-name="uni6208" unicode="&#x2f3d;" horiz-adv-x="940" vert-adv-y="1105" 
 />
    <glyph glyph-name="uni6208" unicode="&#x6208;" horiz-adv-x="940" vert-adv-y="1105" 
 />
    <glyph glyph-name="uni6236" unicode="&#x2f3e;" horiz-adv-x="940" vert-adv-y="1105" 
 />
    <glyph glyph-name="uni6236" unicode="&#x6236;" horiz-adv-x="940" vert-adv-y="1105" 
 />
    <glyph glyph-name="uni624B" unicode="&#x2f3f;" horiz-adv-x="940" vert-adv-y="1105" 
 />
    <glyph glyph-name="uni624B" unicode="&#x624b;" horiz-adv-x="940" vert-adv-y="1105" 
 />
    <glyph glyph-name="uni652F" unicode="&#x2f40;" horiz-adv-x="940" vert-adv-y="1105" 
 />
    <glyph glyph-name="uni652F" unicode="&#x652f;" horiz-adv-x="940" vert-adv-y="1105" 
 />
    <glyph glyph-name="uni6587" unicode="&#x2f42;" horiz-adv-x="940" vert-adv-y="1105" 
 />
    <glyph glyph-name="uni6587" unicode="&#x6587;" horiz-adv-x="940" vert-adv-y="1105" 
 />
    <glyph glyph-name="uni6597" unicode="&#x2f43;" horiz-adv-x="940" vert-adv-y="1105" 
 />
    <glyph glyph-name="uni6597" unicode="&#x6597;" horiz-adv-x="940" vert-adv-y="1105" 
 />
    <glyph glyph-name="uni65A4" unicode="&#x2f44;" horiz-adv-x="940" vert-adv-y="1105" 
 />
    <glyph glyph-name="uni65A4" unicode="&#x65a4;" horiz-adv-x="940" vert-adv-y="1105" 
 />
    <glyph glyph-name="uni65B9" unicode="&#x2f45;" horiz-adv-x="940" vert-adv-y="1105" 
 />
    <glyph glyph-name="uni65B9" unicode="&#x65b9;" horiz-adv-x="940" vert-adv-y="1105" 
 />
    <glyph glyph-name="uni65E0" unicode="&#x2f46;" horiz-adv-x="940" vert-adv-y="1105" 
 />
    <glyph glyph-name="uni65E0" unicode="&#x65e0;" horiz-adv-x="940" vert-adv-y="1105" 
 />
    <glyph glyph-name="uni65E5" unicode="&#x2f47;" horiz-adv-x="940" vert-adv-y="1105" 
 />
    <glyph glyph-name="uni65E5" unicode="&#x65e5;" horiz-adv-x="940" vert-adv-y="1105" 
 />
    <glyph glyph-name="uni66F0" unicode="&#x2f48;" horiz-adv-x="940" vert-adv-y="1105" 
 />
    <glyph glyph-name="uni66F0" unicode="&#x66f0;" horiz-adv-x="940" vert-adv-y="1105" 
 />
    <glyph glyph-name="uni6708" unicode="&#x2f49;" horiz-adv-x="940" vert-adv-y="1105" 
 />
    <glyph glyph-name="uni6708" unicode="&#x6708;" horiz-adv-x="940" vert-adv-y="1105" 
 />
    <glyph glyph-name="uni6728" unicode="&#x2f4a;" horiz-adv-x="940" vert-adv-y="1105" 
 />
    <glyph glyph-name="uni6728" unicode="&#x6728;" horiz-adv-x="940" vert-adv-y="1105" 
 />
    <glyph glyph-name="uni6B20" unicode="&#x2f4b;" horiz-adv-x="940" vert-adv-y="1105" 
 />
    <glyph glyph-name="uni6B20" unicode="&#x6b20;" horiz-adv-x="940" vert-adv-y="1105" 
 />
    <glyph glyph-name="uni6B62" unicode="&#x2f4c;" horiz-adv-x="940" vert-adv-y="1105" 
 />
    <glyph glyph-name="uni6B62" unicode="&#x6b62;" horiz-adv-x="940" vert-adv-y="1105" 
 />
    <glyph glyph-name="uni6BCB" unicode="&#x2f4f;" horiz-adv-x="940" vert-adv-y="1105" 
 />
    <glyph glyph-name="uni6BCB" unicode="&#x6bcb;" horiz-adv-x="940" vert-adv-y="1105" 
 />
    <glyph glyph-name="uni6BD4" unicode="&#x2f50;" horiz-adv-x="940" vert-adv-y="1105" 
 />
    <glyph glyph-name="uni6BD4" unicode="&#x6bd4;" horiz-adv-x="940" vert-adv-y="1105" 
 />
    <glyph glyph-name="uni6BDB" unicode="&#x2f51;" horiz-adv-x="940" vert-adv-y="1105" 
 />
    <glyph glyph-name="uni6BDB" unicode="&#x6bdb;" horiz-adv-x="940" vert-adv-y="1105" 
 />
    <glyph glyph-name="uni6C0F" unicode="&#x2f52;" horiz-adv-x="940" vert-adv-y="1105" 
 />
    <glyph glyph-name="uni6C0F" unicode="&#x6c0f;" horiz-adv-x="940" vert-adv-y="1105" 
 />
    <glyph glyph-name="uni6C34" unicode="&#x2f54;" horiz-adv-x="940" vert-adv-y="1105" 
 />
    <glyph glyph-name="uni6C34" unicode="&#x6c34;" horiz-adv-x="940" vert-adv-y="1105" 
 />
    <glyph glyph-name="uni706B" unicode="&#x2f55;" horiz-adv-x="940" vert-adv-y="1105" 
 />
    <glyph glyph-name="uni706B" unicode="&#x706b;" horiz-adv-x="940" vert-adv-y="1105" 
 />
    <glyph glyph-name="uni722A" unicode="&#x2f56;" horiz-adv-x="940" vert-adv-y="1105" 
 />
    <glyph glyph-name="uni722A" unicode="&#x722a;" horiz-adv-x="940" vert-adv-y="1105" 
 />
    <glyph glyph-name="uni7236" unicode="&#x2f57;" horiz-adv-x="940" vert-adv-y="1105" 
 />
    <glyph glyph-name="uni7236" unicode="&#x7236;" horiz-adv-x="940" vert-adv-y="1105" 
 />
    <glyph glyph-name="uni723B" unicode="&#x2f58;" horiz-adv-x="940" vert-adv-y="1105" 
 />
    <glyph glyph-name="uni723B" unicode="&#x723b;" horiz-adv-x="940" vert-adv-y="1105" 
 />
    <glyph glyph-name="uni7247" unicode="&#x2f5a;" horiz-adv-x="940" vert-adv-y="1105" 
 />
    <glyph glyph-name="uni7247" unicode="&#x7247;" horiz-adv-x="940" vert-adv-y="1105" 
 />
    <glyph glyph-name="uni7259" unicode="&#x2f5b;" horiz-adv-x="940" vert-adv-y="1105" 
 />
    <glyph glyph-name="uni7259" unicode="&#x7259;" horiz-adv-x="940" vert-adv-y="1105" 
 />
    <glyph glyph-name="uni725B" unicode="&#x2f5c;" horiz-adv-x="940" vert-adv-y="1105" 
 />
    <glyph glyph-name="uni725B" unicode="&#x725b;" horiz-adv-x="940" vert-adv-y="1105" 
 />
    <glyph glyph-name="uni72AC" unicode="&#x2f5d;" horiz-adv-x="940" vert-adv-y="1105" 
 />
    <glyph glyph-name="uni72AC" unicode="&#x72ac;" horiz-adv-x="940" vert-adv-y="1105" 
 />
    <glyph glyph-name="uni7384" unicode="&#x2f5e;" horiz-adv-x="940" vert-adv-y="1105" 
 />
    <glyph glyph-name="uni7384" unicode="&#x7384;" horiz-adv-x="940" vert-adv-y="1105" 
 />
    <glyph glyph-name="uni7389" unicode="&#x2f5f;" horiz-adv-x="940" vert-adv-y="1105" 
 />
    <glyph glyph-name="uni7389" unicode="&#x7389;" horiz-adv-x="940" vert-adv-y="1105" 
 />
    <glyph glyph-name="uni74DC" unicode="&#x2f60;" horiz-adv-x="940" vert-adv-y="1105" 
 />
    <glyph glyph-name="uni74DC" unicode="&#x74dc;" horiz-adv-x="940" vert-adv-y="1105" 
 />
    <glyph glyph-name="uni74E6" unicode="&#x2f61;" horiz-adv-x="940" vert-adv-y="1105" 
 />
    <glyph glyph-name="uni74E6" unicode="&#x74e6;" horiz-adv-x="940" vert-adv-y="1105" 
 />
    <glyph glyph-name="uni7518" unicode="&#x2f62;" horiz-adv-x="940" vert-adv-y="1105" 
 />
    <glyph glyph-name="uni7518" unicode="&#x7518;" horiz-adv-x="940" vert-adv-y="1105" 
 />
    <glyph glyph-name="uni751F" unicode="&#x2f63;" horiz-adv-x="940" vert-adv-y="1105" 
 />
    <glyph glyph-name="uni751F" unicode="&#x751f;" horiz-adv-x="940" vert-adv-y="1105" 
 />
    <glyph glyph-name="uni7528" unicode="&#x2f64;" horiz-adv-x="940" vert-adv-y="1105" 
 />
    <glyph glyph-name="uni7528" unicode="&#x7528;" horiz-adv-x="940" vert-adv-y="1105" 
 />
    <glyph glyph-name="uni7530" unicode="&#x2f65;" horiz-adv-x="940" vert-adv-y="1105" 
 />
    <glyph glyph-name="uni7530" unicode="&#x7530;" horiz-adv-x="940" vert-adv-y="1105" 
 />
    <glyph glyph-name="uni758B" unicode="&#x2f66;" horiz-adv-x="940" vert-adv-y="1105" 
 />
    <glyph glyph-name="uni758B" unicode="&#x758b;" horiz-adv-x="940" vert-adv-y="1105" 
 />
    <glyph glyph-name="uni767D" unicode="&#x2f69;" horiz-adv-x="940" vert-adv-y="1105" 
 />
    <glyph glyph-name="uni767D" unicode="&#x767d;" horiz-adv-x="940" vert-adv-y="1105" 
 />
    <glyph glyph-name="uni76AE" unicode="&#x2f6a;" horiz-adv-x="940" vert-adv-y="1105" 
 />
    <glyph glyph-name="uni76AE" unicode="&#x76ae;" horiz-adv-x="940" vert-adv-y="1105" 
 />
    <glyph glyph-name="uni76BF" unicode="&#x2f6b;" horiz-adv-x="940" vert-adv-y="1105" 
 />
    <glyph glyph-name="uni76BF" unicode="&#x76bf;" horiz-adv-x="940" vert-adv-y="1105" 
 />
    <glyph glyph-name="uni76EE" unicode="&#x2f6c;" horiz-adv-x="940" vert-adv-y="1105" 
 />
    <glyph glyph-name="uni76EE" unicode="&#x76ee;" horiz-adv-x="940" vert-adv-y="1105" 
 />
    <glyph glyph-name="uni77DB" unicode="&#x2f6d;" horiz-adv-x="940" vert-adv-y="1105" 
 />
    <glyph glyph-name="uni77DB" unicode="&#x77db;" horiz-adv-x="940" vert-adv-y="1105" 
 />
    <glyph glyph-name="uni77E2" unicode="&#x2f6e;" horiz-adv-x="940" vert-adv-y="1105" 
 />
    <glyph glyph-name="uni77E2" unicode="&#x77e2;" horiz-adv-x="940" vert-adv-y="1105" 
 />
    <glyph glyph-name="uni77F3" unicode="&#x2f6f;" horiz-adv-x="940" vert-adv-y="1105" 
 />
    <glyph glyph-name="uni77F3" unicode="&#x77f3;" horiz-adv-x="940" vert-adv-y="1105" 
 />
    <glyph glyph-name="uni793A" unicode="&#x2f70;" horiz-adv-x="940" vert-adv-y="1105" 
 />
    <glyph glyph-name="uni793A" unicode="&#x793a;" horiz-adv-x="940" vert-adv-y="1105" 
 />
    <glyph glyph-name="uni79BE" unicode="&#x2f72;" horiz-adv-x="940" vert-adv-y="1105" 
 />
    <glyph glyph-name="uni79BE" unicode="&#x79be;" horiz-adv-x="940" vert-adv-y="1105" 
 />
    <glyph glyph-name="uni7A74" unicode="&#x2f73;" horiz-adv-x="940" vert-adv-y="1105" 
 />
    <glyph glyph-name="uni7A74" unicode="&#x7a74;" horiz-adv-x="940" vert-adv-y="1105" 
 />
    <glyph glyph-name="uni7ACB" unicode="&#x2f74;" horiz-adv-x="940" vert-adv-y="1105" 
 />
    <glyph glyph-name="uni7ACB" unicode="&#xf9f7;" horiz-adv-x="940" vert-adv-y="1105" 
 />
    <glyph glyph-name="uni7ACB" unicode="&#x7acb;" horiz-adv-x="940" vert-adv-y="1105" 
 />
    <glyph glyph-name="uni7AF9" unicode="&#x2f75;" horiz-adv-x="940" vert-adv-y="1105" 
 />
    <glyph glyph-name="uni7AF9" unicode="&#x7af9;" horiz-adv-x="940" vert-adv-y="1105" 
 />
    <glyph glyph-name="uni7C73" unicode="&#x2f76;" horiz-adv-x="940" vert-adv-y="1105" 
 />
    <glyph glyph-name="uni7C73" unicode="&#x7c73;" horiz-adv-x="940" vert-adv-y="1105" 
 />
    <glyph glyph-name="uni7F36" unicode="&#x2f78;" horiz-adv-x="940" vert-adv-y="1105" 
 />
    <glyph glyph-name="uni7F36" unicode="&#x7f36;" horiz-adv-x="940" vert-adv-y="1105" 
 />
    <glyph glyph-name="uni7F8A" unicode="&#x2f7a;" horiz-adv-x="940" vert-adv-y="1105" 
 />
    <glyph glyph-name="uni7F8A" unicode="&#x7f8a;" horiz-adv-x="940" vert-adv-y="1105" 
 />
    <glyph glyph-name="uni7FBD" unicode="&#x2f7b;" horiz-adv-x="940" vert-adv-y="1105" 
 />
    <glyph glyph-name="uni7FBD" unicode="&#x7fbd;" horiz-adv-x="940" vert-adv-y="1105" 
 />
    <glyph glyph-name="uni8001" unicode="&#x2f7c;" horiz-adv-x="940" vert-adv-y="1105" 
 />
    <glyph glyph-name="uni8001" unicode="&#xf934;" horiz-adv-x="940" vert-adv-y="1105" 
 />
    <glyph glyph-name="uni8001" unicode="&#x8001;" horiz-adv-x="940" vert-adv-y="1105" 
 />
    <glyph glyph-name="uni800C" unicode="&#x2f7d;" horiz-adv-x="940" vert-adv-y="1105" 
 />
    <glyph glyph-name="uni800C" unicode="&#x800c;" horiz-adv-x="940" vert-adv-y="1105" 
 />
    <glyph glyph-name="uni8033" unicode="&#x2f7f;" horiz-adv-x="940" vert-adv-y="1105" 
 />
    <glyph glyph-name="uni8033" unicode="&#x8033;" horiz-adv-x="940" vert-adv-y="1105" 
 />
    <glyph glyph-name="uni807F" unicode="&#x2f80;" horiz-adv-x="940" vert-adv-y="1105" 
 />
    <glyph glyph-name="uni807F" unicode="&#x807f;" horiz-adv-x="940" vert-adv-y="1105" 
 />
    <glyph glyph-name="uni8089" unicode="&#x2f81;" horiz-adv-x="940" vert-adv-y="1105" 
 />
    <glyph glyph-name="uni8089" unicode="&#x8089;" horiz-adv-x="940" vert-adv-y="1105" 
 />
    <glyph glyph-name="uni81E3" unicode="&#x2f82;" horiz-adv-x="940" vert-adv-y="1105" 
 />
    <glyph glyph-name="uni81E3" unicode="&#x81e3;" horiz-adv-x="940" vert-adv-y="1105" 
 />
    <glyph glyph-name="uni81EA" unicode="&#x2f83;" horiz-adv-x="940" vert-adv-y="1105" 
 />
    <glyph glyph-name="uni81EA" unicode="&#x81ea;" horiz-adv-x="940" vert-adv-y="1105" 
 />
    <glyph glyph-name="uni81F3" unicode="&#x2f84;" horiz-adv-x="940" vert-adv-y="1105" 
 />
    <glyph glyph-name="uni81F3" unicode="&#x81f3;" horiz-adv-x="940" vert-adv-y="1105" 
 />
    <glyph glyph-name="uni81FC" unicode="&#x2f85;" horiz-adv-x="940" vert-adv-y="1105" 
 />
    <glyph glyph-name="uni81FC" unicode="&#x81fc;" horiz-adv-x="940" vert-adv-y="1105" 
 />
    <glyph glyph-name="uni820C" unicode="&#x2f86;" horiz-adv-x="940" vert-adv-y="1105" 
 />
    <glyph glyph-name="uni820C" unicode="&#x820c;" horiz-adv-x="940" vert-adv-y="1105" 
 />
    <glyph glyph-name="uni821B" unicode="&#x2f87;" horiz-adv-x="940" vert-adv-y="1105" 
 />
    <glyph glyph-name="uni821B" unicode="&#x821b;" horiz-adv-x="940" vert-adv-y="1105" 
 />
    <glyph glyph-name="uni821F" unicode="&#x2f88;" horiz-adv-x="940" vert-adv-y="1105" 
 />
    <glyph glyph-name="uni821F" unicode="&#x821f;" horiz-adv-x="940" vert-adv-y="1105" 
 />
    <glyph glyph-name="uni826E" unicode="&#x2f89;" horiz-adv-x="940" vert-adv-y="1105" 
 />
    <glyph glyph-name="uni826E" unicode="&#x826e;" horiz-adv-x="940" vert-adv-y="1105" 
 />
    <glyph glyph-name="uni8272" unicode="&#x2f8a;" horiz-adv-x="940" vert-adv-y="1105" 
 />
    <glyph glyph-name="uni8272" unicode="&#x8272;" horiz-adv-x="940" vert-adv-y="1105" 
 />
    <glyph glyph-name="uni8278" unicode="&#x2f8b;" horiz-adv-x="940" vert-adv-y="1105" 
 />
    <glyph glyph-name="uni8278" unicode="&#x8278;" horiz-adv-x="940" vert-adv-y="1105" 
 />
    <glyph glyph-name="uni8840" unicode="&#x2f8e;" horiz-adv-x="940" vert-adv-y="1105" 
 />
    <glyph glyph-name="uni8840" unicode="&#x8840;" horiz-adv-x="940" vert-adv-y="1105" 
 />
    <glyph glyph-name="uni884C" unicode="&#x2f8f;" horiz-adv-x="940" vert-adv-y="1105" 
 />
    <glyph glyph-name="uni884C" unicode="&#xfa08;" horiz-adv-x="940" vert-adv-y="1105" 
 />
    <glyph glyph-name="uni884C" unicode="&#x884c;" horiz-adv-x="940" vert-adv-y="1105" 
 />
    <glyph glyph-name="uni8863" unicode="&#x2f90;" horiz-adv-x="940" vert-adv-y="1105" 
 />
    <glyph glyph-name="uni8863" unicode="&#x8863;" horiz-adv-x="940" vert-adv-y="1105" 
 />
    <glyph glyph-name="uni898B" unicode="&#x2f92;" horiz-adv-x="940" vert-adv-y="1105" 
 />
    <glyph glyph-name="uni898B" unicode="&#xfa0a;" horiz-adv-x="940" vert-adv-y="1105" 
 />
    <glyph glyph-name="uni898B" unicode="&#x898b;" horiz-adv-x="940" vert-adv-y="1105" 
 />
    <glyph glyph-name="uni89D2" unicode="&#x2f93;" horiz-adv-x="940" vert-adv-y="1105" 
 />
    <glyph glyph-name="uni89D2" unicode="&#x89d2;" horiz-adv-x="940" vert-adv-y="1105" 
 />
    <glyph glyph-name="uni8A00" unicode="&#x2f94;" horiz-adv-x="940" vert-adv-y="1105" 
 />
    <glyph glyph-name="uni8A00" unicode="&#x8a00;" horiz-adv-x="940" vert-adv-y="1105" 
 />
    <glyph glyph-name="uni8C37" unicode="&#x2f95;" horiz-adv-x="940" vert-adv-y="1105" 
 />
    <glyph glyph-name="uni8C37" unicode="&#x8c37;" horiz-adv-x="940" vert-adv-y="1105" 
 />
    <glyph glyph-name="uni8C46" unicode="&#x2f96;" horiz-adv-x="940" vert-adv-y="1105" 
 />
    <glyph glyph-name="uni8C46" unicode="&#x8c46;" horiz-adv-x="940" vert-adv-y="1105" 
 />
    <glyph glyph-name="uni8C55" unicode="&#x2f97;" horiz-adv-x="940" vert-adv-y="1105" 
 />
    <glyph glyph-name="uni8C55" unicode="&#x8c55;" horiz-adv-x="940" vert-adv-y="1105" 
 />
    <glyph glyph-name="uni8C9D" unicode="&#x2f99;" horiz-adv-x="940" vert-adv-y="1105" 
 />
    <glyph glyph-name="uni8C9D" unicode="&#x8c9d;" horiz-adv-x="940" vert-adv-y="1105" 
 />
    <glyph glyph-name="uni8D64" unicode="&#x2f9a;" horiz-adv-x="940" vert-adv-y="1105" 
 />
    <glyph glyph-name="uni8D64" unicode="&#x8d64;" horiz-adv-x="940" vert-adv-y="1105" 
 />
    </font>
</defs>
</svg>
